<svg width="397" height="82" viewBox="0 0 397 82" fill="none" xmlns="http://www.w3.org/2000/svg">
<path d="M27.04 57.8H32C30.1867 52.3067 28.5067 46.12 26.96 39.24C26.16 35.6667 25.2533 31.1333 24.24 25.64L22.96 19.32C22.16 20.2267 21.44 21.2133 20.8 22.28C20.16 23.2933 19.44 24.5733 18.64 26.12C16.56 29.8533 15.0667 33.2667 14.16 36.36C13.2533 39.4 12.8 42.0933 12.8 44.44C12.8 47.8 12.96 49.9067 13.28 50.76C13.6 51.6133 14.08 52.04 14.72 52.04C15.4667 52.04 15.9733 52.3067 16.24 52.84C16.72 53.8533 16.96 56.2 16.96 59.88C16.96 60.68 16.6667 61.1867 16.08 61.4C15.4933 61.6667 14.88 61.8 14.24 61.8C13.8133 61.8 13.3333 61.7467 12.8 61.64C12.2667 61.5867 11.84 61.5333 11.52 61.48C11.2 61.4267 10.8 61.4 10.32 61.4C9.89333 61.4 9.57333 61.4 9.36 61.4C8.4 61.4 7.65333 61.4267 7.12 61.48C6.58667 61.5867 6.13333 61.64 5.76 61.64C5.01333 61.64 4.37333 61.4533 3.84 61.08C3.36 60.7067 3.06667 59.9867 2.96 58.92V56.2C2.96 53.3733 3.41333 50.6 4.32 47.88C5.22667 45.1067 7.14667 40.8667 10.08 35.16L15.12 25.48C16.9333 22.12 17.9733 20.1467 18.24 19.56C19.7333 16.4133 20.48 14.2 20.48 12.92C20.48 12.0667 20.2667 11.5333 19.84 11.32C19.4667 11.1067 18.8267 11 17.92 11H12.72V7.8H37.76V11H33.12C34.0267 17.56 35.3333 24.6533 37.04 32.28C38.5333 38.8933 40.32 45.6667 42.4 52.6C42.6133 53.2933 42.8533 54.2 43.12 55.32C43.44 56.3867 43.68 57.2133 43.84 57.8H49.36V61H27.04V57.8ZM67.3488 57.16L67.5088 58.44H70.5488C70.9221 54.0133 71.3488 50.3867 71.8288 47.56C72.3088 44.7333 72.8688 42.04 73.5088 39.48C74.4154 35.64 75.4554 32.68 76.6288 30.6C78.8154 26.76 81.7221 24.84 85.3488 24.84C86.4154 24.84 87.2688 24.9467 87.9088 25.16C88.5488 25.32 88.8688 25.72 88.8688 26.36C88.8688 26.84 88.7088 27.3733 88.3888 27.96C88.1221 28.5467 87.8288 29.1333 87.5088 29.72C87.2421 30.52 87.1088 31.3467 87.1088 32.2V33.16V34.76C87.1088 35.4 87.0554 35.88 86.9488 36.2L85.1888 36.28C84.8688 35 83.9088 34.36 82.3088 34.36C80.1754 34.36 78.4421 35.88 77.1088 38.92C75.1354 43.4 74.1488 50.8133 74.1488 61.16C74.1488 66.2267 74.3088 69.88 74.6288 72.12C75.3221 76.9733 75.6688 79.56 75.6688 79.88C75.6688 80.4133 75.2421 80.84 74.3888 81.16C73.5888 81.48 71.8554 81.64 69.1888 81.64C68.2821 81.64 67.8288 81.0533 67.8288 79.88C67.8288 77 67.8821 74.84 67.9888 73.4C68.1488 72.0133 68.5754 69.1333 69.2688 64.76L69.7488 61H65.3488C63.2154 61 61.7754 61.0267 61.0287 61.08C60.2821 61.1333 59.6154 61.1867 59.0288 61.24C58.4954 61.24 58.2288 60.9733 58.2288 60.44C58.2821 60.0667 58.3088 59.8 58.3088 59.64V57.96C58.3088 54.3333 57.7488 49.7467 56.6288 44.2C55.5088 38.6 54.2021 33.7733 52.7088 29.72C52.3354 28.6533 52.0954 27.9333 51.9888 27.56C51.9354 27.1333 51.9088 26.76 51.9088 26.44C51.9088 26.0667 52.2554 25.8267 52.9488 25.72C53.6954 25.56 54.7088 25.48 55.9888 25.48C57.5354 25.48 58.5754 25.5333 59.1088 25.64C59.8554 25.6933 60.4954 26.04 61.0287 26.68C61.4021 27.1067 61.8821 27.8533 62.4688 28.92C63.5354 30.84 64.6554 35.6667 65.8288 43.4C66.8421 50.1733 67.3488 54.76 67.3488 57.16ZM102.106 41.88H102.746C106.16 35.64 109.413 31.1067 112.506 28.28C115.013 25.9867 117.413 24.84 119.706 24.84C120.56 24.84 121.333 24.9733 122.026 25.24C122.72 25.4533 123.066 25.72 123.066 26.04C123.066 26.5733 122.853 27.1333 122.426 27.72C121.36 29.2133 120.826 31.2667 120.826 33.88L120.746 35.48L118.826 35.56C118.08 33.96 116.906 33.16 115.306 33.16C114.026 33.16 112.533 33.88 110.826 35.32C109.173 36.7067 107.76 38.3867 106.586 40.36L104.986 42.6C110.16 44.04 114.32 46.2533 117.466 49.24C121.36 52.92 123.306 56.6 123.306 60.28C123.306 60.92 122.666 61.24 121.386 61.24H120.426L117.706 61C116.64 61 115.76 61.0533 115.066 61.16C114.426 61.2667 114.026 61.32 113.866 61.32C113.386 61.32 113.04 61.1067 112.826 60.68C112.613 60.2533 112.4 59.3733 112.186 58.04C111.653 54.7333 110.506 51.88 108.746 49.48C106.986 47.0267 104.773 45.3733 102.106 44.52C102.106 47.88 102.16 50.6533 102.266 52.84C102.426 54.9733 102.64 56.9733 102.906 58.84C103.013 59.64 102.96 60.1467 102.746 60.36C102.32 60.7867 101.2 61 99.3863 61H95.7863C94.4529 61 93.6529 60.04 93.3863 58.12C93.1196 56.1467 92.9863 50.36 92.9863 40.76C92.9863 33.8267 93.1463 29.56 93.4663 27.96C93.8396 26.36 94.6129 25.56 95.7863 25.56L97.7863 25.72L101.626 25.48C102.053 25.4267 102.32 25.4267 102.426 25.48C103.066 25.64 103.386 26.0133 103.386 26.6C103.386 27.08 103.253 28.0933 102.986 29.64C102.773 31.1333 102.56 32.7867 102.346 34.6C102.186 36.4133 102.106 38.84 102.106 41.88ZM127.726 45.56C127.726 39.7467 129.539 34.36 133.166 29.4C136.312 25.1333 139.032 23 141.326 23C143.886 23 146.659 24.4133 149.646 27.24C153.539 30.92 155.486 35.56 155.486 41.16C155.486 45.7467 153.832 50.6267 150.526 55.8C147.272 60.9733 144.339 63.56 141.726 63.56C139.059 63.56 136.099 61.6133 132.846 57.72C129.432 53.6133 127.726 49.56 127.726 45.56ZM135.486 31.48C134.739 32.3867 134.152 33.4267 133.726 34.6C133.299 35.72 133.086 36.7333 133.086 37.64C133.086 41.0533 134.152 44.4667 136.286 47.88C138.952 52.1467 142.366 54.28 146.526 54.28C147.166 54.28 147.646 54.2533 147.966 54.2C148.392 53.3467 148.712 52.44 148.926 51.48C149.139 50.52 149.246 49.56 149.246 48.6C149.246 44.3867 148.019 40.6533 145.566 37.4C142.952 33.9333 139.592 31.96 135.486 31.48ZM172.918 25.72H178.838C179.851 25.72 180.464 25.9067 180.678 26.28C180.891 26.6533 181.104 27.8533 181.318 29.88C181.531 31.8533 181.958 34.36 182.598 37.4C183.238 40.3867 184.358 44.9733 185.958 51.16C186.331 48.5467 186.998 45.9333 187.958 43.32C188.491 41.8267 189.131 40.3333 189.878 38.84C190.304 37.9333 190.731 36.92 191.158 35.8C191.638 34.6267 191.878 33.6933 191.878 33C191.878 31.1867 191.771 29.6933 191.558 28.52C191.398 27.2933 191.318 26.4933 191.318 26.12C191.318 25.8533 191.611 25.72 192.198 25.72H192.998H199.238C200.624 25.72 201.371 26.12 201.478 26.92C202.171 34.7067 203.104 40.7067 204.278 44.92C205.291 48.4933 206.918 52.68 209.158 57.48C209.318 57.9067 209.451 58.3067 209.558 58.68C209.718 59.0533 209.798 59.4533 209.798 59.88C209.798 60.3067 209.718 60.6 209.558 60.76C209.398 60.92 208.918 61 208.118 61H202.998C201.184 61 199.291 58.2533 197.318 52.76C195.878 48.8133 194.838 44.8667 194.198 40.92L193.558 37.8C192.064 41.0533 190.811 44.52 189.798 48.2C188.784 51.8267 188.278 54.9467 188.278 57.56V59.16C188.331 59.4267 188.331 59.8 188.278 60.28C188.224 60.76 188.011 61 187.638 61H181.798C180.944 61 180.411 60.92 180.198 60.76C179.611 60.3333 179.024 59.24 178.438 57.48C177.531 54.5467 176.731 51.64 176.038 48.76C175.131 44.9733 174.144 40.36 173.078 34.92C170.998 37.5333 169.344 40.3867 168.118 43.48C166.891 46.5733 166.278 49.5333 166.278 52.36C166.278 53.4267 166.438 54.5467 166.758 55.72C166.918 56.36 167.211 57.24 167.638 58.36C167.798 58.84 167.958 59.2933 168.118 59.72C168.278 60.1467 168.358 60.4133 168.358 60.52C168.358 60.84 168.091 61 167.558 61H160.998C160.518 61 160.171 60.68 159.958 60.04C159.798 59.4 159.718 58.6 159.718 57.64C159.718 54.9733 160.544 51.8 162.198 48.12C163.318 45.6667 164.704 43.1333 166.358 40.52C167.744 38.28 168.704 36.6533 169.238 35.64C170.518 33.24 171.158 31.2133 171.158 29.56C171.104 29.24 171.078 28.9733 171.078 28.76C170.971 28.12 170.918 27.6667 170.918 27.4C170.918 27.1867 170.971 26.92 171.078 26.6C171.184 26.28 171.318 26.0667 171.478 25.96C171.691 25.8 172.171 25.72 172.918 25.72ZM213.898 45.56C213.898 39.7467 215.711 34.36 219.338 29.4C222.484 25.1333 225.204 23 227.498 23C230.058 23 232.831 24.4133 235.818 27.24C239.711 30.92 241.658 35.56 241.658 41.16C241.658 45.7467 240.004 50.6267 236.698 55.8C233.444 60.9733 230.511 63.56 227.898 63.56C225.231 63.56 222.271 61.6133 219.018 57.72C215.604 53.6133 213.898 49.56 213.898 45.56ZM221.658 31.48C220.911 32.3867 220.324 33.4267 219.898 34.6C219.471 35.72 219.258 36.7333 219.258 37.64C219.258 41.0533 220.324 44.4667 222.458 47.88C225.124 52.1467 228.538 54.28 232.698 54.28C233.338 54.28 233.818 54.2533 234.138 54.2C234.564 53.3467 234.884 52.44 235.098 51.48C235.311 50.52 235.418 49.56 235.418 48.6C235.418 44.3867 234.191 40.6533 231.738 37.4C229.124 33.9333 225.764 31.96 221.658 31.48ZM255.809 55.56L256.129 58.12C256.183 58.8133 256.289 60.6 256.449 63.48C256.663 66.4133 256.769 68.68 256.769 70.28C256.769 74.12 256.343 76.76 255.489 78.2C254.689 79.6933 253.516 80.44 251.969 80.44C250.956 80.44 250.369 80.2 250.209 79.72V79.24C250.263 78.8667 250.289 78.2533 250.289 77.4C250.289 76.6 250.289 75.88 250.289 75.24V73V71V69.4C250.289 68.5467 250.263 67.5867 250.209 66.52C250.156 65.4533 250.049 64.2267 249.889 62.84C249.409 57.6667 249.063 53.9067 248.849 51.56C248.636 49.2133 248.529 47.0267 248.529 45C248.529 38.92 250.449 33.56 254.289 28.92C257.543 25.0267 260.396 23.08 262.849 23.08C265.463 23.08 268.289 25.4 271.329 30.04C274.743 35.2667 276.449 40.84 276.449 46.76C276.449 51.2933 275.436 55 273.409 57.88C271.436 60.7067 268.903 62.12 265.809 62.12C263.889 62.12 261.969 61.5067 260.049 60.28C258.183 59 256.769 57.4267 255.809 55.56ZM257.889 30.2C256.716 31.96 255.889 33.7467 255.409 35.56C254.929 37.3733 254.689 39.5333 254.689 42.04C254.689 46.4133 255.836 50.2 258.129 53.4C260.156 56.1733 262.183 57.56 264.209 57.56C265.169 57.56 265.996 57.2133 266.689 56.52C267.756 55.4533 268.289 53.8267 268.289 51.64V48.84C268.289 45.8533 267.303 42.44 265.329 38.6C263.143 34.3333 260.663 31.5333 257.889 30.2ZM306.949 61H287.269C286.362 61 285.695 60.76 285.269 60.28C284.842 59.8 284.629 59.0533 284.629 58.04V47.96C284.629 37.8267 284.789 31.5867 285.109 29.24C285.429 26.84 286.309 25.64 287.749 25.64L290.069 25.72H291.349C291.669 25.72 292.015 25.72 292.389 25.72C292.922 25.6133 293.295 25.56 293.509 25.56H294.389C294.762 25.6133 295.002 25.7467 295.109 25.96C295.269 26.1733 295.349 26.4133 295.349 26.68C295.349 27.1067 295.215 27.9867 294.949 29.32C294.682 30.6 294.469 32.2533 294.309 34.28C294.149 36.2533 294.069 38.0933 294.069 39.8V41.48C297.002 41.48 299.802 41.8533 302.469 42.6C305.189 43.2933 307.562 44.44 309.589 46.04C311.882 47.8533 313.535 50.0133 314.549 52.52C315.242 54.28 315.589 56.12 315.589 58.04C315.589 59.48 315.082 60.4133 314.069 60.84C313.535 61.0533 312.602 61.16 311.269 61.16H309.989L308.709 61.08L306.949 61ZM294.069 58.44H302.709L303.989 58.36L304.069 55.96C304.069 53.5067 303.562 51.4533 302.549 49.8C300.895 47.0267 298.042 45.4 293.989 44.92C293.935 45.3467 293.882 45.8267 293.829 46.36C293.829 46.84 293.829 47.2667 293.829 47.64V48.92C293.829 50.7333 293.855 52.7333 293.909 54.92C294.015 57.1067 294.069 58.28 294.069 58.44ZM354.886 29.08L356.806 31.4C355.579 32.2533 354.352 32.92 353.126 33.4C351.952 33.88 350.832 34.12 349.766 34.12C348.592 34.12 347.446 33.7733 346.326 33.08C345.259 32.3333 344.246 31.4267 343.286 30.36C342.326 29.24 341.712 28.5467 341.446 28.28C340.699 27.64 339.952 27.32 339.206 27.32C336.859 27.32 335.232 29.2133 334.326 33C333.686 35.6133 333.366 38.92 333.366 42.92C334.539 42.0133 336.112 41.1067 338.086 40.2C340.379 39.1333 342.166 38.6 343.446 38.6C344.406 38.6 345.392 38.7867 346.406 39.16C347.419 39.5333 348.406 40.0133 349.366 40.6C350.326 41.1867 351.019 41.48 351.446 41.48C351.926 41.48 352.406 41.3733 352.886 41.16C353.366 40.9467 353.846 40.6533 354.326 40.28L355.846 42.28C354.992 43.2933 354.272 44.0667 353.686 44.6C353.152 45.08 352.432 45.64 351.526 46.28C350.672 46.92 349.979 47.3467 349.446 47.56C348.966 47.7733 348.406 47.88 347.766 47.88C346.912 47.88 346.299 47.8 345.926 47.64C345.606 47.48 345.046 47.1333 344.246 46.6C343.446 46.0667 342.646 45.5867 341.846 45.16C340.672 44.52 339.579 44.2 338.566 44.2C337.446 44.2 336.352 44.4933 335.286 45.08C334.752 45.4 334.139 45.8533 333.446 46.44C333.446 50.28 334.352 53.5067 336.166 56.12C338.032 58.7333 340.646 60.04 344.006 60.04C345.446 60.04 346.939 59.7733 348.486 59.24C350.032 58.6533 351.819 57.6133 353.846 56.12L355.206 57.72C353.659 59.4267 351.739 60.8133 349.446 61.88C347.152 63 344.539 63.56 341.606 63.56C337.019 63.56 333.072 62.4667 329.766 60.28C325.072 57.1333 322.726 52.2267 322.726 45.56V43C322.726 38.84 323.979 34.9467 326.486 31.32C329.579 26.84 333.739 24.6 338.966 24.6C341.312 24.6 343.659 25.08 346.006 26.04C347.179 26.52 348.646 27.2933 350.406 28.36C351.526 29.2133 352.459 29.64 353.206 29.64C353.792 29.64 354.352 29.4533 354.886 29.08Z" fill="#D1661F"/>
<path d="M50.39 8.26562V11.7188C50.39 12.0833 50.3301 12.974 50.2103 14.3906L54.2416 8.26562H57.1088V17H54.8041V13.5156C54.8041 12.8958 54.8562 12.0208 54.9603 10.8906L50.9447 17H48.0853V8.26562H50.39ZM65.6478 8.26562V10.0547H61.9994V17H59.6166V8.26562H65.6478ZM72.0697 17.1562C71.0437 17.1562 70.239 16.7839 69.6556 16.0391H69.5306C69.614 16.7682 69.6556 17.1901 69.6556 17.3047V20.8438H67.2728V8.26562H69.2103L69.5463 9.39844H69.6556C70.2129 8.53385 71.0385 8.10156 72.1322 8.10156C73.1635 8.10156 73.9707 8.5 74.5541 9.29688C75.1374 10.0938 75.4291 11.2005 75.4291 12.6172C75.4291 13.5495 75.2911 14.3594 75.015 15.0469C74.7442 15.7344 74.3562 16.2578 73.851 16.6172C73.3457 16.9766 72.752 17.1562 72.0697 17.1562ZM71.3666 10.0078C70.778 10.0078 70.3483 10.1901 70.0775 10.5547C69.8067 10.9141 69.6661 11.5104 69.6556 12.3438V12.6016C69.6556 13.5391 69.7937 14.2109 70.0697 14.6172C70.351 15.0234 70.7937 15.2266 71.3978 15.2266C72.4655 15.2266 72.9994 14.3464 72.9994 12.5859C72.9994 11.7266 72.8666 11.0833 72.601 10.6562C72.3405 10.224 71.9291 10.0078 71.3666 10.0078ZM82.9447 17L82.4838 15.8125H82.4213C82.0202 16.3177 81.6062 16.6693 81.1791 16.8672C80.7572 17.0599 80.2051 17.1562 79.5228 17.1562C78.6843 17.1562 78.0228 16.9167 77.5385 16.4375C77.0593 15.9583 76.8197 15.276 76.8197 14.3906C76.8197 13.4635 77.1426 12.7812 77.7885 12.3438C78.4395 11.901 79.4187 11.6562 80.726 11.6094L82.2416 11.5625V11.1797C82.2416 10.2943 81.7885 9.85156 80.8822 9.85156C80.1843 9.85156 79.364 10.0625 78.4213 10.4844L77.6322 8.875C78.6374 8.34896 79.752 8.08594 80.976 8.08594C82.1478 8.08594 83.0463 8.34115 83.6713 8.85156C84.2963 9.36198 84.6088 10.138 84.6088 11.1797V17H82.9447ZM82.2416 12.9531L81.3197 12.9844C80.627 13.0052 80.1114 13.1302 79.7728 13.3594C79.4343 13.5885 79.265 13.9375 79.265 14.4062C79.265 15.0781 79.6504 15.4141 80.4213 15.4141C80.9733 15.4141 81.4135 15.2552 81.7416 14.9375C82.0749 14.6198 82.2416 14.1979 82.2416 13.6719V12.9531ZM86.2963 13.6875V11.7344H90.4916V13.6875H86.2963ZM97.9525 8.26562H100.578L97.1166 12.4531L100.882 17H98.1791L94.6088 12.5703V17H92.226V8.26562H94.6088V12.5078L97.9525 8.26562ZM104.031 12.6172C104.031 13.4818 104.171 14.1354 104.453 14.5781C104.739 15.0208 105.203 15.2422 105.843 15.2422C106.479 15.2422 106.934 15.0234 107.21 14.5859C107.492 14.1432 107.632 13.487 107.632 12.6172C107.632 11.7526 107.492 11.1042 107.21 10.6719C106.929 10.2396 106.468 10.0234 105.828 10.0234C105.192 10.0234 104.734 10.2396 104.453 10.6719C104.171 11.099 104.031 11.7474 104.031 12.6172ZM110.07 12.6172C110.07 14.0391 109.695 15.151 108.945 15.9531C108.195 16.7552 107.15 17.1562 105.812 17.1562C104.973 17.1562 104.234 16.974 103.593 16.6094C102.953 16.2396 102.46 15.7109 102.117 15.0234C101.773 14.3359 101.601 13.5339 101.601 12.6172C101.601 11.1901 101.973 10.0807 102.718 9.28906C103.463 8.4974 104.51 8.10156 105.859 8.10156C106.697 8.10156 107.437 8.28385 108.078 8.64844C108.718 9.01302 109.21 9.53646 109.554 10.2188C109.898 10.901 110.07 11.7005 110.07 12.6172ZM114.421 8.26562V11.625H117.749V8.26562H120.132V17H117.749V13.3984H114.421V17H112.038V8.26562H114.421ZM128.359 8.26562H130.984L127.523 12.4531L131.288 17H128.585L125.015 12.5703V17H122.632V8.26562H125.015V12.5078L128.359 8.26562ZM131.288 8.26562H133.898L135.546 13.1797C135.687 13.6068 135.783 14.112 135.835 14.6953H135.882C135.939 14.1589 136.051 13.6536 136.218 13.1797L137.835 8.26562H140.39L136.695 18.1172C136.356 19.0286 135.872 19.7109 135.242 20.1641C134.617 20.6172 133.885 20.8438 133.046 20.8438C132.635 20.8438 132.231 20.7995 131.835 20.7109V18.8203C132.122 18.888 132.434 18.9219 132.773 18.9219C133.195 18.9219 133.562 18.7917 133.874 18.5312C134.192 18.276 134.439 17.888 134.617 17.3672L134.757 16.9375L131.288 8.26562ZM146.445 17.1562C145.419 17.1562 144.614 16.7839 144.031 16.0391H143.906C143.989 16.7682 144.031 17.1901 144.031 17.3047V20.8438H141.648V8.26562H143.585L143.921 9.39844H144.031C144.588 8.53385 145.413 8.10156 146.507 8.10156C147.538 8.10156 148.346 8.5 148.929 9.29688C149.512 10.0938 149.804 11.2005 149.804 12.6172C149.804 13.5495 149.666 14.3594 149.39 15.0469C149.119 15.7344 148.731 16.2578 148.226 16.6172C147.721 16.9766 147.127 17.1562 146.445 17.1562ZM145.742 10.0078C145.153 10.0078 144.723 10.1901 144.453 10.5547C144.182 10.9141 144.041 11.5104 144.031 12.3438V12.6016C144.031 13.5391 144.169 14.2109 144.445 14.6172C144.726 15.0234 145.169 15.2266 145.773 15.2266C146.841 15.2266 147.374 14.3464 147.374 12.5859C147.374 11.7266 147.242 11.0833 146.976 10.6562C146.716 10.224 146.304 10.0078 145.742 10.0078ZM155.32 17.1562C152.601 17.1562 151.242 15.6641 151.242 12.6797C151.242 11.1953 151.611 10.0625 152.351 9.28125C153.091 8.49479 154.15 8.10156 155.531 8.10156C156.541 8.10156 157.447 8.29948 158.249 8.69531L157.546 10.5391C157.171 10.388 156.822 10.2656 156.499 10.1719C156.176 10.0729 155.854 10.0234 155.531 10.0234C154.291 10.0234 153.671 10.9036 153.671 12.6641C153.671 14.3724 154.291 15.2266 155.531 15.2266C155.989 15.2266 156.413 15.1667 156.804 15.0469C157.195 14.9219 157.585 14.7292 157.976 14.4688V16.5078C157.591 16.7526 157.2 16.9219 156.804 17.0156C156.413 17.1094 155.919 17.1562 155.32 17.1562ZM172.101 8.26562V17H169.71V10.0547H166.546V17H164.163V8.26562H172.101ZM176.499 12.6172C176.499 13.4818 176.64 14.1354 176.921 14.5781C177.208 15.0208 177.671 15.2422 178.312 15.2422C178.947 15.2422 179.403 15.0234 179.679 14.5859C179.96 14.1432 180.101 13.487 180.101 12.6172C180.101 11.7526 179.96 11.1042 179.679 10.6719C179.398 10.2396 178.937 10.0234 178.296 10.0234C177.661 10.0234 177.203 10.2396 176.921 10.6719C176.64 11.099 176.499 11.7474 176.499 12.6172ZM182.538 12.6172C182.538 14.0391 182.163 15.151 181.413 15.9531C180.663 16.7552 179.619 17.1562 178.281 17.1562C177.442 17.1562 176.703 16.974 176.062 16.6094C175.421 16.2396 174.929 15.7109 174.585 15.0234C174.242 14.3359 174.07 13.5339 174.07 12.6172C174.07 11.1901 174.442 10.0807 175.187 9.28906C175.932 8.4974 176.979 8.10156 178.328 8.10156C179.166 8.10156 179.906 8.28385 180.546 8.64844C181.187 9.01302 181.679 9.53646 182.023 10.2188C182.367 10.901 182.538 11.7005 182.538 12.6172ZM193.46 17.1562C192.434 17.1562 191.63 16.7839 191.046 16.0391H190.921C191.005 16.7682 191.046 17.1901 191.046 17.3047V20.8438H188.663V8.26562H190.601L190.937 9.39844H191.046C191.604 8.53385 192.429 8.10156 193.523 8.10156C194.554 8.10156 195.361 8.5 195.945 9.29688C196.528 10.0938 196.82 11.2005 196.82 12.6172C196.82 13.5495 196.682 14.3594 196.406 15.0469C196.135 15.7344 195.747 16.2578 195.242 16.6172C194.736 16.9766 194.143 17.1562 193.46 17.1562ZM192.757 10.0078C192.169 10.0078 191.739 10.1901 191.468 10.5547C191.197 10.9141 191.057 11.5104 191.046 12.3438V12.6016C191.046 13.5391 191.184 14.2109 191.46 14.6172C191.742 15.0234 192.184 15.2266 192.788 15.2266C193.856 15.2266 194.39 14.3464 194.39 12.5859C194.39 11.7266 194.257 11.0833 193.992 10.6562C193.731 10.224 193.32 10.0078 192.757 10.0078ZM204.335 17L203.874 15.8125H203.812C203.411 16.3177 202.997 16.6693 202.57 16.8672C202.148 17.0599 201.596 17.1562 200.913 17.1562C200.075 17.1562 199.413 16.9167 198.929 16.4375C198.45 15.9583 198.21 15.276 198.21 14.3906C198.21 13.4635 198.533 12.7812 199.179 12.3438C199.83 11.901 200.809 11.6562 202.117 11.6094L203.632 11.5625V11.1797C203.632 10.2943 203.179 9.85156 202.273 9.85156C201.575 9.85156 200.755 10.0625 199.812 10.4844L199.023 8.875C200.028 8.34896 201.143 8.08594 202.367 8.08594C203.538 8.08594 204.437 8.34115 205.062 8.85156C205.687 9.36198 205.999 10.138 205.999 11.1797V17H204.335ZM203.632 12.9531L202.71 12.9844C202.018 13.0052 201.502 13.1302 201.163 13.3594C200.825 13.5885 200.656 13.9375 200.656 14.4062C200.656 15.0781 201.041 15.4141 201.812 15.4141C202.364 15.4141 202.804 15.2552 203.132 14.9375C203.466 14.6198 203.632 14.1979 203.632 13.6719V12.9531ZM210.632 11.625C211.533 11.625 212.171 11.5521 212.546 11.4062C212.926 11.2604 213.117 11.0286 213.117 10.7109C213.117 10.4297 212.979 10.2188 212.703 10.0781C212.426 9.9375 211.971 9.86719 211.335 9.86719C210.934 9.86719 210.479 9.91667 209.968 10.0156C209.463 10.1146 209.002 10.25 208.585 10.4219L207.882 8.75781C208.502 8.52344 209.104 8.35677 209.687 8.25781C210.27 8.15365 210.921 8.10156 211.64 8.10156C212.729 8.10156 213.601 8.3099 214.257 8.72656C214.913 9.14323 215.242 9.70833 215.242 10.4219C215.242 11.4062 214.661 12.0469 213.499 12.3438V12.4219C214.213 12.599 214.721 12.8516 215.023 13.1797C215.33 13.5026 215.484 13.9271 215.484 14.4531C215.484 14.9844 215.312 15.4557 214.968 15.8672C214.624 16.2786 214.127 16.5964 213.476 16.8203C212.825 17.0443 212.059 17.1562 211.179 17.1562C209.721 17.1562 208.601 16.9766 207.82 16.6172V14.6484C208.268 14.8568 208.757 15.0208 209.288 15.1406C209.825 15.2604 210.343 15.3203 210.843 15.3203C211.619 15.3203 212.2 15.2344 212.585 15.0625C212.971 14.8854 213.163 14.6354 213.163 14.3125C213.163 13.9583 212.96 13.6979 212.554 13.5312C212.148 13.3594 211.523 13.2734 210.679 13.2734H209.757V11.625H210.632ZM219.734 8.26562V11.625H223.062V8.26562H225.445V17H223.062V13.3984H219.734V17H217.351V8.26562H219.734ZM230.328 11.6406H231.476C232.809 11.6406 233.796 11.8542 234.437 12.2812C235.078 12.7083 235.398 13.3542 235.398 14.2188C235.398 15.1406 235.078 15.8359 234.437 16.3047C233.796 16.7682 232.838 17 231.562 17H227.945V8.26562H230.328V11.6406ZM233.015 14.25C233.015 13.9115 232.88 13.6667 232.609 13.5156C232.338 13.3646 231.934 13.2891 231.398 13.2891H230.328V15.3516H231.429C232.486 15.3516 233.015 14.9844 233.015 14.25ZM239.046 17H236.663V8.26562H239.046V17ZM252.562 17H250.335V10.1172L250.21 10.6016C249.929 11.7005 249.676 12.5312 249.453 13.0938L247.906 17H246.21L244.64 13.0625C244.416 12.4896 244.176 11.6849 243.921 10.6484L243.773 10.1172V17H241.554V8.26562H244.835L246.335 11.9922C246.492 12.3932 246.635 12.8542 246.765 13.375C246.9 13.8958 246.992 14.3411 247.038 14.7109C247.21 13.9297 247.343 13.3698 247.437 13.0312C247.536 12.6875 247.643 12.3724 247.757 12.0859C247.872 11.7995 248.39 10.526 249.312 8.26562H252.562V17ZM267.163 8.26562V17H264.773V10.0547H261.609V17H259.226V8.26562H267.163ZM274.46 17.1562C273.434 17.1562 272.63 16.7839 272.046 16.0391H271.921C272.005 16.7682 272.046 17.1901 272.046 17.3047V20.8438H269.663V8.26562H271.601L271.937 9.39844H272.046C272.604 8.53385 273.429 8.10156 274.523 8.10156C275.554 8.10156 276.361 8.5 276.945 9.29688C277.528 10.0938 277.82 11.2005 277.82 12.6172C277.82 13.5495 277.682 14.3594 277.406 15.0469C277.135 15.7344 276.747 16.2578 276.242 16.6172C275.736 16.9766 275.143 17.1562 274.46 17.1562ZM273.757 10.0078C273.169 10.0078 272.739 10.1901 272.468 10.5547C272.197 10.9141 272.057 11.5104 272.046 12.3438V12.6016C272.046 13.5391 272.184 14.2109 272.46 14.6172C272.742 15.0234 273.184 15.2266 273.788 15.2266C274.856 15.2266 275.39 14.3464 275.39 12.5859C275.39 11.7266 275.257 11.0833 274.992 10.6562C274.731 10.224 274.32 10.0078 273.757 10.0078ZM283.406 9.79688C282.9 9.79688 282.505 9.95833 282.218 10.2812C281.932 10.599 281.768 11.0521 281.726 11.6406H285.07C285.059 11.0521 284.906 10.599 284.609 10.2812C284.312 9.95833 283.911 9.79688 283.406 9.79688ZM283.742 17.1562C282.335 17.1562 281.236 16.7682 280.445 15.9922C279.653 15.2161 279.257 14.1172 279.257 12.6953C279.257 11.2318 279.622 10.1016 280.351 9.30469C281.085 8.5026 282.098 8.10156 283.39 8.10156C284.624 8.10156 285.585 8.45312 286.273 9.15625C286.96 9.85938 287.304 10.8307 287.304 12.0703V13.2266H281.671C281.697 13.9036 281.898 14.4323 282.273 14.8125C282.648 15.1927 283.174 15.3828 283.851 15.3828C284.377 15.3828 284.874 15.3281 285.343 15.2188C285.812 15.1094 286.301 14.9349 286.812 14.6953V16.5391C286.395 16.7474 285.95 16.901 285.476 17C285.002 17.1042 284.424 17.1562 283.742 17.1562ZM294.71 15.2578V10.0547H292.921C292.791 11.0234 292.611 11.9427 292.382 12.8125C292.158 13.6823 291.846 14.4974 291.445 15.2578H294.71ZM298.374 20.1328H296.234V17H290.359V20.1328H288.218V15.2578H288.953C289.453 14.4818 289.872 13.5026 290.21 12.3203C290.549 11.138 290.786 9.78646 290.921 8.26562H297.093V15.2578H298.374V20.1328ZM310.874 17H308.648V10.1172L308.523 10.6016C308.242 11.7005 307.989 12.5312 307.765 13.0938L306.218 17H304.523L302.953 13.0625C302.729 12.4896 302.489 11.6849 302.234 10.6484L302.085 10.1172V17H299.867V8.26562H303.148L304.648 11.9922C304.804 12.3932 304.947 12.8542 305.078 13.375C305.213 13.8958 305.304 14.3411 305.351 14.7109C305.523 13.9297 305.656 13.3698 305.749 13.0312C305.848 12.6875 305.955 12.3724 306.07 12.0859C306.184 11.7995 306.703 10.526 307.624 8.26562H310.874V17ZM316.999 9.79688C316.494 9.79688 316.098 9.95833 315.812 10.2812C315.525 10.599 315.361 11.0521 315.32 11.6406H318.663C318.653 11.0521 318.499 10.599 318.203 10.2812C317.906 9.95833 317.505 9.79688 316.999 9.79688ZM317.335 17.1562C315.929 17.1562 314.83 16.7682 314.038 15.9922C313.247 15.2161 312.851 14.1172 312.851 12.6953C312.851 11.2318 313.216 10.1016 313.945 9.30469C314.679 8.5026 315.692 8.10156 316.984 8.10156C318.218 8.10156 319.179 8.45312 319.867 9.15625C320.554 9.85938 320.898 10.8307 320.898 12.0703V13.2266H315.265C315.291 13.9036 315.492 14.4323 315.867 14.8125C316.242 15.1927 316.768 15.3828 317.445 15.3828C317.971 15.3828 318.468 15.3281 318.937 15.2188C319.406 15.1094 319.895 14.9349 320.406 14.6953V16.5391C319.989 16.7474 319.544 16.901 319.07 17C318.596 17.1042 318.018 17.1562 317.335 17.1562ZM330.062 8.26562V10.0547H327.203V17H324.82V10.0547H321.953V8.26562H330.062ZM337.242 17L336.781 15.8125H336.718C336.317 16.3177 335.903 16.6693 335.476 16.8672C335.054 17.0599 334.502 17.1562 333.82 17.1562C332.981 17.1562 332.32 16.9167 331.835 16.4375C331.356 15.9583 331.117 15.276 331.117 14.3906C331.117 13.4635 331.439 12.7812 332.085 12.3438C332.736 11.901 333.716 11.6562 335.023 11.6094L336.538 11.5625V11.1797C336.538 10.2943 336.085 9.85156 335.179 9.85156C334.481 9.85156 333.661 10.0625 332.718 10.4844L331.929 8.875C332.934 8.34896 334.049 8.08594 335.273 8.08594C336.445 8.08594 337.343 8.34115 337.968 8.85156C338.593 9.36198 338.906 10.138 338.906 11.1797V17H337.242ZM336.538 12.9531L335.617 12.9844C334.924 13.0052 334.408 13.1302 334.07 13.3594C333.731 13.5885 333.562 13.9375 333.562 14.4062C333.562 15.0781 333.947 15.4141 334.718 15.4141C335.27 15.4141 335.71 15.2552 336.038 14.9375C336.372 14.6198 336.538 14.1979 336.538 13.6719V12.9531ZM352.374 17H350.148V10.1172L350.023 10.6016C349.742 11.7005 349.489 12.5312 349.265 13.0938L347.718 17H346.023L344.453 13.0625C344.229 12.4896 343.989 11.6849 343.734 10.6484L343.585 10.1172V17H341.367V8.26562H344.648L346.148 11.9922C346.304 12.3932 346.447 12.8542 346.578 13.375C346.713 13.8958 346.804 14.3411 346.851 14.7109C347.023 13.9297 347.156 13.3698 347.249 13.0312C347.348 12.6875 347.455 12.3724 347.57 12.0859C347.684 11.7995 348.203 10.526 349.124 8.26562H352.374V17Z" fill="#525252"/>
</svg>
