<svg width="186" height="21" viewBox="0 0 186 21" fill="none" xmlns="http://www.w3.org/2000/svg">
<path d="M2.31 14.12L2.288 4.902C2.288 2.922 2.64733 1.624 3.366 1.008C4.08467 0.391999 5.61 0.0839993 7.942 0.0839993C9.27667 0.0839993 10.3547 0.428666 11.176 1.118C11.924 1.74867 12.298 2.526 12.298 3.45C12.298 4.43267 11.8653 5.21733 11 5.804C10.34 6.244 9.70933 6.464 9.108 6.464C9.00533 6.47867 8.89533 6.49333 8.778 6.508C8.66067 6.508 8.58 6.508 8.536 6.508C8.228 6.508 7.89067 6.398 7.524 6.178L6.204 6.882C6.83467 7.38067 7.46533 7.762 8.096 8.026C8.30133 8.114 8.56533 8.202 8.888 8.29C9.22533 8.36333 9.56267 8.43667 9.9 8.51C10.5453 8.642 10.9047 8.72267 10.978 8.752C11.5793 8.95733 11.968 9.25067 12.144 9.632C12.2467 9.852 12.298 10.1747 12.298 10.6L12.32 13.174L12.276 13.878C12.276 14.2007 12.078 14.4867 11.682 14.736C11.286 14.9707 10.8827 15.088 10.472 15.088L0.572 15V14.12H2.31ZM5.566 14.12H8.14C8.492 14.12 8.734 14.032 8.866 13.856C8.998 13.68 9.064 13.2987 9.064 12.712V10.358C9.064 10.05 9.02 9.83 8.932 9.698C8.844 9.55133 8.58733 9.36067 8.162 9.126C7.44333 8.74467 6.952 8.466 6.688 8.29C6.26267 8.01133 5.88867 7.674 5.566 7.278V14.12ZM5.566 6.552L6.974 5.518C7.09133 5.57667 7.22333 5.606 7.37 5.606C7.57533 5.606 7.77333 5.56933 7.964 5.496C8.16933 5.42267 8.30133 5.35667 8.36 5.298C8.65333 4.97533 8.81467 4.792 8.844 4.748C8.99067 4.44 9.064 3.89 9.064 3.098C9.064 2.36467 8.90267 1.82933 8.58 1.492C8.272 1.14 7.876 0.964 7.392 0.964C6.62933 0.964 6.10867 1.44067 5.83 2.394C5.63933 3.02467 5.544 3.978 5.544 5.254C5.544 5.48867 5.544 5.716 5.544 5.936C5.544 6.14133 5.55133 6.34667 5.566 6.552ZM25.9268 11.568L26.6088 12.118C26.1542 13.1007 25.5895 13.944 24.9148 14.648C24.2402 15.352 23.6902 15.704 23.2648 15.704C22.6048 15.704 21.8422 15.0367 20.9768 13.702C20.1115 12.3527 19.6788 11.106 19.6788 9.962C19.6788 8.774 20.1042 7.55667 20.9548 6.31C21.7615 5.13667 22.4655 4.55 23.0668 4.55C23.3602 4.55 23.9908 4.792 24.9588 5.276C25.9415 5.74533 26.4328 6.14867 26.4328 6.486C26.4328 6.60333 26.2348 6.87467 25.8388 7.3C25.5455 7.608 25.3108 7.90867 25.1348 8.202C25.0322 8.378 24.9588 8.466 24.9148 8.466C24.8708 8.466 24.7168 8.29733 24.4528 7.96C24.1888 7.62267 23.9248 7.35133 23.6608 7.146C23.2208 6.80867 22.6708 6.56667 22.0108 6.42C21.8788 6.69867 21.7835 7.02867 21.7248 7.41C21.6808 7.79133 21.6588 8.07 21.6588 8.246C21.6588 9.214 21.9668 10.204 22.5828 11.216C23.2135 12.2133 23.9322 12.866 24.7388 13.174C24.9295 12.9833 25.1202 12.756 25.3108 12.492C25.4282 12.3307 25.5382 12.1693 25.6408 12.008L25.9268 11.568ZM38.9625 9.214L37.8845 9.016C37.9872 8.72267 38.0605 8.49533 38.1045 8.334C38.1485 8.17267 38.1705 8.004 38.1705 7.828C38.1705 7.05067 37.8552 6.51533 37.2245 6.222C36.8432 6.046 36.3372 5.958 35.7065 5.958H35.3105L35.2885 7.938L35.2665 9.368C35.2665 10.4827 35.2738 11.5313 35.2885 12.514C35.3178 13.482 35.3545 14.142 35.3985 14.494C35.4278 14.6993 35.3912 14.8533 35.2885 14.956C35.2005 15.044 34.9585 15.088 34.5625 15.088H33.3305C33.0372 15.088 32.8612 14.956 32.8025 14.692C32.7438 14.4133 32.7145 13.7533 32.7145 12.712L32.7365 11.414V10.512L32.7805 8.114L32.8465 5.958H32.4725C31.8565 5.958 31.3652 6.03867 30.9985 6.2C30.3385 6.49333 30.0085 7.036 30.0085 7.828C30.0085 7.96 30.0452 8.16533 30.1185 8.444C30.1918 8.708 30.2432 8.89867 30.2725 9.016L29.1945 9.214C29.0185 8.65667 28.8572 8.23133 28.7105 7.938C28.5638 7.63 28.3218 7.22667 27.9845 6.728C27.8672 6.552 27.7865 6.42 27.7425 6.332C27.6545 6.156 27.6105 5.97267 27.6105 5.782C27.6105 5.57667 27.6765 5.40067 27.8085 5.254C27.9405 5.10733 28.0798 5.034 28.2265 5.034C28.3292 5.034 28.4832 5.04867 28.6885 5.078C28.8938 5.10733 29.1432 5.13667 29.4365 5.166C29.7445 5.22467 30.1552 5.26133 30.6685 5.276C31.1818 5.29067 31.6732 5.298 32.1425 5.298H36.0365H36.7185H36.9825C37.5838 5.298 38.1632 5.254 38.7205 5.166C39.0138 5.13667 39.2558 5.10733 39.4465 5.078C39.6518 5.04867 39.8132 5.034 39.9305 5.034C40.0772 5.034 40.2165 5.10733 40.3485 5.254C40.4805 5.40067 40.5465 5.57667 40.5465 5.782C40.5465 5.97267 40.5098 6.14867 40.4365 6.31C40.3192 6.50067 40.2385 6.64 40.1945 6.728C39.9158 7.13867 39.6812 7.542 39.4905 7.938C39.2998 8.31933 39.1238 8.74467 38.9625 9.214ZM43.7499 13.504L43.8379 14.208C43.8526 14.3987 43.8819 14.89 43.9259 15.682C43.9846 16.4887 44.0139 17.112 44.0139 17.552C44.0139 18.608 43.8966 19.334 43.6619 19.73C43.4419 20.1407 43.1193 20.346 42.6939 20.346C42.4153 20.346 42.2539 20.28 42.2099 20.148V20.016C42.2246 19.9133 42.2319 19.7447 42.2319 19.51C42.2319 19.29 42.2319 19.092 42.2319 18.916V18.3V17.75V17.31C42.2319 17.0753 42.2246 16.8113 42.2099 16.518C42.1953 16.2247 42.1659 15.8873 42.1219 15.506C41.9899 14.0833 41.8946 13.0493 41.8359 12.404C41.7773 11.7587 41.7479 11.1573 41.7479 10.6C41.7479 8.928 42.2759 7.454 43.3319 6.178C44.2266 5.10733 45.0113 4.572 45.6859 4.572C46.4046 4.572 47.1819 5.21 48.0179 6.486C48.9566 7.92333 49.4259 9.456 49.4259 11.084C49.4259 12.3307 49.1473 13.35 48.5899 14.142C48.0473 14.9193 47.3506 15.308 46.4999 15.308C45.9719 15.308 45.4439 15.1393 44.9159 14.802C44.4026 14.45 44.0139 14.0173 43.7499 13.504ZM44.3219 6.53C43.9993 7.014 43.7719 7.50533 43.6399 8.004C43.5079 8.50267 43.4419 9.09667 43.4419 9.786C43.4419 10.9887 43.7573 12.03 44.3879 12.91C44.9453 13.6727 45.5026 14.054 46.0599 14.054C46.3239 14.054 46.5513 13.9587 46.7419 13.768C47.0353 13.4747 47.1819 13.0273 47.1819 12.426V11.656C47.1819 10.8347 46.9106 9.896 46.3679 8.84C45.7666 7.66667 45.0846 6.89667 44.3219 6.53ZM55.4373 5.298H57.5713C57.7179 5.298 57.8059 5.33467 57.8353 5.408C57.8353 5.56933 57.8353 5.70133 57.8353 5.804C57.8499 5.892 57.8939 6.08267 57.9673 6.376L58.2973 7.586L58.4513 8.202C58.9206 10.0793 59.3459 11.59 59.7273 12.734C59.9766 13.438 60.2259 14.1347 60.4753 14.824C60.4753 14.9413 60.3359 15 60.0573 15H57.9233C57.8206 15 57.7473 14.912 57.7033 14.736C57.6739 14.56 57.6519 14.406 57.6373 14.274C57.5493 14.0247 57.4759 13.7973 57.4173 13.592L57.1753 12.778L56.9113 11.832C56.6033 12.8587 56.2219 13.6433 55.7673 14.186C55.1806 14.89 54.4619 15.242 53.6113 15.242C52.8193 15.242 52.2253 14.9193 51.8293 14.274C51.5213 13.7753 51.3673 13.1887 51.3673 12.514C51.3673 11.8247 51.7046 11.0033 52.3793 10.05C52.6139 9.71267 53.1493 9.06733 53.9853 8.114C54.0586 8.026 54.3593 7.696 54.8873 7.124C55.1219 6.87467 55.2393 6.67667 55.2393 6.53C55.2393 6.442 55.2246 6.34667 55.1953 6.244C55.1806 6.12667 55.1439 5.99467 55.0853 5.848C55.0413 5.68667 55.0193 5.54 55.0193 5.408C55.0193 5.33467 55.1586 5.298 55.4373 5.298ZM55.6133 7.344C55.0119 8.004 54.5133 8.69333 54.1173 9.412C53.7213 10.116 53.5233 10.7027 53.5233 11.172C53.5233 11.524 53.6186 11.854 53.8093 12.162C54.0146 12.4553 54.3299 12.602 54.7553 12.602C55.2979 12.602 55.7453 12.3967 56.0973 11.986C56.3906 11.6487 56.5373 11.2893 56.5373 10.908C56.5373 10.6733 56.4933 10.4093 56.4053 10.116C56.3173 9.82267 56.2439 9.58067 56.1852 9.39L55.9213 8.466L55.6133 7.344ZM67.8817 10.16L64.4717 10.116C64.4717 10.4093 64.479 10.6513 64.4937 10.842C64.567 11.81 64.6037 12.316 64.6037 12.36C64.6037 12.5947 64.6404 12.91 64.7137 13.306C64.787 13.6873 64.8237 14.054 64.8237 14.406C64.8237 14.6407 64.765 14.802 64.6477 14.89C64.5304 14.9633 64.215 15 63.7017 15H62.7337C62.3964 15 62.1837 14.6847 62.0957 14.054C62.0224 13.4233 61.9857 11.8833 61.9857 9.434C61.9857 7.498 62.0297 6.32467 62.1177 5.914C62.2204 5.48867 62.4257 5.276 62.7337 5.276L63.3497 5.298L64.2957 5.254H64.5157C64.7064 5.28333 64.8017 5.386 64.8017 5.562C64.8017 5.88467 64.7357 6.55933 64.6037 7.586C64.5304 8.158 64.4937 8.71533 64.4937 9.258L67.8817 9.324C67.8817 7.52 67.9477 6.354 68.0797 5.826C68.1677 5.45933 68.373 5.276 68.6957 5.276L69.3117 5.298H69.6637C69.7664 5.298 69.869 5.298 69.9717 5.298C70.1037 5.26867 70.199 5.254 70.2577 5.254H70.4997C70.6904 5.28333 70.7857 5.386 70.7857 5.562C70.7857 5.65 70.7564 5.804 70.6977 6.024C70.639 6.244 70.595 6.49333 70.5657 6.772C70.463 7.50533 70.4117 8.37067 70.4117 9.368C70.4117 10.5267 70.4484 11.4653 70.5217 12.184C70.595 12.9027 70.6757 13.6433 70.7637 14.406C70.7637 14.6847 70.683 14.8533 70.5217 14.912C70.375 14.9707 70.089 15 69.6637 15H68.6957C68.3144 15 68.0797 14.758 67.9917 14.274C67.9184 13.7753 67.8817 12.404 67.8817 10.16ZM81.5018 6.222L82.0298 6.86C81.6924 7.09467 81.3551 7.278 81.0178 7.41C80.6951 7.542 80.3871 7.608 80.0938 7.608C79.7711 7.608 79.4558 7.51267 79.1478 7.322C78.8544 7.11667 78.5758 6.86733 78.3117 6.574C78.0478 6.266 77.8791 6.07533 77.8058 6.002C77.6004 5.826 77.3951 5.738 77.1898 5.738C76.5444 5.738 76.0971 6.25867 75.8478 7.3C75.6718 8.01867 75.5838 8.928 75.5838 10.028C75.9064 9.77867 76.3391 9.52933 76.8818 9.28C77.5124 8.98667 78.0038 8.84 78.3558 8.84C78.6198 8.84 78.8911 8.89133 79.1698 8.994C79.4484 9.09667 79.7198 9.22867 79.9838 9.39C80.2478 9.55133 80.4384 9.632 80.5558 9.632C80.6878 9.632 80.8198 9.60267 80.9518 9.544C81.0838 9.48533 81.2158 9.40467 81.3478 9.302L81.7658 9.852C81.5311 10.1307 81.3331 10.3433 81.1718 10.49C81.0251 10.622 80.8271 10.776 80.5778 10.952C80.3431 11.128 80.1524 11.2453 80.0058 11.304C79.8738 11.3627 79.7198 11.392 79.5438 11.392C79.3091 11.392 79.1404 11.37 79.0378 11.326C78.9498 11.282 78.7958 11.1867 78.5758 11.04C78.3558 10.8933 78.1358 10.7613 77.9158 10.644C77.5931 10.468 77.2924 10.38 77.0138 10.38C76.7058 10.38 76.4051 10.4607 76.1118 10.622C75.9651 10.71 75.7964 10.8347 75.6058 10.996C75.6058 12.052 75.8551 12.9393 76.3538 13.658C76.8671 14.3767 77.5858 14.736 78.5098 14.736C78.9058 14.736 79.3164 14.6627 79.7418 14.516C80.1671 14.3547 80.6584 14.0687 81.2158 13.658L81.5898 14.098C81.1644 14.5673 80.6364 14.9487 80.0058 15.242C79.3751 15.55 78.6564 15.704 77.8498 15.704C76.5884 15.704 75.5031 15.4033 74.5938 14.802C73.3031 13.9367 72.6578 12.5873 72.6578 10.754V10.05C72.6578 8.906 73.0024 7.83533 73.6918 6.838C74.5424 5.606 75.6864 4.99 77.1238 4.99C77.7691 4.99 78.4144 5.122 79.0598 5.386C79.3824 5.518 79.7858 5.73067 80.2698 6.024C80.5778 6.25867 80.8344 6.376 81.0398 6.376C81.2011 6.376 81.3551 6.32467 81.5018 6.222ZM94.8989 14.12H96.2629C95.7642 12.6093 95.3022 10.908 94.8769 9.016C94.6569 8.03333 94.4076 6.78667 94.1289 5.276L93.7769 3.538C93.5569 3.78733 93.3589 4.05867 93.1829 4.352C93.0069 4.63067 92.8089 4.98267 92.5889 5.408C92.0169 6.43467 91.6062 7.37333 91.3569 8.224C91.1076 9.06 90.9829 9.80067 90.9829 10.446C90.9829 11.37 91.0269 11.9493 91.1149 12.184C91.2029 12.4187 91.3349 12.536 91.5109 12.536C91.7162 12.536 91.8556 12.6093 91.9289 12.756C92.0609 13.0347 92.1269 13.68 92.1269 14.692C92.1269 14.912 92.0462 15.0513 91.8849 15.11C91.7236 15.1833 91.5549 15.22 91.3789 15.22C91.2616 15.22 91.1296 15.2053 90.9829 15.176C90.8362 15.1613 90.7189 15.1467 90.6309 15.132C90.5429 15.1173 90.4329 15.11 90.3009 15.11C90.1836 15.11 90.0956 15.11 90.0369 15.11C89.7729 15.11 89.5676 15.1173 89.4209 15.132C89.2742 15.1613 89.1496 15.176 89.0469 15.176C88.8416 15.176 88.6656 15.1247 88.5189 15.022C88.3869 14.9193 88.3062 14.7213 88.2769 14.428V13.68C88.2769 12.9027 88.4016 12.14 88.6509 11.392C88.9002 10.6293 89.4282 9.46333 90.2349 7.894L91.6209 5.232C92.1196 4.308 92.4056 3.76533 92.4789 3.604C92.8896 2.73867 93.0949 2.13 93.0949 1.778C93.0949 1.54333 93.0362 1.39667 92.9189 1.338C92.8162 1.27933 92.6402 1.25 92.3909 1.25H90.9609V0.37H97.8469V1.25H96.5709C96.8202 3.054 97.1796 5.00467 97.6489 7.102C98.0596 8.92067 98.5509 10.7833 99.1229 12.69C99.1816 12.8807 99.2476 13.13 99.3209 13.438C99.4089 13.7313 99.4749 13.9587 99.5189 14.12H101.037V15H94.8989V14.12ZM105.984 13.944L106.028 14.296H106.864C106.966 13.0787 107.084 12.0813 107.216 11.304C107.348 10.5267 107.502 9.786 107.678 9.082C107.927 8.026 108.213 7.212 108.536 6.64C109.137 5.584 109.936 5.056 110.934 5.056C111.227 5.056 111.462 5.08533 111.638 5.144C111.814 5.188 111.902 5.298 111.902 5.474C111.902 5.606 111.858 5.75267 111.77 5.914C111.696 6.07533 111.616 6.23667 111.528 6.398C111.454 6.618 111.418 6.84533 111.418 7.08V7.344V7.784C111.418 7.96 111.403 8.092 111.374 8.18L110.89 8.202C110.802 7.85 110.538 7.674 110.098 7.674C109.511 7.674 109.034 8.092 108.668 8.928C108.125 10.16 107.854 12.1987 107.854 15.044C107.854 16.4373 107.898 17.442 107.986 18.058C108.176 19.3927 108.272 20.104 108.272 20.192C108.272 20.3387 108.154 20.456 107.92 20.544C107.7 20.632 107.223 20.676 106.49 20.676C106.24 20.676 106.116 20.5147 106.116 20.192C106.116 19.4 106.13 18.806 106.16 18.41C106.204 18.0287 106.321 17.2367 106.512 16.034L106.644 15H105.434C104.847 15 104.451 15.0073 104.246 15.022C104.04 15.0367 103.857 15.0513 103.696 15.066C103.549 15.066 103.476 14.9927 103.476 14.846C103.49 14.7433 103.498 14.67 103.498 14.626V14.164C103.498 13.1667 103.344 11.9053 103.036 10.38C102.728 8.84 102.368 7.51267 101.958 6.398C101.855 6.10467 101.789 5.90667 101.76 5.804C101.745 5.68667 101.738 5.584 101.738 5.496C101.738 5.39333 101.833 5.32733 102.024 5.298C102.229 5.254 102.508 5.232 102.86 5.232C103.285 5.232 103.571 5.24667 103.718 5.276C103.923 5.29067 104.099 5.386 104.246 5.562C104.348 5.67933 104.48 5.88467 104.642 6.178C104.935 6.706 105.243 8.03333 105.566 10.16C105.844 12.0227 105.984 13.284 105.984 13.944ZM115.542 9.742H115.718C116.657 8.026 117.551 6.77933 118.402 6.002C119.091 5.37133 119.751 5.056 120.382 5.056C120.617 5.056 120.829 5.09267 121.02 5.166C121.211 5.22467 121.306 5.298 121.306 5.386C121.306 5.53267 121.247 5.68667 121.13 5.848C120.837 6.25867 120.69 6.82333 120.69 7.542L120.668 7.982L120.14 8.004C119.935 7.564 119.612 7.344 119.172 7.344C118.82 7.344 118.409 7.542 117.94 7.938C117.485 8.31933 117.097 8.78133 116.774 9.324L116.334 9.94C117.757 10.336 118.901 10.9447 119.766 11.766C120.837 12.778 121.372 13.79 121.372 14.802C121.372 14.978 121.196 15.066 120.844 15.066H120.58L119.832 15C119.539 15 119.297 15.0147 119.106 15.044C118.93 15.0733 118.82 15.088 118.776 15.088C118.644 15.088 118.549 15.0293 118.49 14.912C118.431 14.7947 118.373 14.5527 118.314 14.186C118.167 13.2767 117.852 12.492 117.368 11.832C116.884 11.1573 116.275 10.7027 115.542 10.468C115.542 11.392 115.557 12.1547 115.586 12.756C115.63 13.3427 115.689 13.8927 115.762 14.406C115.791 14.626 115.777 14.7653 115.718 14.824C115.601 14.9413 115.293 15 114.794 15H113.804C113.437 15 113.217 14.736 113.144 14.208C113.071 13.6653 113.034 12.074 113.034 9.434C113.034 7.52733 113.078 6.354 113.166 5.914C113.269 5.474 113.481 5.254 113.804 5.254L114.354 5.298L115.41 5.232C115.527 5.21733 115.601 5.21733 115.63 5.232C115.806 5.276 115.894 5.37867 115.894 5.54C115.894 5.672 115.857 5.95067 115.784 6.376C115.725 6.78667 115.667 7.24133 115.608 7.74C115.564 8.23867 115.542 8.906 115.542 9.742ZM122.587 10.754C122.587 9.15533 123.086 7.674 124.083 6.31C124.949 5.13667 125.697 4.55 126.327 4.55C127.031 4.55 127.794 4.93867 128.615 5.716C129.686 6.728 130.221 8.004 130.221 9.544C130.221 10.8053 129.767 12.1473 128.857 13.57C127.963 14.9927 127.156 15.704 126.437 15.704C125.704 15.704 124.89 15.1687 123.995 14.098C123.057 12.9687 122.587 11.854 122.587 10.754ZM124.721 6.882C124.516 7.13133 124.355 7.41733 124.237 7.74C124.12 8.048 124.061 8.32667 124.061 8.576C124.061 9.51467 124.355 10.4533 124.941 11.392C125.675 12.5653 126.613 13.152 127.757 13.152C127.933 13.152 128.065 13.1447 128.153 13.13C128.271 12.8953 128.359 12.646 128.417 12.382C128.476 12.118 128.505 11.854 128.505 11.59C128.505 10.4313 128.168 9.40467 127.493 8.51C126.775 7.55667 125.851 7.014 124.721 6.882ZM135.015 5.298H136.643C136.922 5.298 137.091 5.34933 137.149 5.452C137.208 5.55467 137.267 5.88467 137.325 6.442C137.384 6.98467 137.501 7.674 137.677 8.51C137.853 9.33133 138.161 10.5927 138.601 12.294C138.704 11.5753 138.887 10.8567 139.151 10.138C139.298 9.72733 139.474 9.31667 139.679 8.906C139.797 8.65667 139.914 8.378 140.031 8.07C140.163 7.74733 140.229 7.49067 140.229 7.3C140.229 6.80133 140.2 6.39067 140.141 6.068C140.097 5.73067 140.075 5.51067 140.075 5.408C140.075 5.33467 140.156 5.298 140.317 5.298H140.537H142.253C142.635 5.298 142.84 5.408 142.869 5.628C143.06 7.76933 143.317 9.41933 143.639 10.578C143.918 11.5607 144.365 12.712 144.981 14.032C145.025 14.1493 145.062 14.2593 145.091 14.362C145.135 14.4647 145.157 14.5747 145.157 14.692C145.157 14.8093 145.135 14.89 145.091 14.934C145.047 14.978 144.915 15 144.695 15H143.287C142.789 15 142.268 14.2447 141.725 12.734C141.329 11.6487 141.043 10.5633 140.867 9.478L140.691 8.62C140.281 9.51467 139.936 10.468 139.657 11.48C139.379 12.4773 139.239 13.3353 139.239 14.054V14.494C139.254 14.5673 139.254 14.67 139.239 14.802C139.225 14.934 139.166 15 139.063 15H137.457C137.223 15 137.076 14.978 137.017 14.934C136.856 14.8167 136.695 14.516 136.533 14.032C136.284 13.2253 136.064 12.426 135.873 11.634C135.624 10.5927 135.353 9.324 135.059 7.828C134.487 8.54667 134.033 9.33133 133.695 10.182C133.358 11.0327 133.189 11.8467 133.189 12.624C133.189 12.9173 133.233 13.2253 133.321 13.548C133.365 13.724 133.446 13.966 133.563 14.274C133.607 14.406 133.651 14.5307 133.695 14.648C133.739 14.7653 133.761 14.8387 133.761 14.868C133.761 14.956 133.688 15 133.541 15H131.737C131.605 15 131.51 14.912 131.451 14.736C131.407 14.56 131.385 14.34 131.385 14.076C131.385 13.3427 131.613 12.47 132.067 11.458C132.375 10.7833 132.757 10.0867 133.211 9.368C133.593 8.752 133.857 8.30467 134.003 8.026C134.355 7.366 134.531 6.80867 134.531 6.354C134.517 6.266 134.509 6.19267 134.509 6.134C134.48 5.958 134.465 5.83333 134.465 5.76C134.465 5.70133 134.48 5.628 134.509 5.54C134.539 5.452 134.575 5.39333 134.619 5.364C134.678 5.32 134.81 5.298 135.015 5.298ZM146.285 10.754C146.285 9.15533 146.783 7.674 147.781 6.31C148.646 5.13667 149.394 4.55 150.025 4.55C150.729 4.55 151.491 4.93867 152.313 5.716C153.383 6.728 153.919 8.004 153.919 9.544C153.919 10.8053 153.464 12.1473 152.555 13.57C151.66 14.9927 150.853 15.704 150.135 15.704C149.401 15.704 148.587 15.1687 147.693 14.098C146.754 12.9687 146.285 11.854 146.285 10.754ZM148.419 6.882C148.213 7.13133 148.052 7.41733 147.935 7.74C147.817 8.048 147.759 8.32667 147.759 8.576C147.759 9.51467 148.052 10.4533 148.639 11.392C149.372 12.5653 150.311 13.152 151.455 13.152C151.631 13.152 151.763 13.1447 151.851 13.13C151.968 12.8953 152.056 12.646 152.115 12.382C152.173 12.118 152.203 11.854 152.203 11.59C152.203 10.4313 151.865 9.40467 151.191 8.51C150.472 7.55667 149.548 7.014 148.419 6.882ZM157.81 13.504L157.898 14.208C157.913 14.3987 157.942 14.89 157.986 15.682C158.045 16.4887 158.074 17.112 158.074 17.552C158.074 18.608 157.957 19.334 157.722 19.73C157.502 20.1407 157.18 20.346 156.754 20.346C156.476 20.346 156.314 20.28 156.27 20.148V20.016C156.285 19.9133 156.292 19.7447 156.292 19.51C156.292 19.29 156.292 19.092 156.292 18.916V18.3V17.75V17.31C156.292 17.0753 156.285 16.8113 156.27 16.518C156.256 16.2247 156.226 15.8873 156.182 15.506C156.05 14.0833 155.955 13.0493 155.896 12.404C155.838 11.7587 155.808 11.1573 155.808 10.6C155.808 8.928 156.336 7.454 157.392 6.178C158.287 5.10733 159.072 4.572 159.746 4.572C160.465 4.572 161.242 5.21 162.078 6.486C163.017 7.92333 163.486 9.456 163.486 11.084C163.486 12.3307 163.208 13.35 162.65 14.142C162.108 14.9193 161.411 15.308 160.56 15.308C160.032 15.308 159.504 15.1393 158.976 14.802C158.463 14.45 158.074 14.0173 157.81 13.504ZM158.382 6.53C158.06 7.014 157.832 7.50533 157.7 8.004C157.568 8.50267 157.502 9.09667 157.502 9.786C157.502 10.9887 157.818 12.03 158.448 12.91C159.006 13.6727 159.563 14.054 160.12 14.054C160.384 14.054 160.612 13.9587 160.802 13.768C161.096 13.4747 161.242 13.0273 161.242 12.426V11.656C161.242 10.8347 160.971 9.896 160.428 8.84C159.827 7.66667 159.145 6.89667 158.382 6.53ZM171.874 15H166.462C166.212 15 166.029 14.934 165.912 14.802C165.794 14.67 165.736 14.4647 165.736 14.186V11.414C165.736 8.62733 165.78 6.91133 165.868 6.266C165.956 5.606 166.198 5.276 166.594 5.276L167.232 5.298H167.584C167.672 5.298 167.767 5.298 167.87 5.298C168.016 5.26867 168.119 5.254 168.178 5.254H168.42C168.522 5.26867 168.588 5.30533 168.618 5.364C168.662 5.42267 168.684 5.48867 168.684 5.562C168.684 5.67933 168.647 5.92133 168.574 6.288C168.5 6.64 168.442 7.09467 168.398 7.652C168.354 8.19467 168.332 8.70067 168.332 9.17V9.632C169.138 9.632 169.908 9.73467 170.642 9.94C171.39 10.1307 172.042 10.446 172.6 10.886C173.23 11.3847 173.685 11.9787 173.964 12.668C174.154 13.152 174.25 13.658 174.25 14.186C174.25 14.582 174.11 14.8387 173.832 14.956C173.685 15.0147 173.428 15.044 173.062 15.044H172.71L172.358 15.022L171.874 15ZM168.332 14.296H170.708L171.06 14.274L171.082 13.614C171.082 12.9393 170.942 12.3747 170.664 11.92C170.209 11.1573 169.424 10.71 168.31 10.578C168.295 10.6953 168.28 10.8273 168.266 10.974C168.266 11.106 168.266 11.2233 168.266 11.326V11.678C168.266 12.1767 168.273 12.7267 168.288 13.328C168.317 13.9293 168.332 14.252 168.332 14.296ZM185.056 6.222L185.584 6.86C185.247 7.09467 184.91 7.278 184.572 7.41C184.25 7.542 183.942 7.608 183.648 7.608C183.326 7.608 183.01 7.51267 182.702 7.322C182.409 7.11667 182.13 6.86733 181.866 6.574C181.602 6.266 181.434 6.07533 181.36 6.002C181.155 5.826 180.95 5.738 180.744 5.738C180.099 5.738 179.652 6.25867 179.402 7.3C179.226 8.01867 179.138 8.928 179.138 10.028C179.461 9.77867 179.894 9.52933 180.436 9.28C181.067 8.98667 181.558 8.84 181.91 8.84C182.174 8.84 182.446 8.89133 182.724 8.994C183.003 9.09667 183.274 9.22867 183.538 9.39C183.802 9.55133 183.993 9.632 184.11 9.632C184.242 9.632 184.374 9.60267 184.506 9.544C184.638 9.48533 184.77 9.40467 184.902 9.302L185.32 9.852C185.086 10.1307 184.888 10.3433 184.726 10.49C184.58 10.622 184.382 10.776 184.132 10.952C183.898 11.128 183.707 11.2453 183.56 11.304C183.428 11.3627 183.274 11.392 183.098 11.392C182.864 11.392 182.695 11.37 182.592 11.326C182.504 11.282 182.35 11.1867 182.13 11.04C181.91 10.8933 181.69 10.7613 181.47 10.644C181.148 10.468 180.847 10.38 180.568 10.38C180.26 10.38 179.96 10.4607 179.666 10.622C179.52 10.71 179.351 10.8347 179.16 10.996C179.16 12.052 179.41 12.9393 179.908 13.658C180.422 14.3767 181.14 14.736 182.064 14.736C182.46 14.736 182.871 14.6627 183.296 14.516C183.722 14.3547 184.213 14.0687 184.77 13.658L185.144 14.098C184.719 14.5673 184.191 14.9487 183.56 15.242C182.93 15.55 182.211 15.704 181.404 15.704C180.143 15.704 179.058 15.4033 178.148 14.802C176.858 13.9367 176.212 12.5873 176.212 10.754V10.05C176.212 8.906 176.557 7.83533 177.246 6.838C178.097 5.606 179.241 4.99 180.678 4.99C181.324 4.99 181.969 5.122 182.614 5.386C182.937 5.518 183.34 5.73067 183.824 6.024C184.132 6.25867 184.389 6.376 184.594 6.376C184.756 6.376 184.91 6.32467 185.056 6.222Z" fill="#545454"/>
</svg>
