<svg width="243" height="254" viewBox="0 0 243 254" fill="none" xmlns="http://www.w3.org/2000/svg">
<g clip-path="url(#clip0_454_3465)">
<path fill-rule="evenodd" clip-rule="evenodd" d="M13.6949 174.943C61.4645 202.553 99.0804 174.111 109.733 147.546C120.461 120.796 111.528 64.5789 45.2572 61.9014C122.705 28.3277 174.534 106.265 152.695 159.573C128.294 219.136 50.7083 232.085 13.6949 174.943L13.6949 174.943Z" fill="#B2B3B3" stroke="#FEFEFE" stroke-width="2" stroke-miterlimit="22.9256"/>
<path d="M46.2204 193.181L55.6416 208.149" stroke="#FEFEFE" stroke-width="2.66678" stroke-miterlimit="22.9256"/>
<path d="M59.7578 196.738L73.1436 211.494" stroke="#FEFEFE" stroke-width="2.66678" stroke-miterlimit="22.9256"/>
<path d="M79.6896 197.129L96.7031 209.35" stroke="#FEFEFE" stroke-width="2.66678" stroke-miterlimit="22.9256"/>
<path d="M99.3701 190.914L117.762 200.651" stroke="#FEFEFE" stroke-width="2.66678" stroke-miterlimit="22.9256"/>
<path d="M114.965 179.671L141.026 179.951" stroke="#FEFEFE" stroke-width="2.66678" stroke-miterlimit="22.9256"/>
<path d="M130.38 157.707L154.52 154.389" stroke="#FEFEFE" stroke-width="2.66678" stroke-miterlimit="22.9256"/>
<path d="M134.862 140.041L157.614 129.304" stroke="#FEFEFE" stroke-width="2.66678" stroke-miterlimit="22.9256"/>
<path d="M133.922 119.035L152.608 105.305" stroke="#FEFEFE" stroke-width="2.66678" stroke-miterlimit="22.9256"/>
<path d="M127.838 101.033L141.349 84.4309" stroke="#FEFEFE" stroke-width="2.66678" stroke-miterlimit="22.9256"/>
<path d="M116.697 84.863L125.042 68.0114" stroke="#FEFEFE" stroke-width="2.66678" stroke-miterlimit="22.9256"/>
<path d="M102.558 73.3259L103.514 57.0252" stroke="#FEFEFE" stroke-width="2.66678" stroke-miterlimit="22.9256"/>
<path d="M82.6289 64.8186L80.429 53.7894" stroke="#FEFEFE" stroke-width="2.66678" stroke-miterlimit="22.9256"/>
<path d="M64.3262 61.6987L60.5994 56.5788" stroke="#FEFEFE" stroke-width="2.66678" stroke-miterlimit="22.9256"/>
<path d="M31.4928 186.558L36.9639 199.046" stroke="#FEFEFE" stroke-width="2.66678" stroke-miterlimit="22.9256"/>
<path d="M128.199 138.079C123.046 134.55 116.013 135.859 112.492 141.002C108.97 146.145 110.293 153.175 115.446 156.704C120.599 160.232 127.631 158.923 131.153 153.78C134.675 148.637 133.352 141.607 128.199 138.079Z" stroke="#FEFEFE" stroke-width="2.66678" stroke-miterlimit="22.9256"/>
<path d="M124.224 143.884C122.284 142.555 119.636 143.048 118.309 144.985C116.983 146.922 117.481 149.569 119.422 150.898C121.362 152.227 124.011 151.734 125.337 149.797C126.663 147.86 126.165 145.213 124.224 143.884Z" stroke="#FEFEFE" stroke-width="2.66678" stroke-miterlimit="22.9256"/>
<path d="M124.534 143.433C122.344 141.933 119.355 142.49 117.858 144.676C116.361 146.862 116.923 149.849 119.113 151.349C121.304 152.849 124.292 152.292 125.789 150.106C127.286 147.921 126.724 144.933 124.534 143.433Z" stroke="#FEFEFE" stroke-width="2.66678" stroke-miterlimit="22.9256"/>
<path d="M72.5253 185.476C69.4775 183.389 65.3182 184.164 63.2354 187.206C61.1525 190.247 61.9347 194.405 64.9825 196.492C68.0303 198.579 72.1895 197.805 74.2724 194.763C76.3553 191.721 75.573 187.563 72.5253 185.476Z" stroke="#FEFEFE" stroke-width="2.66678" stroke-miterlimit="22.9256"/>
<path d="M72.0719 186.139C69.3906 184.303 65.7315 184.984 63.8991 187.66C62.0667 190.336 62.7548 193.994 65.4361 195.829C68.1174 197.665 71.7765 196.984 73.6089 194.308C75.4413 191.632 74.7532 187.974 72.0719 186.139Z" stroke="#FEFEFE" stroke-width="2.66678" stroke-miterlimit="22.9256"/>
<path d="M70.7113 188.127C69.1301 187.044 66.9724 187.445 65.8918 189.024C64.8112 190.602 65.217 192.759 66.7982 193.841C68.3793 194.924 70.5371 194.522 71.6177 192.944C72.6983 191.366 72.2925 189.209 70.7113 188.127Z" stroke="#FEFEFE" stroke-width="1.33347" stroke-miterlimit="22.9256"/>
<path d="M113.114 81.9315C110.066 79.8446 105.907 80.6187 103.824 83.6606C101.741 86.7025 102.524 90.8602 105.571 92.9471C108.619 95.034 112.778 94.2599 114.861 91.218C116.944 88.1761 116.162 84.0184 113.114 81.9315Z" stroke="#FEFEFE" stroke-width="2.66678" stroke-miterlimit="22.9256"/>
<path d="M111.33 84.5371C109.724 83.4374 107.533 83.8454 106.435 85.4483C105.337 87.0512 105.75 89.2421 107.356 90.3418C108.962 91.4415 111.153 91.0336 112.251 89.4307C113.349 87.8278 112.936 85.6369 111.33 84.5371Z" stroke="#FEFEFE" stroke-width="1.00002" stroke-miterlimit="22.9256"/>
<path d="M112.653 82.6044C109.978 80.7724 106.326 81.452 104.498 84.1223C102.67 86.7925 103.356 90.4423 106.032 92.2742C108.707 94.1062 112.358 93.4266 114.187 90.7564C116.015 88.0861 115.328 84.4364 112.653 82.6044Z" stroke="#FEFEFE" stroke-width="2.66678" stroke-miterlimit="22.9256"/>
<path d="M62.1287 191.858C44.8689 191.581 30.1315 185.979 13.6943 174.943" stroke="#FEFEFE" stroke-width="2.66678" stroke-miterlimit="22.9256"/>
<path d="M45.9128 61.608C59.0672 61.2447 85.7016 63.4964 105.004 82.3488" stroke="#FEFEFE" stroke-width="2.66678" stroke-miterlimit="22.9256"/>
<path d="M113.315 92.8207C120.204 104.153 125.5 118.068 123.919 136.294" stroke="#FEFEFE" stroke-width="2.66678" stroke-miterlimit="22.9256"/>
<path d="M117.323 157.745C106.025 178.946 87.9693 187.816 75.372 190.397" stroke="#FEFEFE" stroke-width="2.66678" stroke-miterlimit="22.9256"/>
<path d="M117.323 157.745L103.575 159.677L103.833 174.752L88.3292 174.97L82.1837 188.237L68.9416 183.908" stroke="#FEFEFE" stroke-width="2.66678" stroke-miterlimit="22.9256"/>
<path d="M123.967 135.722L114.014 127.482L122.301 116.076L112.033 109.326L116.312 98.4963L104.777 92.6833" stroke="#FEFEFE" stroke-width="2.66678" stroke-miterlimit="22.9256"/>
<path d="M13.6957 174.943C72.211 219.421 113.542 189.715 128.355 162.072C147.867 125.657 127.558 55.238 45.258 61.9013" stroke="#FEFEFE" stroke-width="2.66678" stroke-miterlimit="22.9256"/>
<path d="M103.822 202.466C102.547 201.593 100.808 201.917 99.9364 203.189C99.0651 204.462 99.3923 206.201 100.667 207.074C101.942 207.947 103.682 207.623 104.553 206.351C105.424 205.078 105.097 203.339 103.822 202.466Z" stroke="#FEFEFE" stroke-width="0.32" stroke-miterlimit="22.9256"/>
<path d="M106.144 198.555C105.108 197.846 103.695 198.109 102.987 199.143C102.279 200.176 102.545 201.589 103.581 202.299C104.616 203.008 106.03 202.745 106.738 201.711C107.446 200.677 107.18 199.264 106.144 198.555Z" stroke="#FEFEFE" stroke-width="0.32" stroke-miterlimit="22.9256"/>
<path d="M106.865 202.663C106.307 202.28 105.544 202.422 105.163 202.98C104.781 203.537 104.924 204.299 105.483 204.682C106.041 205.064 106.804 204.922 107.185 204.365C107.567 203.807 107.424 203.045 106.865 202.663Z" stroke="#FEFEFE" stroke-width="0.32" stroke-miterlimit="22.9256"/>
<path d="M110.34 201.188C109.455 200.582 108.247 200.807 107.643 201.69C107.038 202.573 107.265 203.78 108.15 204.386C109.035 204.992 110.242 204.767 110.847 203.884C111.452 203.001 111.225 201.794 110.34 201.188Z" stroke="#FEFEFE" stroke-width="0.32" stroke-miterlimit="22.9256"/>
<path d="M106.141 204.986C105.786 204.743 105.301 204.834 105.059 205.188C104.816 205.542 104.907 206.027 105.262 206.27C105.617 206.513 106.102 206.423 106.345 206.068C106.587 205.714 106.496 205.23 106.141 204.986Z" stroke="#FEFEFE" stroke-width="0.32" stroke-miterlimit="22.9256"/>
<path d="M108.065 204.319C107.754 204.107 107.33 204.186 107.117 204.496C106.905 204.806 106.985 205.23 107.296 205.443C107.606 205.656 108.031 205.577 108.243 205.266C108.455 204.956 108.376 204.532 108.065 204.319Z" stroke="#FEFEFE" stroke-width="0.2" stroke-miterlimit="22.9256"/>
<path d="M107.072 205.258C106.908 205.145 106.683 205.187 106.57 205.351C106.458 205.516 106.5 205.74 106.665 205.853C106.829 205.966 107.054 205.924 107.167 205.76C107.279 205.595 107.237 205.37 107.072 205.258Z" stroke="#FEFEFE" stroke-width="0.32" stroke-miterlimit="22.9256"/>
<path d="M99.3926 205.735C98.6177 205.204 97.5602 205.401 97.0306 206.175C96.501 206.948 96.6999 208.005 97.4748 208.536C98.2497 209.066 99.3072 208.87 99.8368 208.096C100.366 207.323 100.168 206.266 99.3926 205.735Z" stroke="#FEFEFE" stroke-width="0.32" stroke-miterlimit="22.9256"/>
<path d="M113.242 200.832C112.623 200.408 111.779 200.565 111.356 201.183C110.933 201.8 111.092 202.644 111.711 203.068C112.33 203.492 113.174 203.334 113.597 202.717C114.019 202.099 113.861 201.255 113.242 200.832Z" stroke="#FEFEFE" stroke-width="0.32" stroke-miterlimit="22.9256"/>
<path d="M111.238 200.111C110.927 199.899 110.503 199.978 110.29 200.288C110.078 200.598 110.158 201.022 110.469 201.235C110.779 201.448 111.203 201.369 111.416 201.058C111.628 200.748 111.548 200.324 111.238 200.111Z" stroke="#FEFEFE" stroke-width="0.2" stroke-miterlimit="22.9256"/>
<path d="M110.027 200.236C109.863 200.124 109.638 200.166 109.525 200.33C109.413 200.494 109.455 200.719 109.62 200.832C109.784 200.944 110.009 200.903 110.122 200.738C110.234 200.574 110.192 200.349 110.027 200.236Z" stroke="#FEFEFE" stroke-width="0.32" stroke-miterlimit="22.9256"/>
<path d="M112.528 199.177C112.173 198.934 111.688 199.024 111.445 199.378C111.203 199.733 111.294 200.217 111.649 200.46C112.004 200.704 112.489 200.613 112.731 200.259C112.974 199.904 112.883 199.42 112.528 199.177Z" stroke="#FEFEFE" stroke-width="0.32" stroke-miterlimit="22.9256"/>
<path d="M115.665 199.59C115.039 199.162 114.184 199.321 113.756 199.946C113.328 200.571 113.489 201.425 114.115 201.854C114.741 202.283 115.596 202.124 116.024 201.499C116.452 200.874 116.291 200.019 115.665 199.59Z" stroke="#FEFEFE" stroke-width="0.32" stroke-miterlimit="22.9256"/>
<path d="M116.989 200.321C116.781 200.179 116.496 200.232 116.354 200.44C116.212 200.647 116.265 200.931 116.474 201.074C116.682 201.217 116.966 201.164 117.108 200.956C117.251 200.748 117.197 200.464 116.989 200.321Z" stroke="#FEFEFE" stroke-width="0.32" stroke-miterlimit="22.9256"/>
<path d="M113.349 199.972C113.177 199.854 112.941 199.898 112.824 200.07C112.706 200.242 112.75 200.477 112.922 200.595C113.095 200.713 113.33 200.669 113.448 200.497C113.565 200.325 113.521 200.09 113.349 199.972Z" stroke="#FEFEFE" stroke-width="0.2" stroke-miterlimit="22.9256"/>
<path d="M97.0629 208.225C96.8153 208.055 96.4774 208.118 96.3083 208.365C96.1391 208.613 96.2026 208.95 96.4502 209.12C96.6977 209.289 97.0356 209.226 97.2048 208.979C97.374 208.732 97.3104 208.395 97.0629 208.225Z" stroke="#FEFEFE" stroke-width="0.32" stroke-miterlimit="22.9256"/>
<path d="M107.156 201.834C106.966 201.704 106.707 201.752 106.577 201.942C106.447 202.131 106.496 202.391 106.686 202.521C106.876 202.651 107.136 202.603 107.265 202.413C107.395 202.223 107.347 201.964 107.156 201.834Z" stroke="#FEFEFE" stroke-width="0.2" stroke-miterlimit="22.9256"/>
<path d="M108.162 200.096C107.869 199.896 107.47 199.97 107.269 200.263C107.069 200.555 107.144 200.955 107.437 201.155C107.73 201.356 108.13 201.281 108.33 200.989C108.531 200.697 108.455 200.297 108.162 200.096Z" stroke="#FEFEFE" stroke-width="0.32" stroke-miterlimit="22.9256"/>
<path d="M107.507 201.209C107.349 201.101 107.135 201.141 107.027 201.299C106.919 201.456 106.96 201.671 107.117 201.778C107.275 201.886 107.49 201.846 107.597 201.689C107.705 201.532 107.664 201.317 107.507 201.209Z" stroke="#FEFEFE" stroke-width="0.2" stroke-miterlimit="22.9256"/>
<path d="M109.941 197.204C109.167 196.673 108.109 196.87 107.579 197.644C107.05 198.417 107.249 199.474 108.024 200.005C108.799 200.535 109.856 200.339 110.386 199.565C110.915 198.792 110.716 197.735 109.941 197.204Z" stroke="#FEFEFE" stroke-width="0.32" stroke-miterlimit="22.9256"/>
<path d="M104.807 197.032C104.686 196.949 104.519 196.979 104.436 197.101C104.353 197.223 104.384 197.389 104.506 197.472C104.628 197.556 104.794 197.525 104.877 197.403C104.961 197.282 104.929 197.115 104.807 197.032Z" stroke="#FEFEFE" stroke-width="0.32" stroke-miterlimit="22.9256"/>
<path d="M111.465 198.46C111.343 198.377 111.177 198.408 111.093 198.529C111.01 198.651 111.041 198.817 111.163 198.9C111.285 198.984 111.451 198.953 111.535 198.831C111.618 198.71 111.587 198.544 111.465 198.46Z" stroke="#FEFEFE" stroke-width="0.2" stroke-miterlimit="22.9256"/>
<path d="M113.432 198.668C113.267 198.555 113.042 198.597 112.93 198.761C112.817 198.925 112.859 199.15 113.024 199.263C113.189 199.376 113.414 199.334 113.526 199.169C113.639 199.005 113.596 198.78 113.432 198.668Z" stroke="#FEFEFE" stroke-width="0.2" stroke-miterlimit="22.9256"/>
<path d="M99.0923 203.996C98.7372 203.753 98.2526 203.843 98.0099 204.197C97.7672 204.552 97.8584 205.036 98.2135 205.279C98.5686 205.523 99.0532 205.432 99.2959 205.078C99.5385 204.724 99.4474 204.239 99.0923 203.996Z" stroke="#FEFEFE" stroke-width="0.32" stroke-miterlimit="22.9256"/>
<path d="M97.8594 204.895C97.6947 204.782 97.4699 204.824 97.3574 204.989C97.2448 205.153 97.2871 205.378 97.4518 205.49C97.6165 205.603 97.8412 205.561 97.9538 205.397C98.0663 205.233 98.0241 205.008 97.8594 204.895Z" stroke="#FEFEFE" stroke-width="0.2" stroke-miterlimit="22.9256"/>
<path d="M102.446 200.809C102.153 200.609 101.753 200.683 101.552 200.975C101.352 201.268 101.427 201.668 101.72 201.868C102.013 202.069 102.413 201.994 102.614 201.702C102.814 201.41 102.739 201.01 102.446 200.809Z" stroke="#FEFEFE" stroke-width="0.2" stroke-miterlimit="22.9256"/>
<path d="M101.836 199.497C101.646 199.367 101.387 199.415 101.257 199.605C101.127 199.795 101.176 200.054 101.366 200.184C101.556 200.314 101.815 200.266 101.945 200.076C102.075 199.887 102.026 199.627 101.836 199.497Z" stroke="#FEFEFE" stroke-width="0.32" stroke-miterlimit="22.9256"/>
<path d="M96.8817 203.368C96.7599 203.284 96.5936 203.315 96.5104 203.437C96.4271 203.559 96.4584 203.725 96.5802 203.808C96.702 203.892 96.8683 203.861 96.9515 203.739C97.0348 203.617 97.0035 203.451 96.8817 203.368Z" stroke="#FEFEFE" stroke-width="0.2" stroke-miterlimit="22.9256"/>
<path d="M102.242 195.606C102.12 195.523 101.954 195.554 101.871 195.676C101.787 195.797 101.819 195.963 101.941 196.047C102.062 196.13 102.229 196.099 102.312 195.978C102.395 195.856 102.364 195.69 102.242 195.606Z" stroke="#FEFEFE" stroke-width="0.2" stroke-miterlimit="22.9256"/>
<path d="M107.044 197.523C106.734 197.31 106.309 197.389 106.097 197.699C105.885 198.009 105.964 198.433 106.275 198.646C106.586 198.859 107.01 198.78 107.222 198.47C107.435 198.159 107.355 197.735 107.044 197.523Z" stroke="#FEFEFE" stroke-width="0.32" stroke-miterlimit="22.9256"/>
<path d="M96.7531 198.552C96.5808 198.434 96.3456 198.478 96.2279 198.65C96.1101 198.822 96.1543 199.057 96.3266 199.175C96.499 199.293 96.7341 199.249 96.8519 199.077C96.9697 198.905 96.9255 198.67 96.7531 198.552Z" stroke="#FEFEFE" stroke-width="0.2" stroke-miterlimit="22.9256"/>
<path d="M94.6058 205.083C94.295 204.87 93.8709 204.949 93.6585 205.259C93.4461 205.57 93.5259 205.994 93.8367 206.206C94.1475 206.419 94.5716 206.34 94.784 206.03C94.9964 205.72 94.9166 205.296 94.6058 205.083Z" stroke="#FEFEFE" stroke-width="0.32" stroke-miterlimit="22.9256"/>
<path d="M88.9579 199.628C88.836 199.544 88.6698 199.575 88.5865 199.697C88.5033 199.819 88.5346 199.985 88.6564 200.068C88.7782 200.152 88.9444 200.121 89.0277 199.999C89.1109 199.878 89.0797 199.711 88.9579 199.628Z" stroke="#FEFEFE" stroke-width="0.2" stroke-miterlimit="22.9256"/>
<path d="M99.4637 200.033C99.3419 199.95 99.1757 199.981 99.0924 200.103C99.0092 200.224 99.0404 200.39 99.1622 200.474C99.2841 200.557 99.4503 200.526 99.5336 200.405C99.6168 200.283 99.5855 200.117 99.4637 200.033Z" stroke="#FEFEFE" stroke-width="0.2" stroke-miterlimit="22.9256"/>
<path d="M94.0404 200.86C93.7296 200.647 93.3055 200.726 93.0931 201.036C92.8807 201.346 92.9604 201.77 93.2712 201.983C93.582 202.196 94.0062 202.117 94.2186 201.807C94.431 201.497 94.3512 201.073 94.0404 200.86Z" stroke="#FEFEFE" stroke-width="0.32" stroke-miterlimit="22.9256"/>
<path d="M104.786 194.583C104.493 194.382 104.094 194.456 103.893 194.749C103.693 195.041 103.768 195.441 104.061 195.642C104.354 195.842 104.754 195.768 104.954 195.475C105.155 195.183 105.079 194.783 104.786 194.583Z" stroke="#FEFEFE" stroke-width="0.32" stroke-miterlimit="22.9256"/>
<path d="M98.5355 195.104C98.288 194.935 97.9501 194.998 97.7809 195.245C97.6117 195.492 97.6753 195.83 97.9228 195.999C98.1704 196.169 98.5083 196.106 98.6774 195.859C98.8466 195.612 98.7831 195.274 98.5355 195.104Z" stroke="#FEFEFE" stroke-width="0.2" stroke-miterlimit="22.9256"/>
<path d="M100.877 207.263C100.645 207.104 100.328 207.163 100.17 207.395C100.012 207.626 100.071 207.942 100.303 208.101C100.535 208.26 100.851 208.201 101.009 207.969C101.168 207.738 101.108 207.422 100.877 207.263Z" stroke="#FEFEFE" stroke-width="0.32" stroke-miterlimit="22.9256"/>
<path d="M70.8029 187.992C69.147 186.858 66.8873 187.278 65.7556 188.931C64.624 190.584 65.049 192.843 66.7049 193.977C68.3608 195.11 70.6205 194.69 71.7522 193.037C72.8838 191.384 72.4588 189.125 70.8029 187.992Z" stroke="#FEFEFE" stroke-width="1.33347" stroke-miterlimit="22.9256"/>
<path d="M127.964 138.423C123.001 135.024 116.229 136.285 112.837 141.238C109.445 146.191 110.719 152.961 115.682 156.36C120.645 159.758 127.417 158.497 130.809 153.544C134.201 148.591 132.927 141.821 127.964 138.423Z" stroke="#FEFEFE" stroke-width="2.66678" stroke-miterlimit="22.9256"/>
<path d="M111.385 84.4566C109.735 83.3263 107.482 83.7456 106.354 85.393C105.226 87.0405 105.65 89.2922 107.3 90.4225C108.951 91.5527 111.204 91.1335 112.332 89.486C113.46 87.8386 113.036 85.5868 111.385 84.4566Z" stroke="#FEFEFE" stroke-width="1.00002" stroke-miterlimit="22.9256"/>
<path d="M127.367 171.806C128.153 173.265 127.608 175.081 126.15 175.864C124.692 176.647 122.873 176.099 122.087 174.64C121.301 173.182 121.846 171.365 123.304 170.583C124.762 169.8 126.581 170.348 127.367 171.806Z" stroke="#FEFEFE" stroke-width="0.738242" stroke-miterlimit="22.9256"/>
<path d="M128.5 171.977C129.138 173.162 130.616 173.607 131.801 172.971C132.985 172.335 133.428 170.859 132.79 169.674C132.151 168.489 130.673 168.044 129.489 168.68C128.304 169.316 127.861 170.792 128.5 171.977Z" stroke="#FEFEFE" stroke-width="0.599799" stroke-miterlimit="22.9256"/>
<path d="M126.174 169.677C125.829 169.038 126.068 168.242 126.707 167.899C127.346 167.557 128.143 167.797 128.487 168.436C128.831 169.075 128.593 169.87 127.954 170.213C127.315 170.556 126.518 170.316 126.174 169.677Z" stroke="#FEFEFE" stroke-width="0.32344" stroke-miterlimit="22.9256"/>
<path d="M130.459 164.903C131.004 165.915 130.626 167.176 129.614 167.72C128.602 168.263 127.34 167.882 126.794 166.87C126.249 165.858 126.627 164.597 127.639 164.054C128.651 163.511 129.913 163.891 130.459 164.903Z" stroke="#FEFEFE" stroke-width="0.512389" stroke-miterlimit="22.9256"/>
<path d="M124.452 169.73C124.233 169.324 124.385 168.818 124.791 168.6C125.197 168.382 125.704 168.535 125.923 168.941C126.142 169.347 125.99 169.853 125.584 170.071C125.178 170.289 124.671 170.137 124.452 169.73Z" stroke="#FEFEFE" stroke-width="0.205637" stroke-miterlimit="22.9256"/>
<path d="M125.569 167.659C125.377 167.303 125.51 166.86 125.866 166.669C126.221 166.479 126.665 166.612 126.856 166.968C127.048 167.323 126.915 167.766 126.56 167.957C126.204 168.148 125.761 168.014 125.569 167.659Z" stroke="#FEFEFE" stroke-width="0.179977" stroke-miterlimit="22.9256"/>
<path d="M125.741 167.918C125.64 167.729 125.405 167.659 125.217 167.76C125.028 167.861 124.958 168.095 125.059 168.284C125.161 168.472 125.396 168.543 125.584 168.442C125.773 168.341 125.843 168.106 125.741 167.918Z" stroke="#FEFEFE" stroke-width="0.0953648" stroke-miterlimit="22.9256"/>
<path d="M122.471 175.395C122.948 176.281 122.617 177.385 121.731 177.861C120.844 178.337 119.739 178.004 119.261 177.117C118.784 176.231 119.115 175.127 120.001 174.651C120.887 174.175 121.993 174.508 122.471 175.395Z" stroke="#FEFEFE" stroke-width="0.448721" stroke-miterlimit="22.9256"/>
<path d="M131.172 161.851C131.553 162.559 131.289 163.441 130.581 163.82C129.873 164.2 128.991 163.934 128.609 163.227C128.228 162.519 128.493 161.637 129.2 161.257C129.908 160.878 130.79 161.144 131.172 161.851Z" stroke="#FEFEFE" stroke-width="0.358258" stroke-miterlimit="22.9256"/>
<path d="M130.425 164.76C130.233 164.404 130.366 163.961 130.721 163.771C131.077 163.58 131.52 163.713 131.712 164.069C131.903 164.424 131.77 164.867 131.415 165.058C131.06 165.249 130.616 165.115 130.425 164.76Z" stroke="#FEFEFE" stroke-width="0.179977" stroke-miterlimit="22.9256"/>
<path d="M131.439 165.344C131.337 165.156 131.102 165.085 130.914 165.186C130.726 165.287 130.655 165.522 130.757 165.71C130.858 165.899 131.093 165.97 131.281 165.868C131.47 165.767 131.54 165.533 131.439 165.344Z" stroke="#FEFEFE" stroke-width="0.0953648" stroke-miterlimit="22.9256"/>
<path d="M131.386 163.591C131.167 163.184 131.319 162.678 131.725 162.46C132.131 162.242 132.638 162.395 132.857 162.801C133.075 163.208 132.924 163.714 132.518 163.932C132.111 164.15 131.605 163.997 131.386 163.591Z" stroke="#FEFEFE" stroke-width="0.205637" stroke-miterlimit="22.9256"/>
<path d="M132.775 159.412C133.161 160.128 132.893 161.021 132.177 161.405C131.461 161.79 130.567 161.52 130.181 160.804C129.795 160.088 130.063 159.195 130.779 158.811C131.496 158.426 132.389 158.695 132.775 159.412Z" stroke="#FEFEFE" stroke-width="0.362651" stroke-miterlimit="22.9256"/>
<path d="M132.146 157.916C132.017 157.678 131.72 157.588 131.482 157.716C131.244 157.844 131.155 158.141 131.283 158.379C131.412 158.617 131.709 158.707 131.947 158.579C132.185 158.451 132.274 158.154 132.146 157.916Z" stroke="#FEFEFE" stroke-width="0.120601" stroke-miterlimit="22.9256"/>
<path d="M132.101 161.835C131.995 161.638 131.749 161.564 131.552 161.67C131.355 161.776 131.282 162.021 131.388 162.218C131.494 162.416 131.74 162.49 131.937 162.384C132.134 162.278 132.208 162.033 132.101 161.835Z" stroke="#FEFEFE" stroke-width="0.0997913" stroke-miterlimit="22.9256"/>
<path d="M121.656 173.57C121.504 173.287 121.15 173.18 120.867 173.332C120.584 173.484 120.478 173.837 120.631 174.12C120.784 174.403 121.137 174.51 121.42 174.358C121.703 174.206 121.809 173.853 121.656 173.57Z" stroke="#FEFEFE" stroke-width="0.143361" stroke-miterlimit="22.9256"/>
<path d="M129.406 168.22C129.289 168.003 129.018 167.921 128.8 168.038C128.583 168.154 128.502 168.425 128.619 168.643C128.736 168.86 129.007 168.942 129.225 168.825C129.442 168.708 129.523 168.438 129.406 168.22Z" stroke="#FEFEFE" stroke-width="0.110052" stroke-miterlimit="22.9256"/>
<path d="M131.376 167.348C131.195 167.013 130.777 166.887 130.442 167.067C130.107 167.246 129.982 167.664 130.162 167.999C130.343 168.334 130.761 168.46 131.096 168.28C131.431 168.1 131.556 167.683 131.376 167.348Z" stroke="#FEFEFE" stroke-width="0.169665" stroke-miterlimit="22.9256"/>
<path d="M129.46 168.269C129.363 168.089 129.43 167.864 129.61 167.768C129.791 167.671 130.015 167.739 130.112 167.919C130.209 168.099 130.142 168.323 129.962 168.42C129.782 168.517 129.557 168.449 129.46 168.269Z" stroke="#FEFEFE" stroke-width="0.0911926" stroke-miterlimit="22.9256"/>
<path d="M134.666 165.784C135.144 166.67 134.812 167.775 133.926 168.25C133.04 168.726 131.934 168.393 131.457 167.506C130.979 166.62 131.31 165.516 132.196 165.04C133.083 164.564 134.188 164.897 134.666 165.784Z" stroke="#FEFEFE" stroke-width="0.448721" stroke-miterlimit="22.9256"/>
<path d="M137.038 172.203C136.963 172.064 136.79 172.012 136.65 172.087C136.511 172.161 136.459 172.335 136.534 172.474C136.609 172.614 136.783 172.666 136.922 172.591C137.061 172.516 137.114 172.343 137.038 172.203Z" stroke="#FEFEFE" stroke-width="0.0705357" stroke-miterlimit="22.9256"/>
<path d="M133.499 164.017C133.424 163.877 133.251 163.825 133.111 163.9C132.972 163.975 132.92 164.148 132.995 164.287C133.07 164.427 133.244 164.479 133.383 164.404C133.522 164.33 133.574 164.156 133.499 164.017Z" stroke="#FEFEFE" stroke-width="0.0705357" stroke-miterlimit="22.9256"/>
<path d="M133.504 161.897C133.403 161.708 133.168 161.637 132.979 161.738C132.791 161.84 132.721 162.074 132.822 162.263C132.924 162.451 133.159 162.522 133.347 162.421C133.535 162.32 133.606 162.085 133.504 161.897Z" stroke="#FEFEFE" stroke-width="0.0953648" stroke-miterlimit="22.9256"/>
<path d="M122.775 177.375C122.556 176.969 122.707 176.463 123.114 176.245C123.52 176.027 124.026 176.179 124.245 176.585C124.464 176.992 124.312 177.498 123.906 177.716C123.5 177.934 122.993 177.781 122.775 177.375Z" stroke="#FEFEFE" stroke-width="0.205637" stroke-miterlimit="22.9256"/>
<path d="M120.784 178.848C120.683 178.66 120.448 178.589 120.26 178.69C120.071 178.791 120.001 179.026 120.102 179.215C120.204 179.403 120.439 179.474 120.627 179.373C120.816 179.272 120.886 179.037 120.784 178.848Z" stroke="#FEFEFE" stroke-width="0.0953648" stroke-miterlimit="22.9256"/>
<path d="M129.011 172.789C128.83 172.454 128.412 172.328 128.077 172.508C127.742 172.688 127.616 173.106 127.797 173.441C127.978 173.776 128.396 173.902 128.731 173.722C129.066 173.542 129.191 173.125 129.011 172.789Z" stroke="#FEFEFE" stroke-width="0.169665" stroke-miterlimit="22.9256"/>
<path d="M131.29 174.157C131.173 173.939 130.902 173.857 130.684 173.974C130.467 174.091 130.386 174.362 130.503 174.579C130.62 174.796 130.891 174.878 131.108 174.761C131.326 174.645 131.407 174.374 131.29 174.157Z" stroke="#FEFEFE" stroke-width="0.110052" stroke-miterlimit="22.9256"/>
<path d="M137.744 166.263C137.668 166.123 137.495 166.071 137.355 166.146C137.216 166.22 137.164 166.394 137.239 166.533C137.314 166.673 137.488 166.725 137.627 166.65C137.767 166.575 137.819 166.402 137.744 166.263Z" stroke="#FEFEFE" stroke-width="0.0705357" stroke-miterlimit="22.9256"/>
<path d="M133.363 175.764C133.288 175.625 133.114 175.572 132.975 175.647C132.835 175.722 132.783 175.895 132.858 176.035C132.933 176.174 133.107 176.226 133.246 176.152C133.386 176.077 133.438 175.903 133.363 175.764Z" stroke="#FEFEFE" stroke-width="0.0705357" stroke-miterlimit="22.9256"/>
<path d="M132.708 169.525C132.516 169.169 132.649 168.726 133.004 168.536C133.36 168.345 133.803 168.478 133.995 168.834C134.187 169.19 134.054 169.632 133.698 169.823C133.343 170.014 132.899 169.88 132.708 169.525Z" stroke="#FEFEFE" stroke-width="0.179977" stroke-miterlimit="22.9256"/>
<path d="M137.059 162.535C136.952 162.338 136.706 162.264 136.509 162.37C136.312 162.475 136.239 162.721 136.345 162.918C136.451 163.115 136.697 163.189 136.894 163.084C137.091 162.978 137.165 162.732 137.059 162.535Z" stroke="#FEFEFE" stroke-width="0.0997913" stroke-miterlimit="22.9256"/>
<path d="M116.245 179.283C116.053 178.927 116.186 178.485 116.542 178.294C116.897 178.103 117.34 178.237 117.532 178.592C117.724 178.948 117.591 179.391 117.235 179.581C116.88 179.772 116.436 179.639 116.245 179.283Z" stroke="#FEFEFE" stroke-width="0.179977" stroke-miterlimit="22.9256"/>
<path d="M148.322 158.49C148.247 158.35 148.073 158.298 147.933 158.373C147.794 158.447 147.742 158.621 147.817 158.76C147.892 158.9 148.066 158.952 148.205 158.877C148.345 158.803 148.397 158.629 148.322 158.49Z" stroke="#FEFEFE" stroke-width="0.0705357" stroke-miterlimit="22.9256"/>
<path d="M127.772 178.495C127.697 178.356 127.523 178.304 127.384 178.379C127.244 178.453 127.192 178.627 127.267 178.766C127.342 178.906 127.516 178.958 127.656 178.883C127.795 178.808 127.847 178.635 127.772 178.495Z" stroke="#FEFEFE" stroke-width="0.0705357" stroke-miterlimit="22.9256"/>
<path d="M139.982 162.508C139.791 162.153 139.923 161.71 140.279 161.519C140.634 161.328 141.078 161.462 141.269 161.817C141.461 162.173 141.328 162.616 140.973 162.806C140.617 162.997 140.174 162.864 139.982 162.508Z" stroke="#FEFEFE" stroke-width="0.179977" stroke-miterlimit="22.9256"/>
<path d="M142.428 170.344C142.248 170.009 141.83 169.883 141.495 170.063C141.16 170.243 141.034 170.66 141.215 170.996C141.396 171.331 141.814 171.457 142.149 171.277C142.484 171.097 142.609 170.68 142.428 170.344Z" stroke="#FEFEFE" stroke-width="0.169665" stroke-miterlimit="22.9256"/>
<path d="M137.179 176.753C137.026 176.47 136.673 176.364 136.39 176.516C136.107 176.668 136.001 177.02 136.153 177.304C136.306 177.587 136.659 177.693 136.942 177.541C137.225 177.389 137.331 177.036 137.179 176.753Z" stroke="#FEFEFE" stroke-width="0.143361" stroke-miterlimit="22.9256"/>
<path d="M119.266 177.224C118.993 176.716 118.36 176.526 117.852 176.798C117.345 177.07 117.155 177.703 117.429 178.21C117.702 178.718 118.335 178.908 118.843 178.636C119.35 178.364 119.54 177.731 119.266 177.224Z" stroke="#FEFEFE" stroke-width="0.256932" stroke-miterlimit="22.9256"/>
<path d="M128.191 171.308C128.074 171.09 127.803 171.009 127.586 171.125C127.368 171.242 127.287 171.513 127.404 171.73C127.521 171.948 127.792 172.029 128.01 171.913C128.227 171.796 128.308 171.525 128.191 171.308Z" stroke="#FEFEFE" stroke-width="0.110052" stroke-miterlimit="22.9256"/>
<path d="M136.297 158.177C136.774 159.063 136.443 160.167 135.557 160.643C134.671 161.119 133.565 160.786 133.087 159.899C132.61 159.013 132.941 157.909 133.827 157.433C134.714 156.957 135.819 157.29 136.297 158.177Z" stroke="#FEFEFE" stroke-width="0.448721" stroke-miterlimit="22.9256"/>
<path d="M151.553 120.33C150.358 121.502 150.343 123.421 151.518 124.617C152.693 125.812 154.614 125.831 155.808 124.659C157.003 123.487 157.018 121.567 155.843 120.372C154.668 119.176 152.747 119.157 151.553 120.33Z" stroke="#FEFEFE" stroke-width="0.746816" stroke-miterlimit="22.9256"/>
<path d="M151.325 120.55C150.354 121.503 148.794 121.487 147.839 120.516C146.884 119.545 146.897 117.985 147.867 117.033C148.837 116.08 150.398 116.096 151.353 117.067C152.308 118.039 152.295 119.598 151.325 120.55Z" stroke="#FEFEFE" stroke-width="0.606766" stroke-miterlimit="22.9256"/>
<path d="M154.257 119.03C154.78 118.517 154.787 117.676 154.272 117.152C153.758 116.628 152.916 116.62 152.393 117.133C151.869 117.647 151.863 118.488 152.378 119.012C152.892 119.535 153.734 119.544 154.257 119.03Z" stroke="#FEFEFE" stroke-width="0.327196" stroke-miterlimit="22.9256"/>
<path d="M151.541 113.126C150.713 113.939 150.702 115.272 151.517 116.101C152.333 116.931 153.666 116.944 154.495 116.131C155.324 115.317 155.335 113.985 154.519 113.155C153.704 112.325 152.37 112.312 151.541 113.126Z" stroke="#FEFEFE" stroke-width="0.51834" stroke-miterlimit="22.9256"/>
<path d="M156.005 119.633C156.338 119.306 156.343 118.769 156.014 118.435C155.686 118.101 155.149 118.096 154.815 118.423C154.482 118.751 154.477 119.287 154.806 119.622C155.134 119.956 155.671 119.961 156.005 119.633Z" stroke="#FEFEFE" stroke-width="0.208721" stroke-miterlimit="22.9256"/>
<path d="M155.57 117.177C155.866 116.886 155.87 116.41 155.578 116.113C155.287 115.817 154.81 115.812 154.514 116.103C154.218 116.393 154.214 116.87 154.505 117.166C154.797 117.463 155.273 117.467 155.57 117.177Z" stroke="#FEFEFE" stroke-width="0.185245" stroke-miterlimit="22.9256"/>
<path d="M155.37 117.417C155.524 117.266 155.773 117.268 155.924 117.422C156.076 117.577 156.074 117.825 155.92 117.976C155.766 118.128 155.518 118.125 155.366 117.971C155.214 117.816 155.216 117.568 155.37 117.417Z" stroke="#FEFEFE" stroke-width="0.0964724" stroke-miterlimit="22.9256"/>
<path d="M154.118 125.732C153.392 126.445 153.383 127.612 154.097 128.338C154.812 129.065 155.979 129.077 156.705 128.364C157.431 127.652 157.44 126.485 156.726 125.758C156.012 125.031 154.844 125.02 154.118 125.732Z" stroke="#FEFEFE" stroke-width="0.453933" stroke-miterlimit="22.9256"/>
<path d="M151.763 109.962C151.184 110.531 151.176 111.462 151.747 112.043C152.317 112.623 153.249 112.632 153.829 112.063C154.408 111.494 154.416 110.563 153.845 109.983C153.275 109.402 152.343 109.393 151.763 109.962Z" stroke="#FEFEFE" stroke-width="0.362419" stroke-miterlimit="22.9256"/>
<path d="M151.618 112.998C151.91 112.712 151.913 112.244 151.627 111.953C151.34 111.661 150.872 111.657 150.581 111.943C150.29 112.228 150.286 112.696 150.572 112.988C150.859 113.279 151.327 113.284 151.618 112.998Z" stroke="#FEFEFE" stroke-width="0.182068" stroke-miterlimit="22.9256"/>
<path d="M150.463 113.257C150.617 113.105 150.865 113.108 151.017 113.262C151.169 113.417 151.167 113.665 151.013 113.816C150.858 113.968 150.61 113.965 150.459 113.811C150.307 113.656 150.309 113.408 150.463 113.257Z" stroke="#FEFEFE" stroke-width="0.0964724" stroke-miterlimit="22.9256"/>
<path d="M151.038 111.578C151.37 111.252 151.375 110.717 151.047 110.384C150.72 110.051 150.185 110.046 149.852 110.372C149.52 110.699 149.515 111.234 149.843 111.567C150.17 111.9 150.705 111.905 151.038 111.578Z" stroke="#FEFEFE" stroke-width="0.208026" stroke-miterlimit="22.9256"/>
<path d="M150.943 107.122C150.356 107.698 150.349 108.641 150.926 109.228C151.503 109.816 152.447 109.825 153.033 109.249C153.62 108.673 153.628 107.73 153.05 107.143C152.473 106.556 151.53 106.547 150.943 107.122Z" stroke="#FEFEFE" stroke-width="0.366863" stroke-miterlimit="22.9256"/>
<path d="M151.997 105.867C152.192 105.676 152.506 105.679 152.698 105.874C152.89 106.069 152.887 106.383 152.692 106.574C152.497 106.766 152.183 106.763 151.991 106.568C151.799 106.372 151.802 106.059 151.997 105.867Z" stroke="#FEFEFE" stroke-width="0.122002" stroke-miterlimit="22.9256"/>
<path d="M150.869 109.667C151.031 109.509 151.29 109.511 151.449 109.673C151.608 109.834 151.606 110.094 151.445 110.252C151.283 110.411 151.024 110.408 150.865 110.247C150.706 110.085 150.708 109.826 150.869 109.667Z" stroke="#FEFEFE" stroke-width="0.10095" stroke-miterlimit="22.9256"/>
<path d="M156.307 128.709C156.522 128.497 156.869 128.501 157.081 128.716C157.293 128.932 157.29 129.278 157.075 129.49C156.859 129.701 156.513 129.698 156.301 129.482C156.089 129.267 156.091 128.92 156.307 128.709Z" stroke="#FEFEFE" stroke-width="0.134735" stroke-miterlimit="22.9256"/>
<path d="M151.571 116.649C151.749 116.474 152.035 116.477 152.21 116.655C152.386 116.833 152.383 117.119 152.205 117.294C152.027 117.469 151.741 117.466 151.566 117.288C151.39 117.109 151.393 116.823 151.571 116.649Z" stroke="#FEFEFE" stroke-width="0.11133" stroke-miterlimit="22.9256"/>
<path d="M149.927 115.212C150.202 114.942 150.643 114.946 150.913 115.221C151.183 115.496 151.18 115.937 150.905 116.207C150.631 116.476 150.189 116.472 149.919 116.197C149.649 115.922 149.653 115.481 149.927 115.212Z" stroke="#FEFEFE" stroke-width="0.171636" stroke-miterlimit="22.9256"/>
<path d="M151.503 116.678C151.65 116.534 151.652 116.296 151.507 116.149C151.362 116.001 151.125 115.999 150.977 116.144C150.83 116.288 150.828 116.525 150.973 116.673C151.118 116.821 151.355 116.823 151.503 116.678Z" stroke="#FEFEFE" stroke-width="0.0922519" stroke-miterlimit="22.9256"/>
<path d="M147.215 112.709C146.489 113.421 146.48 114.588 147.194 115.314C147.908 116.041 149.076 116.053 149.802 115.34C150.528 114.628 150.537 113.461 149.823 112.734C149.109 112.008 147.941 111.996 147.215 112.709Z" stroke="#FEFEFE" stroke-width="0.453933" stroke-miterlimit="22.9256"/>
<path d="M145.968 118.134C146.082 118.022 146.266 118.024 146.378 118.138C146.49 118.252 146.489 118.435 146.375 118.547C146.26 118.659 146.077 118.658 145.965 118.543C145.852 118.429 145.854 118.246 145.968 118.134Z" stroke="#FEFEFE" stroke-width="0.0713549" stroke-miterlimit="22.9256"/>
<path d="M148.868 111.352C148.982 111.24 149.166 111.242 149.278 111.356C149.391 111.471 149.389 111.654 149.275 111.766C149.161 111.878 148.977 111.876 148.865 111.762C148.753 111.648 148.754 111.464 148.868 111.352Z" stroke="#FEFEFE" stroke-width="0.0713549" stroke-miterlimit="22.9256"/>
<path d="M149.497 109.304C149.651 109.152 149.9 109.155 150.051 109.309C150.203 109.463 150.201 109.711 150.047 109.863C149.893 110.014 149.645 110.012 149.493 109.857C149.341 109.703 149.343 109.455 149.497 109.304Z" stroke="#FEFEFE" stroke-width="0.0964724" stroke-miterlimit="22.9256"/>
<path d="M153.389 126.89C153.722 126.564 153.726 126.029 153.399 125.696C153.072 125.363 152.537 125.358 152.204 125.684C151.871 126.011 151.867 126.545 152.194 126.878C152.522 127.211 153.057 127.217 153.389 126.89Z" stroke="#FEFEFE" stroke-width="0.208026" stroke-miterlimit="22.9256"/>
<path d="M152.905 127.187C153.06 127.035 153.308 127.038 153.46 127.192C153.611 127.347 153.609 127.595 153.455 127.746C153.301 127.898 153.053 127.895 152.901 127.741C152.749 127.586 152.751 127.338 152.905 127.187Z" stroke="#FEFEFE" stroke-width="0.0964724" stroke-miterlimit="22.9256"/>
<path d="M149.502 121.445C149.777 121.176 150.218 121.18 150.488 121.455C150.758 121.73 150.755 122.171 150.48 122.44C150.206 122.71 149.764 122.705 149.494 122.43C149.224 122.156 149.228 121.715 149.502 121.445Z" stroke="#FEFEFE" stroke-width="0.171636" stroke-miterlimit="22.9256"/>
<path d="M147.978 121.816C148.156 121.641 148.442 121.644 148.618 121.822C148.793 122 148.79 122.286 148.612 122.461C148.434 122.636 148.148 122.633 147.973 122.455C147.798 122.276 147.8 121.99 147.978 121.816Z" stroke="#FEFEFE" stroke-width="0.11133" stroke-miterlimit="22.9256"/>
<path d="M151.076 127.904C151.19 127.792 151.374 127.794 151.486 127.908C151.599 128.022 151.597 128.206 151.483 128.318C151.369 128.43 151.185 128.428 151.073 128.314C150.961 128.199 150.962 128.016 151.076 127.904Z" stroke="#FEFEFE" stroke-width="0.0713549" stroke-miterlimit="22.9256"/>
<path d="M143.917 120.562C144.031 120.45 144.215 120.452 144.327 120.567C144.439 120.681 144.438 120.864 144.324 120.976C144.21 121.088 144.026 121.086 143.914 120.972C143.802 120.858 143.803 120.674 143.917 120.562Z" stroke="#FEFEFE" stroke-width="0.0713549" stroke-miterlimit="22.9256"/>
<path d="M147.991 116.914C148.283 116.628 148.286 116.16 148 115.868C147.713 115.577 147.245 115.572 146.954 115.858C146.663 116.144 146.659 116.612 146.946 116.903C147.232 117.195 147.7 117.199 147.991 116.914Z" stroke="#FEFEFE" stroke-width="0.182068" stroke-miterlimit="22.9256"/>
<path d="M145.918 127.025C146.08 126.866 146.339 126.869 146.498 127.031C146.657 127.192 146.655 127.452 146.493 127.61C146.332 127.769 146.072 127.766 145.914 127.604C145.755 127.443 145.757 127.183 145.918 127.025Z" stroke="#FEFEFE" stroke-width="0.10095" stroke-miterlimit="22.9256"/>
<path d="M138.043 122.495C138.334 122.209 138.338 121.741 138.052 121.449C137.765 121.158 137.297 121.153 137.006 121.439C136.715 121.725 136.711 122.193 136.997 122.484C137.284 122.776 137.752 122.78 138.043 122.495Z" stroke="#FEFEFE" stroke-width="0.182068" stroke-miterlimit="22.9256"/>
<path d="M141.362 129.84C141.477 129.728 141.66 129.73 141.772 129.844C141.885 129.959 141.883 130.142 141.769 130.254C141.655 130.366 141.471 130.364 141.359 130.25C141.247 130.136 141.248 129.952 141.362 129.84Z" stroke="#FEFEFE" stroke-width="0.0713549" stroke-miterlimit="22.9256"/>
<path d="M148.058 124.453C148.172 124.341 148.355 124.343 148.468 124.457C148.58 124.572 148.579 124.755 148.464 124.867C148.35 124.979 148.167 124.977 148.055 124.863C147.942 124.749 147.944 124.565 148.058 124.453Z" stroke="#FEFEFE" stroke-width="0.0713549" stroke-miterlimit="22.9256"/>
<path d="M148.853 131.454C149.144 131.168 149.148 130.7 148.861 130.409C148.575 130.117 148.106 130.113 147.815 130.399C147.524 130.684 147.52 131.152 147.807 131.444C148.093 131.735 148.562 131.74 148.853 131.454Z" stroke="#FEFEFE" stroke-width="0.182068" stroke-miterlimit="22.9256"/>
<path d="M143.175 115.499C143.45 115.229 143.891 115.234 144.161 115.508C144.431 115.783 144.428 116.224 144.153 116.494C143.879 116.763 143.437 116.759 143.167 116.484C142.897 116.209 142.901 115.768 143.175 115.499Z" stroke="#FEFEFE" stroke-width="0.171636" stroke-miterlimit="22.9256"/>
<path d="M142.615 124.4C142.847 124.173 143.22 124.176 143.448 124.408C143.676 124.641 143.673 125.013 143.441 125.241C143.209 125.469 142.836 125.465 142.608 125.233C142.38 125.001 142.383 124.628 142.615 124.4Z" stroke="#FEFEFE" stroke-width="0.145026" stroke-miterlimit="22.9256"/>
<path d="M156.108 124.399C156.356 124.156 156.755 124.16 156.999 124.408C157.244 124.657 157.24 125.055 156.992 125.299C156.744 125.543 156.345 125.539 156.101 125.29C155.857 125.042 155.86 124.643 156.108 124.399Z" stroke="#FEFEFE" stroke-width="0.155173" stroke-miterlimit="22.9256"/>
<path d="M125.707 91.1817C126.877 91.0153 127.962 91.8287 128.131 92.9985C128.299 94.1682 127.487 95.2513 126.317 95.4177C125.147 95.5841 124.062 94.7707 123.893 93.601C123.724 92.4313 124.536 91.3481 125.707 91.1817Z" stroke="#FEFEFE" stroke-width="0.526996" stroke-miterlimit="22.9256"/>
<path d="M126.098 90.4649C127.048 90.3297 127.708 89.4497 127.571 88.4993C127.434 87.549 126.552 86.8881 125.601 87.0233C124.651 87.1585 123.991 88.0385 124.128 88.9889C124.265 89.9393 125.147 90.6001 126.098 90.4649Z" stroke="#FEFEFE" stroke-width="0.428168" stroke-miterlimit="22.9256"/>
<path d="M123.987 91.4549C123.474 91.5278 122.998 91.1715 122.925 90.659C122.851 90.1465 123.206 89.6719 123.719 89.599C124.232 89.5261 124.707 89.8825 124.781 90.395C124.855 90.9075 124.499 91.382 123.987 91.4549Z" stroke="#FEFEFE" stroke-width="0.230888" stroke-miterlimit="22.9256"/>
<path d="M121.832 87.4065C122.644 87.291 123.398 87.8556 123.515 88.6674C123.632 89.4793 123.068 90.2311 122.256 90.3466C121.444 90.462 120.69 89.8975 120.573 89.0856C120.456 88.2738 121.02 87.522 121.832 87.4065Z" stroke="#FEFEFE" stroke-width="0.36577" stroke-miterlimit="22.9256"/>
<path d="M123.602 92.6213C123.276 92.6676 122.974 92.4411 122.927 92.1152C122.88 91.7894 123.106 91.4877 123.432 91.4413C123.758 91.395 124.061 91.6216 124.108 91.9474C124.154 92.2732 123.928 92.5749 123.602 92.6213Z" stroke="#FEFEFE" stroke-width="0.146795" stroke-miterlimit="22.9256"/>
<path d="M122.486 91.3623C122.2 91.4028 121.936 91.2045 121.895 90.9193C121.854 90.6342 122.052 90.3701 122.337 90.3295C122.622 90.289 122.887 90.4873 122.928 90.7725C122.969 91.0576 122.771 91.3217 122.486 91.3623Z" stroke="#FEFEFE" stroke-width="0.128477" stroke-miterlimit="22.9256"/>
<path d="M122.701 91.3113C122.55 91.3328 122.445 91.4727 122.467 91.6238C122.489 91.7749 122.629 91.88 122.78 91.8585C122.931 91.837 123.036 91.6971 123.014 91.546C122.992 91.3949 122.852 91.2898 122.701 91.3113Z" stroke="#FEFEFE" stroke-width="0.0680764" stroke-miterlimit="22.9256"/>
<path d="M126.917 95.3466C127.628 95.2455 128.288 95.7399 128.39 96.4509C128.493 97.1619 127.999 97.8202 127.288 97.9214C126.577 98.0225 125.917 97.5281 125.814 96.8171C125.712 96.1061 126.205 95.4478 126.917 95.3466Z" stroke="#FEFEFE" stroke-width="0.320321" stroke-miterlimit="22.9256"/>
<path d="M119.959 86.1758C120.526 86.0951 121.053 86.4898 121.135 87.0575C121.217 87.6251 120.823 88.1507 120.255 88.2315C119.687 88.3122 119.16 87.9175 119.078 87.3498C118.997 86.7822 119.391 86.2566 119.959 86.1758Z" stroke="#FEFEFE" stroke-width="0.255744" stroke-miterlimit="22.9256"/>
<path d="M121.727 87.395C121.442 87.4355 121.177 87.2372 121.136 86.9521C121.095 86.6669 121.293 86.4028 121.578 86.3623C121.863 86.3217 122.128 86.52 122.169 86.8052C122.21 87.0903 122.012 87.3544 121.727 87.395Z" stroke="#FEFEFE" stroke-width="0.128477" stroke-miterlimit="22.9256"/>
<path d="M122.367 86.8591C122.216 86.8806 122.111 87.0206 122.133 87.1717C122.155 87.3228 122.295 87.4278 122.446 87.4063C122.597 87.3849 122.702 87.2449 122.68 87.0938C122.659 86.9427 122.518 86.8377 122.367 86.8591Z" stroke="#FEFEFE" stroke-width="0.0680764" stroke-miterlimit="22.9256"/>
<path d="M121.178 86.4616C120.852 86.508 120.549 86.2814 120.502 85.9556C120.455 85.6297 120.681 85.328 121.007 85.2817C121.333 85.2353 121.636 85.4619 121.683 85.7877C121.73 86.1136 121.503 86.4153 121.178 86.4616Z" stroke="#FEFEFE" stroke-width="0.146795" stroke-miterlimit="22.9256"/>
<path d="M118.715 84.5004C119.289 84.4186 119.823 84.8182 119.905 85.3928C119.988 85.9674 119.589 86.4995 119.015 86.5813C118.44 86.663 117.906 86.2634 117.824 85.6888C117.741 85.1142 118.14 84.5821 118.715 84.5004Z" stroke="#FEFEFE" stroke-width="0.258879" stroke-miterlimit="22.9256"/>
<path d="M117.558 84.552C117.367 84.5792 117.234 84.7562 117.262 84.9473C117.289 85.1383 117.467 85.2712 117.658 85.244C117.849 85.2169 117.982 85.0399 117.954 84.8488C117.926 84.6577 117.749 84.5249 117.558 84.552Z" stroke="#FEFEFE" stroke-width="0.0860912" stroke-miterlimit="22.9256"/>
<path d="M120.176 85.5492C120.018 85.5717 119.908 85.7181 119.931 85.8762C119.954 86.0343 120.1 86.1443 120.258 86.1218C120.417 86.0993 120.526 85.9529 120.504 85.7948C120.481 85.6366 120.334 85.5267 120.176 85.5492Z" stroke="#FEFEFE" stroke-width="0.0712363" stroke-miterlimit="22.9256"/>
<path d="M125.494 95.442C125.267 95.4743 125.109 95.6846 125.142 95.9118C125.175 96.1389 125.386 96.2969 125.613 96.2646C125.84 96.2322 125.998 96.0219 125.965 95.7948C125.932 95.5676 125.722 95.4096 125.494 95.442Z" stroke="#FEFEFE" stroke-width="0.102339" stroke-miterlimit="22.9256"/>
<path d="M123.799 88.931C123.625 88.9558 123.504 89.1173 123.529 89.2917C123.554 89.466 123.716 89.5873 123.89 89.5625C124.065 89.5377 124.186 89.3762 124.161 89.2018C124.135 89.0275 123.974 88.9062 123.799 88.931Z" stroke="#FEFEFE" stroke-width="0.0785608" stroke-miterlimit="22.9256"/>
<path d="M123.696 87.396C123.427 87.4342 123.24 87.6832 123.279 87.952C123.318 88.2208 123.567 88.4078 123.836 88.3695C124.105 88.3313 124.292 88.0824 124.253 87.8135C124.214 87.5447 123.965 87.3578 123.696 87.396Z" stroke="#FEFEFE" stroke-width="0.121116" stroke-miterlimit="22.9256"/>
<path d="M123.845 88.9067C123.7 88.9272 123.566 88.8267 123.545 88.6822C123.525 88.5378 123.625 88.404 123.77 88.3834C123.914 88.3629 124.048 88.4633 124.069 88.6078C124.09 88.7523 123.989 88.8861 123.845 88.9067Z" stroke="#FEFEFE" stroke-width="0.0650981" stroke-miterlimit="22.9256"/>
<path d="M123.45 84.8059C124.161 84.7047 124.821 85.1991 124.924 85.9101C125.026 86.6211 124.532 87.2795 123.821 87.3806C123.11 87.4817 122.45 86.9873 122.348 86.2763C122.245 85.5653 122.739 84.907 123.45 84.8059Z" stroke="#FEFEFE" stroke-width="0.320321" stroke-miterlimit="22.9256"/>
<path d="M128.336 84.8011C128.224 84.817 128.146 84.9204 128.163 85.0322C128.179 85.144 128.282 85.2217 128.394 85.2058C128.506 85.1899 128.584 85.0864 128.568 84.9746C128.551 84.8629 128.448 84.7852 128.336 84.8011Z" stroke="#FEFEFE" stroke-width="0.050352" stroke-miterlimit="22.9256"/>
<path d="M121.979 85.1507C121.868 85.1666 121.79 85.2701 121.806 85.3818C121.822 85.4936 121.926 85.5713 122.038 85.5554C122.15 85.5395 122.227 85.436 122.211 85.3242C122.195 85.2125 122.091 85.1348 121.979 85.1507Z" stroke="#FEFEFE" stroke-width="0.050352" stroke-miterlimit="22.9256"/>
<path d="M120.56 84.625C120.408 84.6465 120.303 84.7864 120.325 84.9375C120.347 85.0886 120.487 85.1937 120.638 85.1722C120.79 85.1507 120.894 85.0108 120.873 84.8597C120.851 84.7086 120.711 84.6035 120.56 84.625Z" stroke="#FEFEFE" stroke-width="0.0680764" stroke-miterlimit="22.9256"/>
<path d="M128.319 95.632C127.993 95.6784 127.691 95.4518 127.644 95.126C127.597 94.8001 127.823 94.4984 128.149 94.4521C128.475 94.4057 128.777 94.6323 128.824 94.9581C128.871 95.284 128.645 95.5857 128.319 95.632Z" stroke="#FEFEFE" stroke-width="0.146795" stroke-miterlimit="22.9256"/>
<path d="M128.821 97.3286C128.67 97.3501 128.565 97.49 128.587 97.6411C128.609 97.7923 128.749 97.8973 128.9 97.8758C129.051 97.8543 129.156 97.7144 129.134 97.5633C129.113 97.4122 128.972 97.3071 128.821 97.3286Z" stroke="#FEFEFE" stroke-width="0.0680764" stroke-miterlimit="22.9256"/>
<path d="M126.767 90.3237C126.498 90.362 126.312 90.6109 126.35 90.8797C126.389 91.1486 126.639 91.3355 126.908 91.2973C127.177 91.259 127.363 91.0101 127.324 90.7413C127.286 90.4724 127.036 90.2855 126.767 90.3237Z" stroke="#FEFEFE" stroke-width="0.121116" stroke-miterlimit="22.9256"/>
<path d="M128.242 89.1339C128.067 89.1587 127.946 89.3202 127.971 89.4945C127.996 89.6689 128.158 89.7902 128.333 89.7654C128.507 89.7406 128.628 89.5791 128.603 89.4047C128.578 89.2303 128.416 89.1091 128.242 89.1339Z" stroke="#FEFEFE" stroke-width="0.0785608" stroke-miterlimit="22.9256"/>
<path d="M124.524 82.8631C124.413 82.879 124.335 82.9825 124.351 83.0942C124.367 83.206 124.471 83.2837 124.583 83.2678C124.695 83.2519 124.772 83.1484 124.756 83.0366C124.74 82.9249 124.636 82.8472 124.524 82.8631Z" stroke="#FEFEFE" stroke-width="0.050352" stroke-miterlimit="22.9256"/>
<path d="M129.826 88.1424C129.714 88.1583 129.637 88.2618 129.653 88.3735C129.669 88.4853 129.773 88.563 129.884 88.5471C129.996 88.5312 130.074 88.4277 130.058 88.3159C130.042 88.2042 129.938 88.1265 129.826 88.1424Z" stroke="#FEFEFE" stroke-width="0.050352" stroke-miterlimit="22.9256"/>
<path d="M125.481 87.0415C125.196 87.082 124.931 86.8837 124.89 86.5985C124.849 86.3134 125.047 86.0493 125.332 86.0087C125.617 85.9682 125.882 86.1665 125.923 86.4517C125.964 86.7368 125.766 87.0009 125.481 87.0415Z" stroke="#FEFEFE" stroke-width="0.128477" stroke-miterlimit="22.9256"/>
<path d="M121.857 82.402C121.698 82.4245 121.589 82.5709 121.611 82.729C121.634 82.8871 121.781 82.9971 121.939 82.9746C122.097 82.9521 122.207 82.8057 122.184 82.6475C122.162 82.4894 122.015 82.3795 121.857 82.402Z" stroke="#FEFEFE" stroke-width="0.0712363" stroke-miterlimit="22.9256"/>
<path d="M128.003 100.477C127.718 100.517 127.453 100.319 127.412 100.034C127.371 99.7484 127.569 99.4844 127.855 99.4438C128.14 99.4032 128.404 99.6015 128.446 99.8867C128.487 100.172 128.289 100.436 128.003 100.477Z" stroke="#FEFEFE" stroke-width="0.128477" stroke-miterlimit="22.9256"/>
<path d="M126.317 75.8833C126.206 75.8992 126.128 76.0027 126.144 76.1145C126.16 76.2262 126.264 76.304 126.376 76.2881C126.487 76.2722 126.565 76.1687 126.549 76.0569C126.533 75.9451 126.429 75.8674 126.317 75.8833Z" stroke="#FEFEFE" stroke-width="0.050352" stroke-miterlimit="22.9256"/>
<path d="M130.292 92.5616C130.18 92.5775 130.103 92.6809 130.119 92.7927C130.135 92.9045 130.238 92.9822 130.35 92.9663C130.462 92.9504 130.54 92.8469 130.524 92.7351C130.507 92.6234 130.404 92.5457 130.292 92.5616Z" stroke="#FEFEFE" stroke-width="0.050352" stroke-miterlimit="22.9256"/>
<path d="M122.552 80.4372C122.267 80.4778 122.002 80.2795 121.961 79.9943C121.92 79.7091 122.118 79.4451 122.403 79.4045C122.689 79.3639 122.953 79.5622 122.994 79.8474C123.035 80.1326 122.838 80.3966 122.552 80.4372Z" stroke="#FEFEFE" stroke-width="0.128477" stroke-miterlimit="22.9256"/>
<path d="M128.407 80.7327C128.138 80.7709 127.951 81.0198 127.99 81.2887C128.029 81.5575 128.278 81.7444 128.547 81.7062C128.816 81.668 129.003 81.419 128.964 81.1502C128.925 80.8814 128.676 80.6944 128.407 80.7327Z" stroke="#FEFEFE" stroke-width="0.121116" stroke-miterlimit="22.9256"/>
<path d="M131.422 85.8304C131.195 85.8627 131.037 86.073 131.07 86.3002C131.103 86.5273 131.313 86.6853 131.541 86.653C131.768 86.6207 131.926 86.4103 131.893 86.1832C131.86 85.956 131.649 85.7981 131.422 85.8304Z" stroke="#FEFEFE" stroke-width="0.102339" stroke-miterlimit="22.9256"/>
<path d="M127.361 97.9445C126.953 98.0024 126.671 98.3794 126.729 98.7865C126.788 99.1936 127.166 99.4767 127.573 99.4188C127.98 99.3609 128.263 98.9839 128.204 98.5768C128.146 98.1697 127.768 97.8866 127.361 97.9445Z" stroke="#FEFEFE" stroke-width="0.183412" stroke-miterlimit="22.9256"/>
<path d="M125.574 90.5065C125.399 90.5313 125.278 90.6927 125.303 90.8671C125.328 91.0415 125.49 91.1627 125.665 91.1379C125.839 91.1131 125.96 90.9517 125.935 90.7773C125.91 90.6029 125.748 90.4817 125.574 90.5065Z" stroke="#FEFEFE" stroke-width="0.0785608" stroke-miterlimit="22.9256"/>
<path d="M118.747 81.8366C119.458 81.7355 120.118 82.2299 120.22 82.9409C120.323 83.6519 119.829 84.3102 119.118 84.4114C118.407 84.5125 117.747 84.0181 117.645 83.3071C117.542 82.5961 118.036 81.9377 118.747 81.8366Z" stroke="#FEFEFE" stroke-width="0.320321" stroke-miterlimit="22.9256"/>
<path d="M126.018 141.265C122.628 138.944 118.002 139.805 115.685 143.188C113.368 146.572 114.239 151.196 117.628 153.517C121.018 155.839 125.645 154.978 127.961 151.594C130.278 148.211 129.408 143.586 126.018 141.265Z" stroke="#FEFEFE" stroke-width="2.66678" stroke-miterlimit="22.9256"/>
</g>
<defs>
<clipPath id="clip0_454_3465">
<rect width="200" height="215" fill="white" transform="translate(47.2803) rotate(12.7037)"/>
</clipPath>
</defs>
</svg>
