<svg viewBox="0 0 1457 1303" fill="none" xmlns="http://www.w3.org/2000/svg">
<path d="M850.862 1102.14C1007.25 1006.7 1006.95 721.436 850.184 464.994C693.419 208.553 439.558 78.0388 283.168 173.483C126.779 268.928 127.083 554.187 283.847 810.629C440.611 1067.07 694.472 1197.58 850.862 1102.14Z" fill="#B6E1F4"/>
<path d="M548.003 1109.34C395.891 1002.85 414.355 714.33 589.243 464.918C764.132 215.507 1029.22 99.6508 1181.33 206.146C1333.44 312.642 1314.98 601.162 1140.09 850.573C965.202 1099.98 700.116 1215.84 548.003 1109.34Z" fill="#B6E1F4"/>
<path d="M675.613 752.249C634.245 663.193 482.13 646.072 335.855 714.008C189.58 781.943 104.536 909.209 145.904 998.265C187.273 1087.32 339.388 1104.44 485.663 1036.51C631.938 968.57 716.982 841.304 675.613 752.249Z" fill="#B6E1F4"/>
<path d="M1268.09 728.694C1262.11 720.579 1246.46 721.947 1233.13 731.75C1219.81 741.553 1213.85 756.078 1219.82 764.193C1225.8 772.309 1241.45 770.94 1254.78 761.137C1268.11 751.334 1274.07 736.809 1268.09 728.694Z" fill="#93D4EB"/>
<path d="M96.6936 836.32C86.102 833.382 73.5946 845.09 68.7577 862.472C63.9208 879.853 68.5859 896.325 79.1776 899.263C89.7692 902.202 102.277 890.493 107.113 873.112C111.95 855.731 107.285 839.259 96.6936 836.32Z" fill="#B6E1F4"/>
<path d="M496.258 93.8872C498.802 81.8361 484.824 68.6939 465.038 64.5334C445.252 60.3728 427.15 66.7693 424.606 78.8204C422.062 90.8715 436.04 104.014 455.826 108.174C475.613 112.335 493.715 105.938 496.258 93.8872Z" fill="#B6E1F4"/>
</svg>
