<svg width="100%" height="100%" viewBox="0 0 210 210" fill="none" xmlns="http://www.w3.org/2000/svg">
<path d="M108.214 165.807C143.724 165.807 172.51 137.044 172.51 101.564C172.51 66.0832 143.724 37.3206 108.214 37.3206C72.7044 37.3206 43.918 66.0832 43.918 101.564C43.918 137.044 72.7044 165.807 108.214 165.807Z" fill="#FDC91F"/>
<path fill-rule="evenodd" clip-rule="evenodd" d="M104.974 37.5081C105.998 37.5081 107.016 37.5346 108.029 37.5799C75.5199 39.1183 49.634 65.9386 49.634 98.8021C49.634 132.654 77.0989 160.096 110.979 160.096C143.869 160.096 170.712 134.232 172.251 101.749C172.296 102.761 172.323 103.778 172.323 104.802C172.323 141.967 142.17 172.095 104.974 172.095C67.7785 172.095 37.625 141.967 37.625 104.802C37.625 67.6367 67.7785 37.5081 104.974 37.5081L104.974 37.5081Z" fill="#FBBE07"/>
<path fill-rule="evenodd" clip-rule="evenodd" d="M136.094 33.1854L131.031 3.20752L117.471 30.8451L136.094 33.1854Z" fill="#FBBE07"/>
<path fill-rule="evenodd" clip-rule="evenodd" d="M135.998 33.1951L150.363 18.2556L146.952 38.5293L135.998 33.1951Z" fill="#FBBE07"/>
<path fill-rule="evenodd" clip-rule="evenodd" d="M161.63 50.1352L172.854 21.8777L146.919 38.4876L161.63 50.1352Z" fill="#FBBE07"/>
<path fill-rule="evenodd" clip-rule="evenodd" d="M161.543 50.0941L181.578 44.76L168.142 60.3296L161.543 50.0941Z" fill="#FBBE07"/>
<path fill-rule="evenodd" clip-rule="evenodd" d="M79.251 177.113L85.3996 206.887L97.947 178.776L79.251 177.113Z" fill="#FBBE07"/>
<path fill-rule="evenodd" clip-rule="evenodd" d="M79.3466 177.1L65.5332 192.55L68.2062 172.167L79.3466 177.1Z" fill="#FBBE07"/>
<path fill-rule="evenodd" clip-rule="evenodd" d="M53.1162 161.1L42.9258 189.745L68.2408 172.207L53.1162 161.1Z" fill="#FBBE07"/>
<path fill-rule="evenodd" clip-rule="evenodd" d="M53.2047 161.138L33.376 167.195L46.2381 151.149L53.2047 161.138Z" fill="#FBBE07"/>
<path fill-rule="evenodd" clip-rule="evenodd" d="M75.3245 33.6983L50.793 15.7134L60.3308 44.9811L75.3245 33.6983Z" fill="#FBBE07"/>
<path fill-rule="evenodd" clip-rule="evenodd" d="M75.2632 33.7721L75.1553 13.0547L86.841 29.9755L75.2632 33.7721Z" fill="#FBBE07"/>
<path fill-rule="evenodd" clip-rule="evenodd" d="M105.464 28.0864L93.8175 0L86.7881 29.9681L105.464 28.0864Z" fill="#FBBE07"/>
<path fill-rule="evenodd" clip-rule="evenodd" d="M105.372 28.1173L116.029 10.3457L117.242 30.8682L105.372 28.1173Z" fill="#FBBE07"/>
<path fill-rule="evenodd" clip-rule="evenodd" d="M34.3876 136.808L17.3086 161.969L46.2271 151.361L34.3876 136.808Z" fill="#FBBE07"/>
<path fill-rule="evenodd" clip-rule="evenodd" d="M34.4642 136.867L13.748 137.742L30.2379 125.447L34.4642 136.867Z" fill="#FBBE07"/>
<path fill-rule="evenodd" clip-rule="evenodd" d="M27.6588 106.923L0 119.592L30.2325 125.501L27.6588 106.923Z" fill="#FBBE07"/>
<path fill-rule="evenodd" clip-rule="evenodd" d="M27.6931 107.013L9.52441 97.0305L30.0048 95.0586L27.6931 107.013Z" fill="#FBBE07"/>
<path fill-rule="evenodd" clip-rule="evenodd" d="M32.5908 76.8804L2.49707 81.3664L29.8935 95.4403L32.5908 76.8804Z" fill="#FBBE07"/>
<path fill-rule="evenodd" clip-rule="evenodd" d="M32.5979 76.9761L17.9229 62.3401L38.1444 66.1351L32.5979 76.9761Z" fill="#FBBE07"/>
<path fill-rule="evenodd" clip-rule="evenodd" d="M50.039 51.6937L21.9775 39.9414L38.1031 66.1676L50.039 51.6937Z" fill="#FBBE07"/>
<path fill-rule="evenodd" clip-rule="evenodd" d="M49.9955 51.7798L45.04 31.6624L60.3633 45.3823L49.9955 51.7798Z" fill="#FBBE07"/>
<path fill-rule="evenodd" clip-rule="evenodd" d="M177.847 76.1562L198.256 53.6074L168.144 60.1017L177.847 76.1562Z" fill="#FBBE07"/>
<path fill-rule="evenodd" clip-rule="evenodd" d="M177.779 76.0867L198.416 78.0933L180.378 87.9823L177.779 76.0867Z" fill="#FBBE07"/>
<path fill-rule="evenodd" clip-rule="evenodd" d="M180.358 106.685L209.509 97.9746L180.391 87.9302L180.358 106.685Z" fill="#FBBE07"/>
<path fill-rule="evenodd" clip-rule="evenodd" d="M180.376 106.69L198.419 116.899L177.915 118.615L180.376 106.69Z" fill="#FBBE07"/>
<path fill-rule="evenodd" clip-rule="evenodd" d="M174.717 137.033L204.931 133.447L177.967 118.562L174.717 137.033Z" fill="#FBBE07"/>
<path fill-rule="evenodd" clip-rule="evenodd" d="M174.713 136.937L188.944 152.005L168.845 147.608L174.713 136.937Z" fill="#FBBE07"/>
<path fill-rule="evenodd" clip-rule="evenodd" d="M156.524 161.689L184.222 174.273L168.888 147.577L156.524 161.689Z" fill="#FBBE07"/>
<path fill-rule="evenodd" clip-rule="evenodd" d="M156.57 161.604L160.922 181.86L146.016 167.689L156.57 161.604Z" fill="#FBBE07"/>
<path fill-rule="evenodd" clip-rule="evenodd" d="M131.873 177.896L152.772 197.619L146.113 167.735L131.873 177.896Z" fill="#FBBE07"/>
<path fill-rule="evenodd" clip-rule="evenodd" d="M132.036 177.863L130.047 198.454L121.682 180.295L132.036 177.863Z" fill="#FBBE07"/>
<path fill-rule="evenodd" clip-rule="evenodd" d="M104.118 180.798L113.054 209.657L121.643 180.281L104.118 180.798Z" fill="#FBBE07"/>
<path fill-rule="evenodd" clip-rule="evenodd" d="M104.643 180.539L98.1038 199.686L94.6113 179.567L104.643 180.539Z" fill="#FBBE07"/>
<path fill-rule="evenodd" clip-rule="evenodd" d="M105.069 25.7537C148.71 25.7537 184.088 61.1024 184.088 104.708C184.088 148.313 148.71 183.662 105.069 183.662C61.4271 183.662 26.0488 148.313 26.0488 104.708C26.0488 61.1024 61.4271 25.7537 105.069 25.7537ZM105.069 30.6429C146.007 30.6429 179.195 63.8029 179.195 104.708C179.195 145.613 146.007 178.773 105.069 178.773C64.1294 178.773 30.942 145.613 30.942 104.708C30.942 63.8029 64.1294 30.6429 105.069 30.6429Z" fill="#FDC91F"/>
</svg>
