<svg width="20" height="20" viewBox="0 0 20 20" fill="none" xmlns="http://www.w3.org/2000/svg">
<path d="M18.125 3.75004H1.875H1.825C1.78145 3.74413 1.7373 3.74413 1.69375 3.75004L1.5875 3.79379C1.5535 3.81017 1.52195 3.83121 1.49375 3.85629C1.45819 3.88047 1.42657 3.90999 1.4 3.94379L1.3625 3.98129C1.36015 3.99997 1.36015 4.01887 1.3625 4.03754C1.34208 4.07544 1.32534 4.11521 1.3125 4.15629C1.28627 4.20605 1.26533 4.25842 1.25 4.31254C1.25 4.31254 1.25 4.37504 1.25 4.37504V15.625C1.25 15.7908 1.31585 15.9498 1.43306 16.067C1.55027 16.1842 1.70924 16.25 1.875 16.25H18.125C18.2908 16.25 18.4497 16.1842 18.5669 16.067C18.6842 15.9498 18.75 15.7908 18.75 15.625V4.37504C18.75 4.20928 18.6842 4.05031 18.5669 3.9331C18.4497 3.81589 18.2908 3.75004 18.125 3.75004ZM10 9.25629L3.875 5.00004H16.9312L10 9.25629ZM2.5 15V5.56879L9.64375 10.5125C9.67996 10.5338 9.71754 10.5526 9.75625 10.5688H9.80625C9.86768 10.5971 9.93298 10.616 10 10.625C10.0889 10.6227 10.1763 10.6014 10.2563 10.5625H10.3L17.5 6.11879V15H2.5Z" fill="#545454"/>
</svg>
