<svg width="17" height="17" viewBox="0 0 17 17" fill="none" xmlns="http://www.w3.org/2000/svg">
<path d="M11.5079 11.5846L11.509 11.5829C11.8618 11.0603 12.2005 10.8873 12.505 10.8609C12.8356 10.8322 13.2503 10.9641 13.7626 11.3083C13.96 11.449 14.1545 11.5827 14.3459 11.7143C14.7037 11.9602 15.051 12.1989 15.3878 12.4632C15.4819 12.5406 15.5779 12.6148 15.6682 12.6842C15.6779 12.6917 15.6875 12.699 15.697 12.7063C15.7799 12.77 15.8574 12.8296 15.9325 12.89C16.1014 13.0259 16.2326 13.1464 16.3281 13.2688C16.4196 13.3862 16.4715 13.4972 16.4907 13.6167C16.51 13.7368 16.5021 13.9027 16.4161 14.1381L16.4159 14.1385C16.2322 14.6431 15.8048 15.1923 15.2554 15.6148C14.719 16.0273 14.131 16.27 13.6313 16.2761C13.6161 16.273 13.6006 16.2698 13.5848 16.2666C13.3755 16.2242 13.1191 16.1721 12.8898 16.0758C8.25666 14.1254 4.68429 11.1535 2.25879 7.09221L2.25882 7.09219L2.2554 7.08663C1.69099 6.16899 1.21339 5.18463 0.762385 4.11694C0.40662 3.26118 0.433271 2.52838 0.718363 1.95167C1.0052 1.37143 1.59226 0.871518 2.50802 0.564013C2.79865 0.482444 3.03636 0.477799 3.26027 0.556065C3.29807 0.570639 3.37864 0.614894 3.5034 0.713351C3.62489 0.809228 3.76583 0.938445 3.92035 1.0963C4.22913 1.41176 4.5708 1.81964 4.89109 2.24992C5.2114 2.68023 5.50237 3.12225 5.71314 3.50346C5.81864 3.69429 5.90014 3.86285 5.95511 4.00229C6.01327 4.14982 6.02853 4.23217 6.0299 4.26104C6.04722 4.63644 5.82813 4.86099 5.36444 5.16014L5.35835 5.16407L5.35237 5.16818C5.02364 5.39402 4.76871 5.65506 4.60375 5.96155C4.43744 6.27052 4.37794 6.59733 4.39797 6.92822C4.4129 7.27194 4.51959 7.614 4.65658 7.93207L4.6565 7.93211L4.66029 7.94048C5.57104 9.95262 7.11687 11.3128 9.0935 12.1768C9.48547 12.3518 9.92352 12.4543 10.3627 12.3742C10.8192 12.291 11.2096 12.0228 11.5079 11.5846Z" stroke="#545454"/>
</svg>
