<svg width="17" height="17" viewBox="0 0 17 17" fill="none" xmlns="http://www.w3.org/2000/svg">
<g clip-path="url(#clip0_454_3462)">
<path d="M8.73324 0.351064C8.73326 0.351051 8.73382 0.351271 8.73484 0.351764L8.73324 0.351064ZM16.248 6.61959C16.1785 6.2772 16.0972 5.9492 16.0032 5.63542C16.1096 5.95713 16.192 6.28601 16.248 6.61959ZM10.2844 4.48092C10.2807 4.48028 10.277 4.47964 10.2733 4.47901V4.06936L10.2844 4.48092ZM15.3923 12.6895L15.3925 12.6893C15.4849 12.7652 15.5791 12.838 15.6678 12.9062C15.6773 12.9135 15.6868 12.9208 15.6962 12.928C15.7792 12.9918 15.8568 13.0515 15.9322 13.1121C16.101 13.248 16.2324 13.3686 16.3278 13.4911C16.4194 13.6087 16.4715 13.7198 16.4907 13.8394C16.51 13.9596 16.502 14.1255 16.4161 14.3608L16.4159 14.3613C16.2322 14.8658 15.8048 15.4151 15.2554 15.8376C14.719 16.2501 14.131 16.4928 13.6313 16.4988C13.6161 16.4957 13.6006 16.4926 13.5848 16.4894C13.3755 16.4469 13.1191 16.3949 12.8898 16.2985C8.25666 14.3482 4.68429 11.3762 2.25879 7.31496L2.25882 7.31493L2.2554 7.30938C1.69099 6.39173 1.21339 5.40738 0.762385 4.33969C0.40662 3.48393 0.433271 2.75113 0.718363 2.17442C1.0052 1.59417 1.59226 1.09427 2.50802 0.786761C2.79865 0.705192 3.03636 0.700546 3.26027 0.778813C3.29807 0.793386 3.37864 0.837641 3.5034 0.936098C3.62489 1.03198 3.76583 1.16119 3.92035 1.31905C4.22913 1.63451 4.5708 2.04239 4.89109 2.47267C5.2114 2.90298 5.50237 3.345 5.71314 3.72621C5.81864 3.91703 5.90014 4.0856 5.95511 4.22503C6.01327 4.37257 6.02853 4.45492 6.0299 4.48378C6.04722 4.85919 5.82813 5.08373 5.36444 5.38289L5.35835 5.38682L5.35237 5.39092C5.02364 5.61676 4.76871 5.87781 4.60375 6.18429C4.43744 6.49327 4.37794 6.82008 4.39797 7.15097C4.4129 7.49469 4.51959 7.83675 4.65658 8.15482L4.6565 8.15485L4.66029 8.16323C5.57103 10.1753 7.11685 11.5356 9.09345 12.3995C9.48544 12.5745 9.9235 12.6771 10.3627 12.597C10.8192 12.5138 11.2096 12.2455 11.5079 11.8074L11.509 11.8057C11.8618 11.283 12.2005 11.1101 12.505 11.0836C12.8356 11.0549 13.2503 11.1868 13.7625 11.531C13.96 11.6717 14.1545 11.8054 14.3459 11.937C14.7053 12.184 15.054 12.4237 15.3923 12.6895ZM14.1981 6.36663C14.1486 6.14493 14.0935 5.93357 14.0315 5.73219C14.1043 5.93951 14.1603 6.15155 14.1981 6.36663Z" stroke="#545454"/>
</g>
<defs>
<clipPath id="clip0_454_3462">
<rect width="17" height="17" fill="white"/>
</clipPath>
</defs>
</svg>
