<svg width="17" height="17" viewBox="0 0 17 17" fill="none" xmlns="http://www.w3.org/2000/svg">
<g clip-path="url(#clip0_397_1159)">
<path d="M8.73324 0.351308C8.73326 0.351295 8.73382 0.351515 8.73484 0.352008L8.73324 0.351308ZM16.248 6.61983C16.1785 6.27744 16.0972 5.94945 16.0032 5.63566C16.1096 5.95737 16.192 6.28626 16.248 6.61983ZM10.2844 4.48117C10.2807 4.48053 10.277 4.47989 10.2733 4.47926V4.0696L10.2844 4.48117ZM15.3923 12.6897L15.3925 12.6896C15.4849 12.7655 15.5791 12.8383 15.6678 12.9065C15.6773 12.9138 15.6868 12.921 15.6962 12.9282C15.7792 12.992 15.8568 13.0517 15.9322 13.1123C16.101 13.2483 16.2324 13.3688 16.3278 13.4914C16.4194 13.6089 16.4715 13.72 16.4907 13.8396C16.51 13.9599 16.502 14.1257 16.4161 14.3611L16.4159 14.3615C16.2322 14.8661 15.8048 15.4153 15.2554 15.8378C14.719 16.2503 14.131 16.493 13.6313 16.4991C13.6161 16.496 13.6006 16.4928 13.5848 16.4896C13.3755 16.4472 13.1191 16.3951 12.8898 16.2988C8.25666 14.3484 4.68429 11.3765 2.25879 7.3152L2.25882 7.31518L2.2554 7.30962C1.69099 6.39198 1.21339 5.40763 0.762385 4.33993C0.40662 3.48417 0.433271 2.75137 0.718363 2.17466C1.0052 1.59442 1.59226 1.09451 2.50802 0.787005C2.79865 0.705436 3.03636 0.700791 3.26027 0.779057C3.29807 0.79363 3.37864 0.837885 3.5034 0.936342C3.62489 1.03222 3.76583 1.16144 3.92035 1.3193C4.22913 1.63475 4.5708 2.04263 4.89109 2.47291C5.2114 2.90322 5.50237 3.34524 5.71314 3.72645C5.81864 3.91728 5.90014 4.08584 5.95511 4.22528C6.01327 4.37281 6.02853 4.45517 6.0299 4.48403C6.04722 4.85943 5.82813 5.08398 5.36444 5.38313L5.35835 5.38706L5.35237 5.39117C5.02364 5.61701 4.76871 5.87806 4.60375 6.18454C4.43744 6.49351 4.37794 6.82032 4.39797 7.15122C4.4129 7.49494 4.51959 7.83699 4.65658 8.15506L4.6565 8.1551L4.66029 8.16347C5.57103 10.1756 7.11685 11.5358 9.09345 12.3998C9.48544 12.5747 9.9235 12.6773 10.3627 12.5972C10.8192 12.514 11.2096 12.2458 11.5079 11.8076L11.509 11.8059C11.8618 11.2833 12.2005 11.1103 12.505 11.0839C12.8356 11.0552 13.2503 11.187 13.7625 11.5312C13.96 11.672 14.1545 11.8056 14.3459 11.9372C14.7053 12.1842 15.054 12.424 15.3923 12.6897ZM14.1981 6.36687C14.1486 6.14517 14.0935 5.93381 14.0315 5.73243C14.1043 5.93976 14.1603 6.1518 14.1981 6.36687Z" stroke="#545454"/>
</g>
<defs>
<clipPath id="clip0_397_1159">
<rect width="17" height="17" fill="white"/>
</clipPath>
</defs>
</svg>
