<svg width="13" height="13" viewBox="0 0 13 13" fill="none" xmlns="http://www.w3.org/2000/svg">
<g clip-path="url(#clip0_397_58)">
<path fill-rule="evenodd" clip-rule="evenodd" d="M8.04066 11.8485L7.93947 11.9237L8.00931 11.8046L8.76628 10.2382C9.18762 10.4987 9.51992 10.5926 9.85293 10.9225C9.51284 11.2515 8.65433 11.7391 8.04066 11.8485L8.04066 11.8485ZM3.10928 10.9225C3.35831 10.614 3.89153 10.3978 4.21691 10.2471C4.36585 10.4007 4.47089 10.8262 4.56208 11.0438C4.68275 11.3316 4.85974 11.6005 4.9639 11.8563C4.33053 11.7683 3.482 11.2445 3.10928 10.9225ZM5.14885 9.91456C6.0027 9.69288 7.2124 9.71262 7.82133 9.9148C7.7002 10.4847 7.02974 12.0676 6.48502 12.068C5.91197 12.0685 5.32979 10.4837 5.14885 9.91456H5.14885ZM4.62519 6.96464L8.3316 6.96332C8.32564 7.49484 8.28112 8.60043 8.05535 9.0012C6.59074 8.8576 6.35099 8.89189 4.91481 8.99652C4.71889 8.61627 4.6441 7.45512 4.62519 6.96464ZM10.5356 10.2771C10.3181 10.0215 9.39977 9.47817 8.96704 9.3478C8.97165 9.0709 9.2317 7.91384 9.27457 6.96325L12.0652 6.96363C11.9869 7.84536 11.3455 9.8477 10.5356 10.2771V10.2771ZM0.904704 6.96629L3.69488 6.96308C3.72555 7.83983 3.90116 8.50544 3.97874 9.29232C3.81749 9.33305 2.50536 10.0998 2.35238 10.2686C1.69194 9.59085 1.01425 8.33348 0.904704 6.96629V6.96629ZM4.87286 3.99789C6.15678 4.12612 6.66683 4.20559 8.05535 3.99516C8.25195 4.39105 8.32467 5.52485 8.34498 6.0308L4.62495 6.03214C4.65188 5.27388 4.76499 4.71064 4.87286 3.99789ZM8.97106 3.68076C9.53149 3.51489 10.1659 3.06099 10.5562 2.76695C10.9036 2.94833 11.3393 3.72845 11.5555 4.1581C11.8236 4.69128 12.0002 5.35141 12.0652 6.02893L9.27481 6.03236C9.23896 5.14344 9.05183 4.47664 8.97106 3.68076ZM3.69513 6.03219L0.904708 6.03184C0.98919 5.09278 1.32337 4.15306 1.82835 3.4075C2.00526 3.14631 2.20524 2.94231 2.3588 2.7241C2.4104 2.78314 3.961 3.69718 3.99193 3.70314C3.9007 4.5028 3.73013 5.15185 3.69513 6.03219H3.69513ZM5.14839 3.08088C5.22344 2.67419 5.92552 0.915994 6.48503 0.916323C7.04818 0.91663 7.73285 2.66116 7.82133 3.08064C6.89626 3.29009 6.07338 3.28749 5.14839 3.08088H5.14839ZM8.00628 1.13886C8.61226 1.2158 9.54075 1.75436 9.85767 2.07297C9.57432 2.36098 9.16538 2.55319 8.75325 2.74837L8.00628 1.13886V1.13886ZM3.1136 2.07297C3.44946 1.73771 4.34185 1.2338 4.96872 1.13684C4.90857 1.29419 4.24486 2.71664 4.2025 2.75724C3.78223 2.5248 3.45758 2.39214 3.1136 2.07297L3.1136 2.07297ZM12.9528 7.25459C13.4024 3.46483 10.5703 0.431194 7.28869 0.0475596C3.43665 -0.402778 0.42199 2.40946 0.0440426 5.75316C-0.390115 9.59436 2.44832 12.6029 5.78939 12.9602C9.60224 13.3679 12.5577 10.585 12.9528 7.25459Z" fill="#545454"/>
</g>
<defs>
<clipPath id="clip0_397_58">
<rect width="13" height="13" fill="white"/>
</clipPath>
</defs>
</svg>
