<svg width="60" height="60" viewBox="0 0 108 79" fill="none" xmlns="http://www.w3.org/2000/svg">
<g clip-path="url(#clip0_33_867)">
<path fill-rule="evenodd" clip-rule="evenodd" d="M55.349 6.54049C60.9823 6.33661 66.743 7.18573 72.1201 9.06586C75.5578 6.33777 93.5857 -0.852582 95.1619 0.525945C87.0344 4.86309 81.9549 10.9958 80.3277 12.9559C89.8893 18.8569 96.879 28.7776 97.3283 42.5803C98.1261 67.0636 77.7521 78.9502 53.6089 78.6455C30.6484 78.3571 16.4639 63.3844 15.7328 45.006C15.1585 30.5929 22.7055 19.6851 33.1876 13.2246C32.3885 12.3535 27.3758 5.41334 18.2161 0.525945C19.8288 -0.883859 38.6472 6.66792 41.4705 9.24426C45.9501 7.62825 50.6751 6.70962 55.3478 6.54049H55.349Z" fill="#FEFEFE" stroke="#ED771C" stroke-width="0.352719" stroke-miterlimit="22.9256"/>
<path fill-rule="evenodd" clip-rule="evenodd" d="M95.3637 0.70783C95.9866 1.99484 96.4784 4.37656 96.8027 7.26336C97.5531 13.9382 97.4147 23.3215 95.9769 28.1614C95.6393 29.2989 95.5616 29.7461 95.0747 30.2871C94.8342 30.5547 92.7978 23.4732 86.6205 17.805C84.4772 15.8392 82.249 14.2174 80.3291 12.9547C80.3255 12.9524 83.5507 8.96741 87.5774 5.63925C89.6539 3.92362 91.8385 2.46864 93.3625 1.54305C94.4869 0.859584 95.173 0.311648 95.3637 0.706672V0.70783Z" stroke="#ED771C" stroke-width="0.352719" stroke-miterlimit="22.9256"/>
<path fill-rule="evenodd" clip-rule="evenodd" d="M33.1305 13.1481C27.8033 6.18485 18.2016 0.00928068 18.0182 0.707811C17.8774 1.24185 17.5543 1.87319 17.354 2.66787C15.711 9.19444 15.5507 24.5135 17.9466 29.6291C18.0425 29.8341 18.1433 30.0229 18.2465 30.1932C18.4979 30.6056 19.116 27.5509 21.5628 24.1555C22.0352 23.501 25.0139 19.5311 28.0133 16.9918C30.7638 14.6645 33.3406 13.4227 33.1305 13.147V13.1481Z" stroke="#ED771C" stroke-width="0.352719" stroke-miterlimit="22.9256"/>
<path fill-rule="evenodd" clip-rule="evenodd" d="M39.4048 23.113C43.2384 20.9537 47.1643 19.7686 51.2093 19.8416L51.0065 23.8347C47.372 22.1827 42.4017 22.4677 39.4048 23.1141V23.113Z" fill="#ED771C"/>
<path fill-rule="evenodd" clip-rule="evenodd" d="M71.949 23.113C68.1154 20.9537 64.1895 19.7686 60.1445 19.8416L60.3473 23.8347C63.9818 22.1827 68.952 22.4677 71.949 23.1141V23.113Z" fill="#ED771C"/>
<path fill-rule="evenodd" clip-rule="evenodd" d="M17.0614 33.6998C17.2666 33.6824 17.4464 33.6639 17.6613 33.6396C20.1179 33.3557 22.6279 33.2665 25.1209 33.3418C26.1361 33.3731 26.0547 36.1811 25.1088 36.1939C22.1774 36.2356 19.2351 36.3595 16.3438 36.6862C16.5271 35.6923 16.7821 34.6949 17.0626 33.6998H17.0614Z" fill="#ED771C"/>
<path fill-rule="evenodd" clip-rule="evenodd" d="M15.9673 38.6682C16.1725 38.6509 16.7991 38.6288 17.0129 38.6034C19.4694 38.3196 21.9795 38.2304 24.4725 38.3057C25.4876 38.3369 25.4063 41.145 24.4603 41.1577C21.5289 41.1994 18.5866 41.3233 15.6953 41.65C15.7597 40.6688 15.8022 39.6865 15.9673 38.6671V38.6682Z" fill="#ED771C"/>
<path fill-rule="evenodd" clip-rule="evenodd" d="M96.0001 53.8193C96.0438 52.9922 95.5605 52.1257 94.4724 50.8491C82.8525 37.2202 26.9765 38.0485 18.0464 51.1735C17.5898 51.8442 17.1551 52.5369 17.0397 53.3073C16.3208 58.1391 21.5825 65.4522 27.2255 70.2168C45.5242 85.6725 94.6874 78.8946 96.0001 53.8193Z" fill="#FEFEFE" stroke="#ED771C" stroke-width="0.352719" stroke-miterlimit="22.9256"/>
<path d="M48.2609 47.4978C52.093 47.4978 55.1996 43.2739 55.1996 38.0636C55.1996 32.8532 52.093 28.6293 48.2609 28.6293C44.4288 28.6293 41.3223 32.8532 41.3223 38.0636C41.3223 43.2739 44.4288 47.4978 48.2609 47.4978Z" fill="#FEFEFE" stroke="#EBECEC" stroke-width="0.176648" stroke-miterlimit="22.9256"/>
<path d="M62.6218 47.4978C66.4539 47.4978 69.5604 43.2739 69.5604 38.0636C69.5604 32.8532 66.4539 28.6293 62.6218 28.6293C58.7897 28.6293 55.6831 32.8532 55.6831 38.0636C55.6831 43.2739 58.7897 47.4978 62.6218 47.4978Z" fill="#FEFEFE" stroke="#EBECEC" stroke-width="0.176648" stroke-miterlimit="22.9256"/>
<path d="M48.0208 43.6947C49.8135 43.6947 51.2667 41.4463 51.2667 38.6729C51.2667 35.8994 49.8135 33.6511 48.0208 33.6511C46.2281 33.6511 44.7749 35.8994 44.7749 38.6729C44.7749 41.4463 46.2281 43.6947 48.0208 43.6947Z" fill="#434242"/>
<path d="M49.6428 38.6729C50.5388 38.6729 51.2652 37.5485 51.2652 36.1614C51.2652 34.7744 50.5388 33.65 49.6428 33.65C48.7469 33.65 48.0205 34.7744 48.0205 36.1614C48.0205 37.5485 48.7469 38.6729 49.6428 38.6729Z" fill="#FEFEFE"/>
<path d="M62.9035 44.3017C65.1173 44.3017 66.912 41.7567 66.912 38.6173C66.912 35.4779 65.1173 32.9329 62.9035 32.9329C60.6897 32.9329 58.895 35.4779 58.895 38.6173C58.895 41.7567 60.6897 44.3017 62.9035 44.3017Z" fill="#009846"/>
<path d="M62.8636 43.6947C64.6562 43.6947 66.1095 41.4463 66.1095 38.6729C66.1095 35.8994 64.6562 33.6511 62.8636 33.6511C61.0709 33.6511 59.6177 35.8994 59.6177 38.6729C59.6177 41.4463 61.0709 43.6947 62.8636 43.6947Z" fill="#434242"/>
<path d="M60.906 36.5066C61.802 36.5066 62.5284 35.7862 62.5284 34.8976C62.5284 34.0089 61.802 33.2885 60.906 33.2885C60.01 33.2885 59.2837 34.0089 59.2837 34.8976C59.2837 35.7862 60.01 36.5066 60.906 36.5066Z" fill="#FEFEFE"/>
<path d="M47.988 44.3017C50.2018 44.3017 51.9965 41.7567 51.9965 38.6173C51.9965 35.4779 50.2018 32.9329 47.988 32.9329C45.7742 32.9329 43.9795 35.4779 43.9795 38.6173C43.9795 41.7567 45.7742 44.3017 47.988 44.3017Z" fill="#009846"/>
<path d="M48.0281 43.6947C49.8208 43.6947 51.274 41.4463 51.274 38.6729C51.274 35.8994 49.8208 33.6511 48.0281 33.6511C46.2355 33.6511 44.7822 35.8994 44.7822 38.6729C44.7822 41.4463 46.2355 43.6947 48.0281 43.6947Z" fill="#434242"/>
<path d="M49.9842 36.5066C50.8801 36.5066 51.6065 35.7862 51.6065 34.8976C51.6065 34.0089 50.8801 33.2885 49.9842 33.2885C49.0882 33.2885 48.3618 34.0089 48.3618 34.8976C48.3618 35.7862 49.0882 36.5066 49.9842 36.5066Z" fill="#FEFEFE"/>
<path d="M55.4412 54.3858C59.494 54.3858 62.7794 53.0062 62.7794 51.3044C62.7794 49.6026 59.494 48.223 55.4412 48.223C51.3884 48.223 48.103 49.6026 48.103 51.3044C48.103 53.0062 51.3884 54.3858 55.4412 54.3858Z" fill="url(#paint0_radial_33_867)"/>
<path d="M53.7799 49.4176C53.9374 49.9784 53.2921 50.6305 52.3387 50.8742C51.3853 51.1179 50.4847 50.8609 50.3272 50.3002C50.1697 49.7395 50.8149 49.0873 51.7683 48.8436C52.7218 48.5999 53.6224 48.8569 53.7799 49.4176Z" fill="#FEFEFE"/>
<path d="M48.2609 47.4978C52.093 47.4978 55.1996 43.2739 55.1996 38.0636C55.1996 32.8532 52.093 28.6293 48.2609 28.6293C44.4288 28.6293 41.3223 32.8532 41.3223 38.0636C41.3223 43.2739 44.4288 47.4978 48.2609 47.4978Z" fill="#FEFEFE" stroke="#ED771C" stroke-width="0.352719" stroke-miterlimit="22.9256"/>
<path d="M62.6218 47.4978C66.4539 47.4978 69.5604 43.2739 69.5604 38.0636C69.5604 32.8532 66.4539 28.6293 62.6218 28.6293C58.7897 28.6293 55.6831 32.8532 55.6831 38.0636C55.6831 43.2739 58.7897 47.4978 62.6218 47.4978Z" fill="#FEFEFE" stroke="#ED771C" stroke-width="0.352719" stroke-miterlimit="22.9256"/>
<path d="M48.0208 43.6947C49.8135 43.6947 51.2667 41.4463 51.2667 38.6729C51.2667 35.8994 49.8135 33.6511 48.0208 33.6511C46.2281 33.6511 44.7749 35.8994 44.7749 38.6729C44.7749 41.4463 46.2281 43.6947 48.0208 43.6947Z" fill="#434242"/>
<path d="M49.6428 38.6729C50.5388 38.6729 51.2652 37.5485 51.2652 36.1614C51.2652 34.7744 50.5388 33.65 49.6428 33.65C48.7469 33.65 48.0205 34.7744 48.0205 36.1614C48.0205 37.5485 48.7469 38.6729 49.6428 38.6729Z" fill="#FEFEFE"/>
<path d="M62.9035 44.3017C65.1173 44.3017 66.912 41.7567 66.912 38.6173C66.912 35.4779 65.1173 32.9329 62.9035 32.9329C60.6897 32.9329 58.895 35.4779 58.895 38.6173C58.895 41.7567 60.6897 44.3017 62.9035 44.3017Z" fill="#ED771C"/>
<path d="M62.8636 43.6947C64.6562 43.6947 66.1095 41.4463 66.1095 38.6729C66.1095 35.8994 64.6562 33.6511 62.8636 33.6511C61.0709 33.6511 59.6177 35.8994 59.6177 38.6729C59.6177 41.4463 61.0709 43.6947 62.8636 43.6947Z" fill="#ED771C"/>
<path d="M60.906 36.5066C61.802 36.5066 62.5284 35.7862 62.5284 34.8976C62.5284 34.0089 61.802 33.2885 60.906 33.2885C60.01 33.2885 59.2837 34.0089 59.2837 34.8976C59.2837 35.7862 60.01 36.5066 60.906 36.5066Z" fill="#FEFEFE"/>
<path d="M47.988 44.3017C50.2018 44.3017 51.9965 41.7567 51.9965 38.6173C51.9965 35.4779 50.2018 32.9329 47.988 32.9329C45.7742 32.9329 43.9795 35.4779 43.9795 38.6173C43.9795 41.7567 45.7742 44.3017 47.988 44.3017Z" fill="#ED771C"/>
<path d="M48.0281 43.6947C49.8208 43.6947 51.274 41.4463 51.274 38.6729C51.274 35.8994 49.8208 33.6511 48.0281 33.6511C46.2355 33.6511 44.7822 35.8994 44.7822 38.6729C44.7822 41.4463 46.2355 43.6947 48.0281 43.6947Z" fill="#ED771C"/>
<path d="M49.9842 36.5066C50.8801 36.5066 51.6065 35.7862 51.6065 34.8976C51.6065 34.0089 50.8801 33.2885 49.9842 33.2885C49.0882 33.2885 48.3618 34.0089 48.3618 34.8976C48.3618 35.7862 49.0882 36.5066 49.9842 36.5066Z" fill="#FEFEFE"/>
<path d="M55.4412 54.3858C59.494 54.3858 62.7794 53.0062 62.7794 51.3044C62.7794 49.6026 59.494 48.223 55.4412 48.223C51.3884 48.223 48.103 49.6026 48.103 51.3044C48.103 53.0062 51.3884 54.3858 55.4412 54.3858Z" fill="#ED771C"/>
<path d="M53.7799 49.4176C53.9374 49.9784 53.2921 50.6305 52.3387 50.8742C51.3853 51.1179 50.4847 50.8609 50.3272 50.3002C50.1697 49.7395 50.8149 49.0873 51.7683 48.8436C52.7218 48.5999 53.6224 48.8569 53.7799 49.4176Z" fill="#FEFEFE" stroke="#ED771C" stroke-width="0.0147991" stroke-miterlimit="22.9256"/>
<path fill-rule="evenodd" clip-rule="evenodd" d="M97.0176 38.6682C96.8124 38.6509 96.1858 38.6288 95.9721 38.6034C93.5155 38.3196 91.0055 38.2304 88.5125 38.3057C87.4973 38.3369 87.5787 41.145 88.5246 41.1577C91.456 41.1994 94.3983 41.3233 97.2896 41.65C97.2253 40.6688 97.1828 39.6865 97.0176 38.6671V38.6682Z" fill="#ED771C"/>
<path fill-rule="evenodd" clip-rule="evenodd" d="M95.9707 33.7033C95.7654 33.6859 95.5384 33.6639 95.3246 33.6396C92.8681 33.3557 90.358 33.2665 87.865 33.3418C86.8499 33.3731 86.9312 36.1811 87.8772 36.1939C90.8086 36.2356 93.7509 36.3595 96.6422 36.6862C96.4588 35.6923 96.2512 34.6995 95.9707 33.7033Z" fill="#ED771C"/>
<path d="M63.9927 53.0721C78.6751 50.5062 93.3393 51.5974 107.932 56.3041" stroke="#E6741D" stroke-width="0.199739" stroke-miterlimit="22.9256"/>
<path d="M64.0981 54.7241C77.1813 54.6546 89.5844 56.1385 102.476 60.6934" stroke="#E6741D" stroke-width="0.199739" stroke-miterlimit="22.9256"/>
<path d="M64.4966 56.2983C75.5117 56.866 85.4583 59.7377 96.3338 64.1826" stroke="#E6741D" stroke-width="0.199739" stroke-miterlimit="22.9256"/>
<path d="M47.592 53.5309C31.6163 51.1063 15.7572 52.6435 0.0717773 58.0962" stroke="#E6741D" stroke-width="0.199739" stroke-miterlimit="22.9256"/>
<path d="M47.5217 55.3229C33.3445 55.565 19.9468 57.473 6.10107 62.7183" stroke="#E6741D" stroke-width="0.199739" stroke-miterlimit="22.9256"/>
<path d="M47.1317 57.0386C35.2131 57.9201 24.5125 61.2715 12.8477 66.3512" stroke="#E6741D" stroke-width="0.199739" stroke-miterlimit="22.9256"/>
<path fill-rule="evenodd" clip-rule="evenodd" d="M55.1729 53.9375L55.2615 62.182C55.6695 60.8741 55.4898 55.7099 55.5129 53.9062L55.1741 53.9386L55.1729 53.9375Z" fill="url(#paint1_linear_33_867)"/>
<path d="M43.2388 61.9028C50.9862 66.4693 59.1974 66.8621 67.2363 61.3896" stroke="#DF8A90" stroke-width="0.529367" stroke-miterlimit="22.9256"/>
<path d="M65.8096 59.7215L68.3633 62.8064" stroke="#DF8A90" stroke-width="0.529367" stroke-miterlimit="22.9256"/>
<path d="M44.1457 60.1374L42.3315 63.6671" stroke="#DF8A90" stroke-width="0.529367" stroke-miterlimit="22.9256"/>
<path d="M43.2388 61.9028C50.9862 66.4693 59.1974 66.8621 67.2363 61.3896" stroke="#ED771C" stroke-width="0.529367" stroke-miterlimit="22.9256"/>
<path d="M65.8096 59.7215L68.3633 62.8064" stroke="#ED771C" stroke-width="0.529367" stroke-miterlimit="22.9256"/>
<path d="M44.1457 60.1374L42.3315 63.6671" stroke="#ED771C" stroke-width="0.529367" stroke-miterlimit="22.9256"/>
<path fill-rule="evenodd" clip-rule="evenodd" d="M57.117 6.54397C56.3872 9.42845 56.1491 12.3824 56.2937 15.3457C56.3398 16.3141 60.6422 16.2365 60.6628 15.3341C60.7029 13.5791 61.0441 7.96651 61.5565 6.73858C60.0144 6.57872 58.5487 6.51964 57.117 6.54281V6.54397Z" fill="#ED771C"/>
<path fill-rule="evenodd" clip-rule="evenodd" d="M47.8324 7.45218C47.7874 7.62941 47.7632 7.74526 47.7304 7.92365C47.2495 10.2451 47.1098 12.9744 47.2252 15.3457C47.2714 16.3141 51.5737 16.2365 51.5944 15.3341C51.6369 13.4795 51.8955 8.15766 52.4784 6.76407C52.4832 6.75133 52.4845 6.74901 52.4893 6.73743C50.9787 6.88455 49.3819 7.14056 47.8324 7.45218Z" fill="#ED771C"/>
</g>
<defs>
<radialGradient id="paint0_radial_33_867" cx="0" cy="0" r="1" gradientUnits="userSpaceOnUse" gradientTransform="translate(52.3338 49.248) scale(6.40123 2.68807)">
<stop stop-color="#9E9D9C"/>
<stop offset="1" stop-color="#434242"/>
</radialGradient>
<linearGradient id="paint1_linear_33_867" x1="54.6398" y1="57.9317" x2="55.9521" y2="58.1754" gradientUnits="userSpaceOnUse">
<stop stop-color="#ED771C"/>
<stop offset="0.639216" stop-color="#F5BA8D"/>
<stop offset="1" stop-color="#FEFEFE"/>
</linearGradient>
<clipPath id="clip0_33_867">
<rect width="108" height="79" fill="white"/>
</clipPath>
</defs>
</svg>
