<svg width="100%" height="100%" viewBox="0 0 209 77" fill="none" xmlns="http://www.w3.org/2000/svg">
<path fill-rule="evenodd" clip-rule="evenodd" d="M0.855056 65.7793L0 3.32178L204.277 8.07714L201.296 76.4929L0.855056 65.7793Z" fill="url(#paint0_linear_476_180)"/>
<path fill-rule="evenodd" clip-rule="evenodd" d="M0.666016 3.43225L204.943 8.18733L209 5.79523L6.58764 0L0.666016 3.43225Z" fill="#AE7255"/>
<path fill-rule="evenodd" clip-rule="evenodd" d="M204.277 8.07764L208.104 5.76367L204.167 72.1911L201.296 76.4934L204.277 8.07764Z" fill="#633221"/>
<path fill-rule="evenodd" clip-rule="evenodd" d="M29.0031 67.2836L14.7051 66.5195L31.7776 4.06201H46.3117L29.0031 67.2836Z" fill="#FFC552" fill-opacity="0.14902"/>
<path fill-rule="evenodd" clip-rule="evenodd" d="M48.7922 68.3424L39.9561 67.8698L55.6365 4.61768L66.0984 4.86135L48.7922 68.3424Z" fill="#FFC552" fill-opacity="0.14902"/>
<path fill-rule="evenodd" clip-rule="evenodd" d="M123.237 72.3214L157.411 74.1481L169.64 7.27161L138.056 6.53613L123.237 72.3214Z" fill="#FFC552" fill-opacity="0.14902"/>
<path fill-rule="evenodd" clip-rule="evenodd" d="M173.986 75.0338L161.894 74.3872L173.163 7.35352L186.76 7.66997L173.986 75.0338Z" fill="#FFC552" fill-opacity="0.14902"/>
<path d="M0.256836 13.7422C31.2133 11.9755 34.3172 5.69846 66.2271 14.7658C82.8753 19.4962 94.4694 23.0444 104.522 24.1998C128.108 26.9114 141.46 21.0241 175.892 19.2268C179.693 19.0284 191.552 18.54 202.932 21.9634" stroke="#91441B" stroke-width="0.755904" stroke-miterlimit="22.9256"/>
<path d="M201.326 15.6336C194.447 12.9154 192.272 12.5054 186.006 11.6431" stroke="#91441B" stroke-width="0.755904" stroke-miterlimit="22.9256"/>
<path d="M144.315 10.644C143.698 10.3429 79.7247 18.8357 62.0801 6.04346" stroke="#91441B" stroke-width="0.755904" stroke-miterlimit="22.9256"/>
<path d="M76.8213 9.02637C83.6634 11.4387 109.59 11.6661 116.376 9.97443" stroke="#91441B" stroke-width="0.755904" stroke-miterlimit="22.9256"/>
<path d="M10.4561 20.9765C27.6892 20.3004 54.4061 27.9974 78.0408 29.9286C95.5285 31.3571 115.489 28.7298 126.457 30.4403C152.686 34.5302 176.664 40.9652 202.954 38.4457" stroke="#91441B" stroke-width="0.755904" stroke-miterlimit="22.9256"/>
<path d="M0.34375 28.4582C8.98355 25.7559 28.9927 28.4579 49.2392 32.7716C76.1159 38.498 110.046 34.0838 129.731 36.5045C159.473 40.162 193.025 47.318 202.725 43.6749" stroke="#91441B" stroke-width="0.755904" stroke-miterlimit="22.9256"/>
<path d="M0.694336 54.0837C33.7712 56.5048 55.3276 45.8423 83.0472 45.8423C102.722 45.8423 115.007 46.309 134.378 48.3352C165.706 51.6121 180.426 53.6622 202.535 48.037" stroke="#91441B" stroke-width="0.755904" stroke-miterlimit="22.9256"/>
<path d="M0.820312 63.2817C24.6112 67.0496 48.1584 63.5376 64.4161 61.6207C94.1283 58.117 120.318 55.2108 151.07 65.3687C182.376 75.7096 201.017 70.7546 201.527 71.1834" stroke="#91441B" stroke-width="0.755904" stroke-miterlimit="22.9256"/>
<path d="M71.4062 69.5504C91.3153 67.3493 112.679 65.6798 132.753 67.469C146.465 68.6924 160.07 71.2848 169.605 74.7995" stroke="#91441B" stroke-width="0.755904" stroke-miterlimit="22.9256"/>
<path d="M0.137695 7.18916C13.3748 5.61495 39.2069 4.11729 51.6582 8.42368" stroke="#91441B" stroke-width="0.755904" stroke-miterlimit="22.9256"/>
<path d="M0.177734 9.3702C2.68671 9.41439 9.09014 7.44482 10.8245 7.44482" stroke="#91441B" stroke-width="0.755904" stroke-miterlimit="22.9256"/>
<path d="M0.544922 36.3053C28.2933 27.2464 30.9887 48.2731 17.6923 47.9771C13.2136 47.8774 3.58993 45.5905 0.67978 46.1338" stroke="#91441B" stroke-width="0.755904" stroke-miterlimit="22.9256"/>
<path fill-rule="evenodd" clip-rule="evenodd" d="M167.269 23.0338C160.987 24.495 156.057 25.4821 155.899 27.8904C155.742 30.299 160.584 31.5122 166.363 31.5122C172.141 31.5122 176.579 30.3023 176.826 27.8904C177.073 25.4784 173.551 21.5725 167.269 23.0338Z" stroke="#91441B" stroke-width="0.755904" stroke-miterlimit="22.9256"/>
<path fill-rule="evenodd" clip-rule="evenodd" d="M0.588115 50.9828L0.539062 48.2378L29.7845 51.8092L0.588115 50.9828Z" fill="#4C221A"/>
<path fill-rule="evenodd" clip-rule="evenodd" d="M204.087 18.0616L204.213 15.2036L187.97 16.0001L204.087 18.0616Z" fill="#633221"/>
<path fill-rule="evenodd" clip-rule="evenodd" d="M203.813 23.9557L203.923 21.4849L194.009 22.3108L203.813 23.9557Z" fill="#633221"/>
<path fill-rule="evenodd" clip-rule="evenodd" d="M0.247327 21.4305L0.216797 19.2188L16.0527 21.2141L0.247327 21.4305Z" fill="#633221"/>
<path d="M40.9021 30.5019L43.2225 30.6049C42.4847 28.0086 41.8293 25.0894 41.2436 21.8457C40.9449 20.1618 40.617 18.0288 40.2534 15.4468L39.7853 12.4717C39.3967 12.8814 39.0393 13.3165 38.713 13.7887C38.3932 14.2609 38.0289 14.8454 37.6266 15.5543C36.5716 17.2456 35.8042 18.8006 35.318 20.2133C34.8255 21.62 34.5584 22.8715 34.5102 23.9683C34.4413 25.5323 34.4749 26.5176 34.6042 26.9228C34.7397 27.3288 34.957 27.5353 35.2565 27.5493C35.6061 27.5629 35.8359 27.7009 35.9472 27.9508C36.1575 28.4378 36.2213 29.5412 36.1395 31.2612C36.1255 31.6352 35.9748 31.8715 35.7 31.9701C35.419 32.0684 35.1316 32.1111 34.8322 32.0971C34.6329 32.0901 34.4082 32.0643 34.1588 32.0198C33.9098 31.9686 33.7105 31.9308 33.5669 31.8991C33.4173 31.8734 33.2364 31.8538 33.0246 31.8406C32.8124 31.8336 32.6562 31.8266 32.5568 31.82C32.1073 31.7993 31.7581 31.8166 31.5021 31.8656C31.2524 31.9145 31.0402 31.9318 30.8656 31.9252C30.5164 31.9113 30.2235 31.81 29.9936 31.6223C29.7634 31.4408 29.6404 31.0974 29.6113 30.5925L29.6662 29.3211C29.7277 28.0001 29.9951 26.7049 30.4747 25.435C30.9599 24.1718 31.9413 22.2314 33.4369 19.6258L35.9937 15.1983C36.9109 13.6628 37.4388 12.761 37.5769 12.4938C38.3376 11.051 38.7351 10.0303 38.7624 9.43222C38.7767 9.03325 38.696 8.77743 38.5096 8.6707C38.3291 8.56397 38.0238 8.50033 37.5998 8.4797L35.167 8.37034L35.2297 6.87451L46.9299 7.39675L46.8614 8.89184L44.7098 8.79587C44.9964 11.8762 45.4631 15.2124 46.1033 18.8055C46.6581 21.9179 47.3495 25.1182 48.1779 28.3936C48.2645 28.7245 48.3626 29.1485 48.4789 29.6605C48.5887 30.178 48.6808 30.5774 48.7419 30.852L51.318 30.9686L51.249 32.4641L40.8337 31.9974L40.9022 30.5019H40.9021Z" fill="#FEFEFE"/>
<path d="M68.8533 18.1893L69.7035 19.3027C69.1152 19.6741 68.5342 19.9582 67.9595 20.1555C67.3912 20.3524 66.8541 20.4375 66.3553 20.4165C65.8127 20.3959 65.2893 20.2067 64.792 19.8493C64.2943 19.4919 63.8342 19.0536 63.4061 18.5287C62.9843 18.0031 62.7111 17.6777 62.5866 17.5467C62.2514 17.2397 61.915 17.0763 61.5658 17.0565C60.468 17.0083 59.6661 17.8647 59.1662 19.6142C58.8118 20.8222 58.5934 22.3607 58.5105 24.2301C59.08 23.8274 59.8304 23.4376 60.7734 23.0552C61.8674 22.6047 62.7103 22.3901 63.3089 22.4177C63.758 22.4379 64.2133 22.5458 64.6804 22.735C65.1471 22.9235 65.6013 23.1623 66.0367 23.4509C66.4725 23.7391 66.7901 23.8838 66.9898 23.8911C67.2141 23.9044 67.4388 23.8616 67.6698 23.7751C67.9011 23.6893 68.1265 23.5653 68.3578 23.4041L69.0276 24.3545C68.6076 24.8079 68.2632 25.1429 67.994 25.3663C67.7188 25.5831 67.3747 25.8371 66.9492 26.1098C66.5241 26.3884 66.1926 26.5743 65.9491 26.6604C65.7115 26.7465 65.437 26.7829 65.1375 26.7689C64.7382 26.755 64.4638 26.7042 64.3024 26.6225C64.1466 26.5408 63.8854 26.3652 63.5181 26.1016C63.1575 25.8326 62.7969 25.5941 62.4296 25.3744C61.8948 25.0541 61.3901 24.8837 60.916 24.8631C60.3922 24.8362 59.8801 24.9525 59.3677 25.2061C59.1113 25.3419 58.8174 25.5399 58.4796 25.8006C58.3971 27.5952 58.7589 29.1243 59.5645 30.3798C60.3701 31.6422 61.5589 32.3081 63.1307 32.3765C63.8044 32.4045 64.5095 32.3077 65.2403 32.0861C65.9774 31.8587 66.8276 31.4258 67.8093 30.788L68.4116 31.5509C67.6535 32.3081 66.7278 32.9151 65.6341 33.3784C64.5408 33.8348 63.3049 34.0354 61.9386 33.9736C59.7932 33.8776 57.9742 33.2842 56.469 32.1995C54.3421 30.6393 53.3477 28.3039 53.4852 25.2007L53.5397 24.0099C53.623 22.072 54.2916 20.2858 55.5392 18.652C57.0761 16.6324 59.0639 15.6746 61.5087 15.7843C62.6065 15.8329 63.6905 16.105 64.768 16.5956C65.3033 16.8407 65.9756 17.2302 66.7779 17.7631C67.2811 18.1831 67.711 18.3969 68.0602 18.4105C68.3284 18.4241 68.5969 18.3502 68.8533 18.1893H68.8533Z" fill="#FEFEFE"/>
<path d="M81.8472 27.7544L82.9596 28.7379C82.1168 30.361 81.0942 31.7468 79.8919 32.8827C78.6961 34.0244 77.7328 34.5817 77.0093 34.5474C75.8869 34.4989 74.644 33.3034 73.2752 30.9665C71.9063 28.63 71.266 26.4956 71.3489 24.5577C71.4384 22.5447 72.2514 20.5163 73.7945 18.4717C75.25 16.5456 76.4888 15.6036 77.5114 15.6511C78.0105 15.6721 79.0692 16.1252 80.6934 17.0108C82.312 17.8897 83.1073 18.6226 83.0863 19.196C83.0727 19.3889 82.7154 19.8362 82.014 20.5314C81.4939 21.028 81.0743 21.5252 80.7479 22.0096C80.5655 22.3018 80.434 22.4446 80.3589 22.4384C80.2841 22.438 80.0362 22.1376 79.6144 21.5439C79.1863 20.9558 78.758 20.4743 78.3292 20.1048C77.6083 19.4971 76.6929 19.0448 75.5837 18.7474C75.3387 19.2075 75.1553 19.7614 75.0403 20.3967C74.9258 21.0382 74.8613 21.5053 74.8473 21.8049C74.7722 23.4372 75.233 25.1282 76.2114 26.8714C77.196 28.6142 78.3638 29.7787 79.7091 30.3573C80.0469 30.0533 80.3854 29.6867 80.7302 29.2583C80.9434 28.9973 81.138 28.7364 81.3263 28.4695L81.8471 27.7544H81.8472Z" fill="#FEFEFE"/>
<path d="M104.176 24.6658L102.362 24.2533C102.558 23.7619 102.697 23.3824 102.785 23.1148C102.874 22.8468 102.925 22.5601 102.932 22.2612C102.994 20.9461 102.498 20.022 101.459 19.4754C100.83 19.1485 99.9824 18.9644 98.916 18.9162L98.2489 18.8886L98.0231 22.241L97.9196 24.6651C97.8304 26.5533 97.7733 28.3296 97.7353 29.9811C97.697 31.6389 97.6985 32.767 97.7397 33.3655C97.7758 33.7148 97.7062 33.9698 97.5371 34.1251C97.368 34.2801 96.95 34.3408 96.2762 34.3129L94.1806 34.2172C93.6818 34.1962 93.3959 33.9522 93.3164 33.4906C93.2375 33.0228 93.2356 31.9072 93.3115 30.1438L93.5326 27.9508L93.6014 26.4175L93.7805 22.3544L94.0579 18.7032L93.4213 18.6759C92.3737 18.6277 91.5308 18.7237 90.8939 18.9703C89.7504 19.4208 89.1478 20.3093 89.0863 21.6495C89.079 21.8736 89.1401 22.2167 89.2631 22.6849C89.3854 23.1527 89.4716 23.4836 89.5268 23.6831L87.6423 23.937C87.3841 22.9764 87.1373 22.2395 86.9026 21.7213C86.6738 21.1968 86.2837 20.5033 85.7385 19.6351C85.5525 19.3285 85.4225 19.0977 85.3484 18.9475C85.2125 18.6416 85.1513 18.3236 85.165 18.006C85.1789 17.6567 85.305 17.3644 85.5367 17.1223C85.7747 16.8863 86.0185 16.7756 86.2679 16.7825C86.4425 16.7892 86.6982 16.8282 87.0474 16.8919C87.3963 16.9556 87.8143 17.0255 88.3127 17.0961C88.8299 17.2231 89.522 17.3133 90.3947 17.3788C91.2618 17.4388 92.0977 17.4921 92.896 17.5267L99.5068 17.8215L100.667 17.8701L101.116 17.8907C102.133 17.9386 103.125 17.9051 104.073 17.7969C104.579 17.7682 104.997 17.7384 105.334 17.7023C105.671 17.6662 105.939 17.6548 106.139 17.6622C106.388 17.6754 106.619 17.8076 106.836 18.07C107.046 18.3266 107.145 18.6262 107.131 18.9751C107.117 19.2994 107.041 19.5916 106.903 19.8592C106.69 20.1761 106.539 20.4065 106.458 20.549C105.956 21.2266 105.529 21.8854 105.17 22.5258C104.818 23.1725 104.485 23.888 104.176 24.6658V24.6658Z" fill="#FEFEFE"/>
<path d="M118.875 26.7994L113.081 26.47C113.054 26.9683 113.052 27.3798 113.064 27.7041C113.113 29.3563 113.134 30.2165 113.134 30.2912C113.113 30.6899 113.149 31.2258 113.233 31.8872C113.312 32.5541 113.34 33.1842 113.313 33.7823C113.299 34.1809 113.186 34.4486 112.985 34.5785C112.779 34.7022 112.242 34.7504 111.375 34.7092L109.741 34.64C109.174 34.6127 108.845 34.0628 108.756 32.9844C108.667 31.9055 108.715 29.2882 108.901 25.1254C109.046 21.8349 109.216 19.8347 109.412 19.131C109.603 18.4276 109.966 18.0864 110.49 18.1133L111.537 18.1616L113.146 18.2303L113.52 18.2447C113.838 18.3084 113.993 18.4895 113.98 18.7887C113.959 19.3368 113.786 20.4705 113.467 22.1959C113.294 23.1551 113.184 24.0955 113.143 25.012L118.937 25.3782C119.074 22.3122 119.276 20.3375 119.535 19.4472C119.712 18.831 120.076 18.5396 120.624 18.5605L121.666 18.6084L122.264 18.636C122.439 18.6426 122.614 18.6496 122.789 18.6566C123.013 18.6636 123.169 18.6709 123.269 18.6772L123.68 18.6979C124.004 18.7612 124.153 18.943 124.146 19.2419C124.139 19.3917 124.076 19.6468 123.962 20.0141C123.848 20.3877 123.759 20.8051 123.689 21.278C123.465 22.5114 123.309 23.9756 123.24 25.6643C123.151 27.6334 123.138 29.2227 123.207 30.4509C123.277 31.6729 123.353 32.9325 123.442 34.2354C123.421 34.7091 123.276 34.9889 123.014 35.0751C122.745 35.1612 122.252 35.1902 121.529 35.1623L119.888 35.0868C119.246 35.0595 118.873 34.6216 118.771 33.786C118.669 32.9443 118.703 30.6129 118.875 26.7994V26.7994Z" fill="#FEFEFE"/>
<path d="M131.761 25.9361L137.907 22.5767C137.975 21.0938 138.079 20.1777 138.218 19.842C138.362 19.4997 138.706 19.3392 139.261 19.3664L142.405 19.5037C142.71 19.5174 142.853 19.6988 142.839 20.0477L142.627 21.4931C142.418 22.4582 142.265 23.2429 142.181 23.8473C142.091 24.4575 142.025 25.3052 141.977 26.4017C141.84 29.4305 141.897 32.2919 142.141 34.9663C142.171 35.3156 142.114 35.5706 141.957 35.7259C141.8 35.8813 141.37 35.9417 140.671 35.9078L138.576 35.818C138.052 35.7973 137.737 35.1168 137.63 33.7889C137.53 32.4543 137.593 29.2071 137.82 24.035L131.705 27.3756C131.664 28.3664 131.653 29.3639 131.687 30.361C131.714 31.3585 131.814 32.7428 131.975 34.5194C132.011 34.8687 131.954 35.1175 131.797 35.2728C131.641 35.4282 131.21 35.4948 130.512 35.4605L128.379 35.3649C128.104 35.3513 127.917 35.3193 127.817 35.2689C127.532 35.0808 127.396 34.6376 127.43 33.9397L127.377 31.6957C127.412 30.898 127.429 29.8821 127.421 28.6358C127.414 27.3888 127.424 26.4665 127.451 25.8683C127.589 22.7088 127.778 20.7526 128.005 20.0054C128.239 19.2586 128.59 18.892 129.058 18.913L132.183 19.0503C132.501 19.0642 132.656 19.2457 132.642 19.5946L132.399 21.0393C132.246 21.8803 132.112 22.6463 131.996 23.35C131.881 24.0542 131.803 24.9202 131.761 25.9361Z" fill="#FEFEFE"/>
<path d="M150.613 35.0514L156.002 35.2914L156.061 31.3961L156.142 27.0213C156.279 23.9052 156.468 21.9489 156.702 21.1645C156.936 20.3739 157.312 19.989 157.836 20.0162L159.289 20.0784L160.48 20.1328L160.892 20.1471C161.216 20.2108 161.365 20.3919 161.358 20.6912C161.344 20.9153 161.325 21.0772 161.293 21.177C161.085 21.8123 160.926 22.4284 160.824 23.0199C160.722 23.618 160.638 24.2972 160.579 25.0697C160.519 25.836 160.473 26.5214 160.452 27.1195C160.418 27.8114 160.39 28.4847 160.362 29.1325C160.329 29.7748 160.301 30.3975 160.28 30.996C160.17 33.4576 160.432 34.7922 161.068 34.9943C161.217 35.0513 161.43 35.0579 161.704 35.0219C162.004 34.9361 162.241 34.8809 162.416 34.8625C162.797 34.7834 163.084 34.7473 163.284 34.7543C163.602 34.7679 163.851 34.8747 164.012 35.0874C164.179 35.2939 164.254 35.4812 164.247 35.6557C164.24 35.9052 164.163 36.2288 164.018 36.6208C163.797 37.1626 163.608 37.6039 163.457 37.9462C163.3 38.2882 163.086 38.8545 162.802 39.6385C162.291 41.014 161.837 42.2589 161.433 43.3605L159.456 43.2773C159.771 42.3626 159.943 41.4969 159.984 40.6743C160.046 39.2536 159.751 38.2675 159.104 37.7165C158.222 36.9524 156.364 36.5085 153.533 36.3845L150.783 36.2608L147.077 36.2833C146.503 36.2561 146.181 35.8246 146.116 34.9825C146.05 34.147 146.125 31.3493 146.337 26.5879C146.475 23.4222 146.696 21.3787 146.987 20.47C147.189 19.8534 147.527 19.5561 148.001 19.5767L149.46 19.6452L150.733 19.7003L151.069 19.7139C151.362 19.7772 151.505 19.9587 151.491 20.2579C151.477 20.6252 151.387 21.1675 151.235 21.8712C151.076 22.5749 150.948 23.3036 150.858 24.0574C150.761 24.8109 150.689 25.6895 150.647 26.6803C150.6 27.7275 150.583 28.6248 150.599 29.3727C150.657 32.0158 150.662 33.9106 150.613 35.0513L150.613 35.0514Z" fill="#FEFEFE"/>
<path d="M173.273 20.6666L176.897 20.8248C177.147 20.8384 177.296 20.9076 177.339 21.0324C177.326 21.3067 177.324 21.5249 177.33 21.6869C177.336 21.8488 177.384 22.1797 177.488 22.6847L177.96 24.7621L178.174 25.8166C178.828 29.0354 179.441 31.6306 180.001 33.5961C180.37 34.8071 180.746 36.0114 181.115 37.1973C181.108 37.3968 180.864 37.483 180.39 37.4623L176.767 37.3044C176.592 37.297 176.48 37.141 176.432 36.8414C176.383 36.5359 176.353 36.2742 176.335 36.0493C176.206 35.619 176.095 35.2256 176.016 34.87L175.666 33.4725L175.286 31.8441C174.686 33.5619 173.976 34.8682 173.167 35.756C172.115 36.911 170.865 37.4542 169.424 37.3924C168.077 37.3305 167.094 36.7409 166.468 35.6161C165.979 34.7478 165.765 33.7371 165.813 32.5969C165.868 31.4253 166.504 30.0564 167.72 28.491C168.141 27.9378 169.099 26.8826 170.59 25.3305C170.722 25.1873 171.261 24.6473 172.2 23.7227C172.62 23.3127 172.833 22.9895 172.841 22.7407C172.847 22.5909 172.836 22.4223 172.812 22.2354C172.781 22.0421 172.726 21.8171 172.652 21.5555C172.578 21.2872 172.542 21.0436 172.556 20.8194C172.562 20.695 172.799 20.646 173.273 20.6667V20.6666ZM173.427 24.1577C172.35 25.2255 171.453 26.3496 170.725 27.5245C169.996 28.7001 169.618 29.6832 169.583 30.4746C169.556 31.0727 169.697 31.6343 170.013 32.1591C170.329 32.6777 170.846 32.9601 171.57 32.9881C172.493 33.0293 173.273 32.7145 173.9 32.0506C174.426 31.4981 174.703 30.9007 174.731 30.2588C174.745 29.8599 174.691 29.4108 174.562 28.9058C174.439 28.4067 174.329 27.9882 174.242 27.6639L173.862 26.0794L173.427 24.1577V24.1577Z" fill="#FEFEFE"/>
<path d="M60.3123 55.325L60.3594 55.9238L61.7817 55.9857C62.0458 53.93 62.321 52.2483 62.6072 50.9402C62.8868 49.6324 63.2039 48.3873 63.558 47.2106C64.0586 45.4368 64.6067 44.0801 65.1968 43.1352C66.3019 41.388 67.6966 40.5525 69.393 40.628C69.8917 40.649 70.2844 40.7126 70.5836 40.8135C70.8764 40.9147 71.0189 41.1146 71.0053 41.4138C70.9921 41.638 70.9162 41.8809 70.7652 42.1481C70.6145 42.4157 70.4638 42.683 70.3003 42.9505C70.1614 43.3238 70.0789 43.7036 70.0586 44.1026L70.0443 44.5513L70.01 45.2992C69.9964 45.598 69.958 45.8223 69.9013 45.9717L69.0842 45.937C68.9616 45.3569 68.5266 45.0496 67.778 45.0157C66.7864 44.9679 65.9413 45.644 65.2617 47.0368C64.249 49.0832 63.6364 52.5218 63.4165 57.3509C63.3133 59.7127 63.3122 61.4209 63.4143 62.4747C63.6416 64.7501 63.7488 65.9662 63.7425 66.116C63.7285 66.3652 63.5281 66.5574 63.1347 66.6869C62.7413 66.822 61.9239 66.8561 60.6766 66.8013C60.2522 66.7873 60.0541 66.4996 60.0751 65.9511C60.1366 64.6051 60.2095 63.6083 60.3056 62.9476C60.3958 62.2877 60.6445 60.9484 61.0645 58.9181L61.3651 57.1683L59.3069 57.0784C58.309 57.031 57.6353 57.0155 57.2798 57.0269C56.9302 57.038 56.6182 57.049 56.3438 57.0604C56.0944 57.0468 55.9765 56.915 55.9835 56.6662C56.0155 56.498 56.0351 56.3732 56.0413 56.2985L56.0759 55.5134C56.1515 53.8181 55.9794 51.6613 55.5724 49.0351C55.1653 46.4097 54.657 44.1387 54.0411 42.2104C53.8871 41.705 53.8009 41.3616 53.7707 41.1746C53.7405 40.9814 53.7283 40.8128 53.7353 40.663C53.7423 40.4889 53.9176 40.3774 54.2543 40.3351C54.5977 40.2869 55.0659 40.2758 55.6645 40.3034C56.3817 40.3314 56.868 40.377 57.1174 40.4403C57.4666 40.479 57.7524 40.655 57.9886 40.9674C58.1562 41.1739 58.3669 41.5302 58.6203 42.0422C59.0782 42.9602 59.4992 45.237 59.8897 48.8724C60.2194 52.0525 60.3606 54.2035 60.3123 55.325V55.325Z" fill="#FEFEFE"/>
<path d="M82.6723 52.1729L83.7848 53.1563C82.942 54.7795 81.9194 56.1653 80.717 57.3012C79.5212 58.4425 78.558 59.0001 77.8345 58.9659C76.7121 58.9173 75.4691 57.7219 74.1003 55.385C72.7314 53.0485 72.0912 50.9141 72.1741 48.9762C72.2636 46.9632 73.0766 44.9348 74.6197 42.8902C76.0752 40.964 77.314 40.0218 78.3366 40.0696C78.8357 40.0906 79.8944 40.5437 81.5189 41.4293C83.1372 42.3082 83.9325 43.0411 83.9115 43.6145C83.8979 43.8074 83.5406 44.2546 82.8392 44.9499C82.3191 45.4464 81.8995 45.9433 81.5731 46.428C81.3907 46.7203 81.2592 46.8631 81.184 46.8569C81.1092 46.8565 80.8614 46.5561 80.4396 45.9624C80.0115 45.3742 79.5831 44.8928 79.1543 44.5233C78.4334 43.9156 77.518 43.4633 76.4088 43.1659C76.1639 43.626 75.9805 44.1799 75.8655 44.8152C75.7509 45.4567 75.6864 45.9238 75.6725 46.2231C75.5973 47.8558 76.0581 49.5467 77.0365 51.2895C78.0211 53.0326 79.1889 54.1968 80.5342 54.7758C80.872 54.4718 81.2106 54.1052 81.5554 53.6767C81.7686 53.4158 81.9631 53.1549 82.1514 52.888L82.6723 52.1729V52.1729Z" fill="#FEFEFE"/>
<path d="M97.9013 43.2151L92.5253 42.9811C92.0796 45.1107 91.8225 47.0295 91.7466 48.7244C91.6777 50.3009 91.6656 51.7657 91.7223 53.1187C91.7728 54.4776 91.842 55.8553 91.9301 57.2581C91.9094 57.6629 91.8335 57.9372 91.6895 58.0925C91.5454 58.2537 91.1333 58.3144 90.4599 58.2868L88.4018 58.1911C87.7778 58.1631 87.4116 57.6883 87.3033 56.7527C87.195 55.8237 87.237 53.1251 87.4367 48.6508C87.5807 45.4785 87.7571 43.5162 87.9785 42.7628C88.2003 42.0097 88.582 41.6431 89.1308 41.6645L100.457 42.1658L101.13 42.2001L101.654 42.2207C102.229 42.248 102.508 42.4485 102.488 42.8166C102.481 42.9661 102.462 43.1154 102.436 43.2649C102.316 43.7073 102.227 44.1055 102.163 44.4482C101.965 45.6375 101.837 46.4225 101.785 46.809C101.728 47.1885 101.674 47.9924 101.626 49.2077C101.55 50.853 101.514 52.143 101.522 53.0905C101.531 54.0379 101.618 55.6026 101.79 57.7786C101.826 58.1276 101.763 58.383 101.606 58.5383C101.449 58.6936 101.025 58.754 100.326 58.7202L98.2745 58.6303C97.6321 58.6031 97.26 58.1092 97.1642 57.1551C97.0681 56.2007 97.123 53.5087 97.3156 49.0903C97.3779 47.6884 97.4379 46.6662 97.4906 46.0181C97.5429 45.364 97.6781 44.4361 97.9013 43.2152V43.2151Z" fill="#FEFEFE"/>
<g filter="url(#filter0_d_476_180)">
<path d="M120.802 44.6028L121.653 45.7159C121.064 46.0873 120.483 46.3714 119.909 46.5687C119.34 46.7656 118.803 46.8506 118.305 46.83C117.762 46.809 117.238 46.6199 116.741 46.2628C116.244 45.9051 115.783 45.4671 115.355 44.9418C114.934 44.4166 114.66 44.0912 114.536 43.9598C114.201 43.6529 113.864 43.4894 113.515 43.4696C112.417 43.4214 111.616 44.2782 111.115 46.0273C110.761 47.2353 110.543 48.7738 110.46 50.6436C111.029 50.2406 111.78 49.8512 112.723 49.4688C113.817 49.0182 114.659 48.8036 115.258 48.8309C115.707 48.8515 116.163 48.959 116.63 49.1481C117.097 49.3369 117.55 49.5755 117.986 49.8641C118.422 50.1526 118.739 50.2972 118.939 50.3042C119.163 50.3178 119.388 50.2752 119.619 50.1887C119.85 50.1025 120.076 49.9788 120.307 49.8176L120.977 50.7679C120.557 51.2211 120.212 51.556 119.943 51.7794C119.668 51.9966 119.324 52.2505 118.899 52.5229C118.473 52.8019 118.142 52.9874 117.898 53.0739C117.661 53.16 117.386 53.1965 117.087 53.1825C116.688 53.1682 116.413 53.1174 116.252 53.0357C116.096 52.954 115.835 52.7784 115.467 52.5152C115.107 52.2458 114.746 52.0073 114.379 51.7876C113.844 51.4677 113.339 51.2972 112.865 51.2767C112.341 51.2494 111.829 51.3657 111.317 51.6193C111.061 51.7551 110.767 51.9536 110.429 52.2142C110.347 54.0089 110.708 55.5374 111.514 56.7932C112.32 58.0557 113.508 58.7212 115.08 58.79C115.754 58.8176 116.459 58.7212 117.19 58.4996C117.927 58.2718 118.777 57.839 119.759 57.2011L120.361 57.9641C119.603 58.7216 118.677 59.3286 117.583 59.7916C116.49 60.248 115.254 60.4489 113.888 60.3871C111.742 60.2906 109.924 59.6973 108.418 58.613C106.291 57.0524 105.297 54.7171 105.434 51.6139L105.489 50.4235C105.572 48.4853 106.241 46.699 107.489 45.0652C109.025 43.0459 111.013 42.0879 113.458 42.198C114.556 42.2462 115.64 42.5181 116.717 43.0092C117.253 43.2543 117.925 43.6437 118.727 44.1767C119.231 44.5963 119.66 44.8101 120.009 44.8237C120.278 44.8377 120.546 44.7638 120.802 44.6029V44.6028Z" fill="#FEFEFE"/>
</g>
<path d="M123.61 43.0563L125.925 43.1591C126.124 43.1723 126.299 43.1671 126.436 43.1487C126.573 43.1306 126.704 43.1063 126.829 43.0879C127.004 43.0949 127.153 43.1641 127.271 43.2956C127.39 43.4269 127.495 43.6519 127.593 43.964C127.691 44.2824 127.796 44.607 127.907 44.9312C128.351 46.2482 128.672 47.1784 128.869 47.7275C129.072 48.2704 129.362 49.026 129.745 49.9937L130.313 51.4792C131.437 48.118 132.394 45.8846 133.179 44.7848C133.963 43.6909 134.914 43.165 136.036 43.2132C136.535 43.2401 137.058 43.392 137.606 43.6809C138.16 43.9636 138.427 44.2205 138.42 44.4451C138.4 44.8187 138.299 45.0612 138.124 45.179C137.711 45.4893 137.477 46.2233 137.423 47.3952C137.388 48.1677 137.38 48.6602 137.398 48.8597L136.704 49.2373C136.35 48.824 136.026 48.5487 135.734 48.4102C135.441 48.2718 135.167 48.1961 134.918 48.1887C134.219 48.1545 133.625 48.5012 133.129 49.2285C132.633 49.9559 131.979 51.3618 131.166 53.4403C131.338 53.9707 131.529 54.5136 131.727 55.0565C131.93 55.5997 132.14 56.143 132.369 56.6738C132.863 57.916 133.344 59.1086 133.82 60.251C134.295 61.3939 134.666 62.2864 134.938 62.9232C135.389 63.96 135.685 64.6344 135.822 64.9402C136.162 65.7268 136.527 66.4703 136.923 67.1575C137.227 67.6698 137.368 68.0879 137.354 68.4118C137.34 68.7357 137.171 68.891 136.847 68.8771L133.561 68.7328C133.211 68.7129 132.906 68.4869 132.652 68.0559C132.51 67.8001 132.343 67.4 132.139 66.8696C132.035 66.464 131.831 65.9212 131.541 65.2343C131.356 64.8221 131.189 64.4286 131.035 64.048L129.546 60.3516L128.609 57.8737C127.055 62.4484 125.776 65.4909 124.759 66.9951C124.169 67.8649 123.525 68.2863 122.833 68.2587C122.359 68.2315 122.029 68.1369 121.848 67.9679C121.668 67.7986 121.588 67.5991 121.595 67.3746C121.602 67.1751 121.684 66.9572 121.829 66.715C121.979 66.4724 122.174 66.1931 122.412 65.8758C123.309 64.745 124.308 63.1038 125.402 60.958C126.496 58.8122 127.252 56.9829 127.664 55.4823L126.726 53.0045L125.812 50.8314L124.762 48.2777L123.922 46.1797C123.243 44.6254 122.903 43.8138 122.903 43.7387C122.93 43.265 123.162 43.0416 123.611 43.0563H123.61Z" fill="#FEFEFE"/>
<path d="M147.209 44.0358L150.833 44.1944C151.082 44.2076 151.231 44.2769 151.275 44.4016C151.261 44.6759 151.26 44.8941 151.266 45.0561C151.271 45.218 151.32 45.5489 151.424 46.0539L151.895 48.1313L152.109 49.1858C152.763 52.4046 153.376 55.0002 153.936 56.9657C154.306 58.1763 154.681 59.3809 155.051 60.5665C155.044 60.766 154.8 60.8522 154.326 60.8315L150.702 60.6736C150.527 60.6662 150.416 60.5101 150.367 60.2109C150.319 59.9054 150.288 59.6433 150.27 59.4188C150.141 58.9882 150.03 58.5951 149.951 58.2391L149.601 56.8416L149.221 55.2137C148.622 56.9315 147.911 58.2373 147.103 59.1255C146.05 60.2801 144.8 60.8234 143.36 60.7616C142.012 60.7001 141.029 60.11 140.404 58.9856C139.915 58.1169 139.701 57.1063 139.749 55.966C139.804 54.7944 140.439 53.426 141.656 51.8602C142.076 51.3074 143.035 50.2517 144.526 48.6996C144.657 48.5568 145.196 48.0168 146.136 47.0918C146.555 46.6822 146.769 46.359 146.776 46.1098C146.783 45.96 146.771 45.7919 146.747 45.6049C146.717 45.4113 146.661 45.1867 146.587 44.9251C146.514 44.6564 146.477 44.4131 146.491 44.189C146.497 44.0642 146.735 44.0152 147.209 44.0358V44.0358ZM147.363 47.527C146.286 48.5947 145.389 49.7188 144.661 50.894C143.932 52.0693 143.554 53.0523 143.519 53.8437C143.492 54.4418 143.633 55.0036 143.949 55.5284C144.265 56.0474 144.782 56.3297 145.505 56.3577C146.428 56.3985 147.209 56.0838 147.835 55.4198C148.362 54.8673 148.639 54.2699 148.666 53.6283C148.68 53.229 148.626 52.7804 148.497 52.275C148.375 51.7759 148.264 51.3574 148.178 51.0335L147.798 49.4485L147.363 47.5269L147.363 47.527Z" fill="#FEFEFE"/>
<defs>
<filter id="filter0_d_476_180" x="101.422" y="42.1895" width="24.2305" height="26.2085" filterUnits="userSpaceOnUse" color-interpolation-filters="sRGB">
<feFlood flood-opacity="0" result="BackgroundImageFix"/>
<feColorMatrix in="SourceAlpha" type="matrix" values="0 0 0 0 0 0 0 0 0 0 0 0 0 0 0 0 0 0 127 0" result="hardAlpha"/>
<feOffset dy="4"/>
<feGaussianBlur stdDeviation="2"/>
<feComposite in2="hardAlpha" operator="out"/>
<feColorMatrix type="matrix" values="0 0 0 0 0 0 0 0 0 0 0 0 0 0 0 0 0 0 0.25 0"/>
<feBlend mode="normal" in2="BackgroundImageFix" result="effect1_dropShadow_476_180"/>
<feBlend mode="normal" in="SourceGraphic" in2="effect1_dropShadow_476_180" result="shape"/>
</filter>
<linearGradient id="paint0_linear_476_180" x1="102.139" y1="76.4929" x2="102.139" y2="3.32214" gradientUnits="userSpaceOnUse">
<stop stop-color="#95481F"/>
<stop offset="1" stop-color="#D7743C"/>
</linearGradient>
</defs>
</svg>
