<svg width="100%" height="100%" viewBox="0 0 263 97" fill="none" xmlns="http://www.w3.org/2000/svg">
<path fill-rule="evenodd" clip-rule="evenodd" d="M1.07357 82.5903L0 4.17188L256.481 10.1424L252.738 96.0423L1.07357 82.5903Z" fill="url(#paint0_linear_474_32)"/>
<path fill-rule="evenodd" clip-rule="evenodd" d="M0.836914 4.3095L257.318 10.28L262.411 7.27637L8.27178 0L0.836914 4.3095Z" fill="#AE7255"/>
<path fill-rule="evenodd" clip-rule="evenodd" d="M256.482 10.1419L261.287 7.23633L256.343 90.6397L252.738 96.0418L256.482 10.1419Z" fill="#633221"/>
<path fill-rule="evenodd" clip-rule="evenodd" d="M36.416 84.4792L18.4639 83.5198L39.8994 5.10059H58.1478L36.416 84.4792Z" fill="#FFC552" fill-opacity="0.14902"/>
<path fill-rule="evenodd" clip-rule="evenodd" d="M61.2632 85.8068L50.1689 85.2139L69.8565 5.79736L82.9919 6.10322L61.2632 85.8068Z" fill="#FFC552" fill-opacity="0.14902"/>
<path fill-rule="evenodd" clip-rule="evenodd" d="M154.732 90.8032L197.639 93.0966L212.994 9.12958L173.338 8.20654L154.732 90.8032Z" fill="#FFC552" fill-opacity="0.14902"/>
<path fill-rule="evenodd" clip-rule="evenodd" d="M218.45 94.2094L203.267 93.3976L217.416 9.23291L234.487 9.63018L218.45 94.2094Z" fill="#FFC552" fill-opacity="0.14902"/>
<path d="M0.322266 17.2547C39.1895 15.0363 43.0866 7.15517 83.1513 18.5399C104.054 24.4791 118.611 28.934 131.232 30.3848C160.846 33.7892 177.61 26.3976 220.841 24.1409C225.614 23.8916 240.503 23.2783 254.793 27.5769" stroke="#91441B" stroke-width="0.755904" stroke-miterlimit="22.9256"/>
<path d="M252.776 19.6294C244.139 16.2169 241.409 15.702 233.541 14.6191" stroke="#91441B" stroke-width="0.755904" stroke-miterlimit="22.9256"/>
<path d="M181.195 13.3644C180.421 12.9862 100.099 23.6494 77.9453 7.58838" stroke="#91441B" stroke-width="0.755904" stroke-miterlimit="22.9256"/>
<path d="M96.4541 11.3335C105.045 14.3621 137.596 14.6477 146.117 12.5238" stroke="#91441B" stroke-width="0.755904" stroke-miterlimit="22.9256"/>
<path d="M13.1279 26.3373C34.7652 25.4884 68.3095 35.1524 97.9841 37.5771C119.941 39.3709 145.003 36.072 158.774 38.2193C191.706 43.3546 221.811 51.4342 254.819 48.2708" stroke="#91441B" stroke-width="0.755904" stroke-miterlimit="22.9256"/>
<path d="M0.432617 35.7309C11.2806 32.3379 36.4032 35.7305 61.8238 41.1467C95.5686 48.3364 138.17 42.7941 162.885 45.8336C200.228 50.4259 242.354 59.4106 254.534 54.8362" stroke="#91441B" stroke-width="0.755904" stroke-miterlimit="22.9256"/>
<path d="M0.873047 67.9057C42.4031 70.9456 69.468 57.5581 104.272 57.5581C128.975 57.5581 144.399 58.1441 168.721 60.6883C208.054 64.8025 226.536 67.3764 254.295 60.3137" stroke="#91441B" stroke-width="0.755904" stroke-miterlimit="22.9256"/>
<path d="M1.03125 79.4538C30.9021 84.1848 60.4668 79.7753 80.8792 77.3682C118.185 72.9692 151.067 69.3203 189.678 82.0742C228.984 95.0578 252.39 88.8365 253.029 89.3748" stroke="#91441B" stroke-width="0.755904" stroke-miterlimit="22.9256"/>
<path d="M89.6543 87.3248C114.651 84.5611 141.474 82.4649 166.678 84.7115C183.895 86.2475 200.977 89.5022 212.948 93.9153" stroke="#91441B" stroke-width="0.755904" stroke-miterlimit="22.9256"/>
<path d="M0.174805 9.02639C16.7945 7.04976 49.2281 5.16963 64.8617 10.5764" stroke="#91441B" stroke-width="0.755904" stroke-miterlimit="22.9256"/>
<path d="M0.223633 11.7649C3.37399 11.8204 11.4137 9.34766 13.5913 9.34766" stroke="#91441B" stroke-width="0.755904" stroke-miterlimit="22.9256"/>
<path d="M0.683594 45.5835C35.5231 34.2097 38.9073 60.6098 22.2129 60.2379C16.5898 60.1129 4.50639 57.2417 0.85248 57.9237" stroke="#91441B" stroke-width="0.755904" stroke-miterlimit="22.9256"/>
<path fill-rule="evenodd" clip-rule="evenodd" d="M210.015 28.9208C202.128 30.7557 195.938 31.9948 195.74 35.0187C195.542 38.0426 201.622 39.5661 208.877 39.5661C216.132 39.5661 221.704 38.0469 222.014 35.0187C222.324 31.9905 217.902 27.086 210.015 28.9208H210.015Z" stroke="#91441B" stroke-width="0.755904" stroke-miterlimit="22.9256"/>
<path fill-rule="evenodd" clip-rule="evenodd" d="M0.739508 64.012L0.677734 60.5654L37.397 65.0495L0.739508 64.012Z" fill="#4C221A"/>
<path fill-rule="evenodd" clip-rule="evenodd" d="M256.241 22.6774L256.4 19.0894L236.005 20.089L256.241 22.6774Z" fill="#633221"/>
<path fill-rule="evenodd" clip-rule="evenodd" d="M255.9 30.0781L256.039 26.9761L243.591 28.0128L255.9 30.0781Z" fill="#633221"/>
<path fill-rule="evenodd" clip-rule="evenodd" d="M0.311745 26.907L0.273438 24.1304L20.1564 26.6355L0.311745 26.907Z" fill="#633221"/>
<path d="M30.4097 55.6321L33.6594 55.6986C32.5471 52.0836 31.5232 48.0233 30.6048 43.5095C30.1283 41.161 29.6005 38.1929 29.0125 34.587L28.2595 30.4404C27.7254 31.024 27.2352 31.6427 26.8059 32.3142C26.368 32.9853 25.8778 33.8229 25.3343 34.8167C23.9155 37.223 22.8901 39.4207 22.2575 41.4098C21.6253 43.3986 21.2903 45.1615 21.2531 46.6975C21.2058 48.8878 21.2817 50.2671 21.4818 50.8261C21.682 51.3847 21.9959 51.6734 22.4154 51.6828C22.9041 51.6926 23.2271 51.8676 23.4014 52.2254C23.6974 52.8981 23.826 54.4344 23.7779 56.8435C23.7681 57.367 23.5672 57.7068 23.1735 57.8549C22.7892 58.0025 22.3869 58.0713 21.9678 58.0623C21.6887 58.0529 21.3739 58.0263 21.0248 57.9646C20.6753 57.9119 20.3958 57.8673 20.1862 57.8236C19.9767 57.788 19.7237 57.7704 19.4266 57.7615C19.1295 57.7521 18.9109 57.7513 18.7713 57.7517C18.1427 57.7329 17.6532 57.7669 17.3037 57.8451C16.9542 57.9142 16.6574 57.9486 16.4123 57.9482C15.9236 57.9384 15.5131 57.8068 15.1901 57.5533C14.8586 57.2997 14.6674 56.8282 14.6162 56.1212L14.6541 54.3407C14.692 52.4906 15.0271 50.6667 15.6589 48.8784C16.2907 47.099 17.6055 44.3521 19.6033 40.6547L23.0383 34.3764C24.2733 32.1966 24.9825 30.9235 25.1667 30.5395C26.1839 28.4989 26.7012 27.0598 26.7199 26.2219C26.7297 25.6636 26.6081 25.305 26.3466 25.1656C26.0932 25.0164 25.6651 24.9371 25.0717 24.9273L21.6563 24.8519L21.7032 22.7573L38.0985 23.0987L38.0515 25.1937L35.029 25.1359C35.5283 29.431 36.2895 34.0842 37.3032 39.0957C38.1872 43.4349 39.2627 47.8878 40.5306 52.4461C40.6608 52.9 40.8082 53.4852 40.9904 54.2013C41.1644 54.9259 41.3031 55.4759 41.3982 55.8603L45.0059 55.9357L44.959 58.0307L30.3629 57.7268L30.4099 55.6322L30.4097 55.6321Z" fill="#FEFEFE"/>
<path d="M56.8202 55.7026L56.9063 56.5495L58.8978 56.5874C59.1996 53.6904 59.5268 51.3255 59.8795 49.4848C60.2318 47.6348 60.6364 45.8812 61.0934 44.2151C61.7354 41.7111 62.4547 39.7923 63.2519 38.4493C64.7407 35.9644 66.6646 34.7461 69.0405 34.7933C69.7391 34.8121 70.2982 34.8828 70.7173 35.0144C71.1274 35.1461 71.3366 35.4168 71.3276 35.836C71.3178 36.15 71.2126 36.4989 71.0199 36.8825C70.8185 37.2575 70.6082 37.6415 70.3892 38.0161C70.2047 38.5396 70.1078 39.0806 70.098 39.6392L70.0796 40.2674L70.0604 41.315C70.051 41.7334 70.0069 42.0479 69.9365 42.2483L68.7835 42.2292C68.5928 41.426 67.9731 41.0057 66.9253 40.9866C65.5273 40.9584 64.3818 41.9249 63.4611 43.896C62.1111 46.809 61.3694 51.6431 61.2271 58.4156C61.1603 61.7321 61.2087 64.1236 61.3898 65.599C61.778 68.7855 61.9672 70.4789 61.9668 70.6883C61.957 71.0371 61.6775 71.316 61.1356 71.507C60.5938 71.707 59.4404 71.7926 57.6932 71.7547C57.0997 71.7449 56.812 71.3516 56.8304 70.5839C56.8687 68.6987 56.941 67.2932 57.0474 66.3682C57.1537 65.4436 57.4626 63.5587 57.9825 60.7055L58.3446 58.2539L55.4624 58.1879C54.0647 58.1594 53.1213 58.1578 52.6322 58.1832C52.1428 58.2086 51.6974 58.234 51.3131 58.2593C50.9636 58.259 50.7978 58.0753 50.7982 57.7265C50.8424 57.482 50.8604 57.3077 50.8694 57.2027L50.8885 56.1031C50.9362 53.7382 50.6352 50.7177 49.9776 47.0594C49.3196 43.4015 48.5303 40.2319 47.6084 37.5595C47.3824 36.8611 47.2436 36.372 47.1916 36.1099C47.1486 35.8481 47.1224 35.6126 47.1318 35.4028C47.1326 35.1587 47.3769 35.002 47.8488 34.9243C48.3207 34.8465 48.976 34.8126 49.8146 34.8313C50.8275 34.8508 51.509 34.904 51.8581 34.9833C52.3386 35.0274 52.7573 35.2552 53.0974 35.6837C53.3328 35.9716 53.6377 36.4614 54.0119 37.1685C54.6824 38.4443 55.3502 41.6136 56.0144 46.6856C56.5832 51.1287 56.8491 54.1319 56.8202 55.7026L56.8202 55.7026Z" fill="#FEFEFE"/>
<path d="M79.7782 46.1343L80.1887 46.1437C82.5098 42.1065 84.7074 39.1861 86.7631 37.3743C88.434 35.9106 90.0249 35.1887 91.5273 35.2176C92.0864 35.236 92.5841 35.3243 93.038 35.4907C93.4918 35.6571 93.71 35.8411 93.71 36.0505C93.7006 36.3997 93.5513 36.7661 93.2624 37.1407C92.5442 38.1083 92.1665 39.4431 92.129 41.1537L92.0574 42.2006L90.7997 42.1729C90.3383 41.151 89.5791 40.6256 88.5309 40.6065C87.6923 40.5877 86.7133 41.0311 85.5936 41.937C84.4829 42.8343 83.5204 43.9237 82.7318 45.1969L81.6551 46.6438C85.0166 47.6618 87.7044 49.1673 89.7276 51.1779C92.2216 53.6432 93.4406 56.089 93.3929 58.5066C93.3835 58.9258 92.964 59.1258 92.1254 59.1066L91.4964 59.0972L89.7234 58.8586C89.0247 58.8488 88.4571 58.8652 88.0199 58.9258C87.5833 58.9859 87.3127 59.0117 87.2075 59.0027C86.8932 59.0023 86.6664 58.8535 86.5359 58.5742C86.3963 58.2945 86.2751 57.7183 86.1453 56.8367C85.8435 54.6714 85.1394 52.7764 84.015 51.1685C82.8996 49.5607 81.4687 48.4591 79.7398 47.8626C79.6929 50.0615 79.6984 51.8685 79.7574 53.2823C79.8161 54.6964 79.9189 56.023 80.0655 57.2453C80.1257 57.7691 80.0816 58.1008 79.9416 58.2398C79.6526 58.5101 78.9188 58.6402 77.7311 58.6121L75.3725 58.564C74.4987 58.5457 73.9845 57.8984 73.8383 56.6237C73.6921 55.3409 73.6804 51.5701 73.8133 45.2866C73.9083 40.7478 74.0788 37.9642 74.3341 36.9258C74.58 35.8789 75.0878 35.3652 75.8565 35.3836L77.1662 35.5168L79.6824 35.4074C79.9619 35.382 80.1363 35.382 80.2063 35.4257C80.6254 35.5312 80.826 35.7847 80.8252 36.1687C80.8162 36.4828 80.7188 37.1289 80.5425 38.1231C80.3662 39.1091 80.2071 40.2001 80.0569 41.3779C79.9064 42.5646 79.8161 44.1444 79.7782 46.1343V46.1343Z" fill="#FEFEFE"/>
<path d="M96.4899 48.8226C96.5747 45.026 97.8297 41.5282 100.281 38.3379C102.399 35.5921 104.21 34.2424 105.712 34.271C107.389 34.3088 109.187 35.2632 111.105 37.1515C113.6 39.6082 114.818 42.665 114.742 46.3307C114.675 49.3242 113.535 52.4907 111.319 55.8209C109.095 59.1601 107.127 60.8062 105.415 60.7687C103.668 60.7394 101.757 59.4269 99.6824 56.8315C97.5028 54.1048 96.4421 51.4324 96.4898 48.8226L96.4899 48.8226ZM101.772 39.7371C101.264 40.3208 100.871 40.9833 100.572 41.7247C100.274 42.4666 100.124 43.138 100.114 43.7228C100.067 45.9483 100.718 48.1925 102.069 50.4465C103.759 53.2684 105.966 54.7037 108.691 54.7603C109.111 54.7697 109.426 54.7615 109.635 54.7271C109.924 54.1779 110.143 53.5931 110.302 52.9739C110.451 52.3458 110.54 51.7176 110.55 51.0977C110.607 48.3488 109.851 45.8944 108.291 43.7361C106.626 41.447 104.453 40.1079 101.772 39.7372L101.772 39.7371Z" fill="#FEFEFE"/>
<path d="M126.363 36.4439L130.241 36.5204C130.905 36.5388 131.298 36.6704 131.437 36.915C131.568 37.1599 131.689 37.9455 131.809 39.2549C131.92 40.5643 132.162 42.214 132.543 44.1961C132.915 46.1778 133.592 49.1986 134.554 53.276C134.828 51.5662 135.303 49.865 135.97 48.1641C136.338 47.1962 136.776 46.2282 137.285 45.2598C137.574 44.6758 137.881 44.0129 138.197 43.2628C138.503 42.5214 138.662 41.9194 138.671 41.4655C138.699 40.2788 138.657 39.292 138.553 38.5068C138.45 37.7119 138.398 37.1974 138.399 36.9529C138.408 36.7783 138.6 36.6997 138.985 36.7095L139.509 36.7189L143.588 36.8041C144.496 36.8232 144.985 37.0947 145.045 37.6185C145.386 42.725 145.921 46.6622 146.633 49.4385C147.241 51.7874 148.249 54.5558 149.65 57.7262C149.754 58.0055 149.841 58.268 149.92 58.5212C150.007 58.7653 150.041 59.0274 150.041 59.3067C150.032 59.586 149.978 59.7779 149.865 59.8825C149.76 59.9787 149.445 60.0302 148.921 60.0208L145.567 59.9454C144.388 59.9259 143.185 58.0997 141.969 54.4754C141.082 51.8733 140.449 49.2709 140.086 46.6786L139.714 44.6352C138.688 46.7372 137.82 48.9877 137.108 51.3604C136.397 53.7421 136.018 55.7836 135.98 57.4942L135.961 58.5419C135.996 58.7161 135.986 58.9606 135.942 59.2747C135.907 59.5888 135.758 59.7454 135.514 59.7364L131.696 59.6606C131.137 59.6419 130.788 59.5891 130.648 59.4751C130.273 59.1868 129.908 58.4707 129.543 57.309C128.987 55.3703 128.509 53.4585 128.093 51.5639C127.547 49.0755 126.967 46.0457 126.344 42.4664C124.944 44.1484 123.831 45.9969 122.981 48.0029C122.139 50.0092 121.699 51.937 121.652 53.7874C121.642 54.4855 121.728 55.2187 121.928 55.9957C122.023 56.4148 122.197 57 122.458 57.7336C122.562 58.0481 122.657 58.3535 122.754 58.6332C122.858 58.9125 122.901 59.0871 122.901 59.1567C122.901 59.3668 122.717 59.4711 122.376 59.4617L118.079 59.3758C117.764 59.3668 117.546 59.1481 117.433 58.7289C117.321 58.3098 117.278 57.7863 117.287 57.1578C117.325 55.412 117.905 53.3448 119.036 50.9553C119.807 49.3681 120.745 47.7286 121.866 46.0376C122.803 44.5903 123.451 43.5437 123.819 42.8898C124.686 41.3288 125.134 40.012 125.162 38.9299C125.127 38.7201 125.11 38.5455 125.119 38.4056C125.059 37.9869 125.024 37.69 125.033 37.5154C125.033 37.3759 125.069 37.2013 125.147 36.9919C125.218 36.7825 125.322 36.6431 125.445 36.556C125.568 36.4689 125.873 36.4345 126.363 36.4439H126.363Z" fill="#FEFEFE"/>
<path d="M152.926 49.9001C153.011 46.1035 154.266 42.6057 156.717 39.4154C158.836 36.6696 160.646 35.3199 162.148 35.3481C163.826 35.386 165.623 36.3407 167.542 38.2287C170.036 40.6854 171.254 43.7421 171.178 47.4079C171.112 50.4017 169.971 53.5678 167.755 56.8984C165.531 60.2372 163.563 61.8837 161.851 61.8458C160.104 61.8169 158.193 60.5044 156.119 57.9086C153.939 55.1823 152.878 52.5096 152.926 49.9001L152.926 49.9001ZM158.209 40.8142C157.701 41.3982 157.307 42.0608 157.008 42.8022C156.711 43.544 156.561 44.2155 156.551 44.7999C156.504 47.0258 157.155 49.27 158.505 51.524C160.195 54.3459 162.403 55.7808 165.128 55.8378C165.547 55.8472 165.862 55.8389 166.071 55.8046C166.361 55.2553 166.58 54.6706 166.738 54.0514C166.888 53.4233 166.976 52.7951 166.986 52.1752C167.043 49.4259 166.287 46.9719 164.727 44.8136C163.062 42.5245 160.89 41.1854 158.209 40.8143V40.8142Z" fill="#FEFEFE"/>
<path d="M180.252 57.0068L180.424 58.692C180.449 59.1456 180.508 60.3327 180.584 62.2445C180.668 64.1559 180.7 65.6395 180.682 66.6872C180.625 69.2092 180.325 70.9456 179.764 71.8964C179.212 72.8464 178.434 73.3163 177.43 73.2976C176.774 73.2788 176.399 73.1124 176.304 72.7979L176.313 72.4753C176.313 72.2308 176.323 71.8292 176.333 71.2885C176.342 70.7385 176.36 70.2494 176.361 69.8307L176.399 68.3471L176.427 67.038L176.446 65.9907C176.456 65.4321 176.448 64.8122 176.432 64.1141C176.415 63.4156 176.356 62.6129 176.27 61.705C176.031 58.3182 175.851 55.8564 175.749 54.32C175.638 52.7841 175.596 51.3524 175.625 50.0258C175.711 46.0545 177.035 42.5744 179.617 39.5938C181.805 37.0926 183.703 35.8652 185.309 35.8941C187.021 35.9316 188.836 37.4797 190.77 40.5465C192.931 44.006 193.973 47.6561 193.896 51.5226C193.83 54.4723 193.128 56.8712 191.779 58.7021C190.431 60.5327 188.744 61.4288 186.718 61.3901C185.46 61.3624 184.211 60.9327 182.989 60.0928C181.768 59.253 180.852 58.2299 180.252 57.0068V57.0068ZM181.956 40.488C181.168 41.6212 180.598 42.7728 180.265 43.9416C179.922 45.1194 179.736 46.5151 179.699 48.1472C179.642 50.9926 180.345 53.4724 181.8 55.5869C183.09 57.4221 184.399 58.3495 185.726 58.378C186.356 58.3959 186.906 58.1787 187.37 57.7346C188.078 57.0549 188.447 56.008 188.484 54.5856L188.522 52.7618C188.561 50.8156 187.962 48.58 186.716 46.0553C185.341 43.2517 183.754 41.3985 181.957 40.4879L181.956 40.488Z" fill="#FEFEFE"/>
<path d="M213.66 61.33L200.768 61.0644C200.174 61.0546 199.737 60.8792 199.467 60.5643C199.197 60.2413 199.067 59.7432 199.077 59.0713L199.219 52.4297C199.352 45.7533 199.542 41.6341 199.789 40.0805C200.028 38.5187 200.623 37.7429 201.566 37.7621L203.086 37.7992L203.925 37.8183C204.134 37.8187 204.361 37.8277 204.606 37.8285C204.955 37.8375 205.2 37.8379 205.34 37.8468L205.917 37.8566C206.152 37.9004 206.318 37.9883 206.405 38.1281C206.492 38.2676 206.527 38.425 206.527 38.5996C206.517 38.8789 206.42 39.4457 206.227 40.3008C206.042 41.1474 205.874 42.2294 205.741 43.538C205.617 44.8471 205.536 46.06 205.517 47.1776L205.488 48.2768C207.41 48.3151 209.253 48.5886 211.008 49.0979C212.763 49.6069 214.29 50.3948 215.598 51.4703C217.073 52.6863 218.127 54.1278 218.753 55.779C219.188 56.94 219.387 58.1537 219.359 59.4104C219.34 60.353 218.998 60.9546 218.325 61.2155C217.976 61.3546 217.364 61.4058 216.491 61.387L215.652 61.3768L214.813 61.3581L213.66 61.33V61.33ZM205.252 59.4831L210.964 59.5975L211.803 59.6162L211.84 58.0189C211.878 56.3868 211.575 55.0075 210.93 53.8891C209.885 52.0195 208.035 50.8992 205.389 50.5199C205.353 50.8078 205.318 51.1133 205.291 51.4539C205.264 51.7852 205.255 52.0731 205.246 52.3262L205.227 53.1727C205.208 54.3685 205.205 55.6951 205.229 57.144C205.244 58.5932 205.261 59.3698 205.252 59.4831V59.4831Z" fill="#FEFEFE"/>
<path d="M245.469 40.945L246.698 42.4833C245.876 43.0317 245.072 43.4493 244.286 43.7446C243.49 44.04 242.747 44.1872 242.049 44.1688C241.28 44.1587 240.547 43.9044 239.84 43.4141C239.133 42.9332 238.471 42.3211 237.86 41.5957C237.25 40.8617 236.857 40.4156 236.683 40.2324C236.204 39.8039 235.715 39.5847 235.226 39.5753C233.697 39.5464 232.603 40.7578 231.952 43.227C231.504 44.9282 231.247 47.092 231.191 49.7104C231.978 49.1268 233.018 48.5612 234.32 47.9873C235.833 47.3263 237.013 46.997 237.851 47.0158C238.48 47.0256 239.126 47.1662 239.781 47.4201C240.435 47.683 241.082 48.0072 241.701 48.41C242.32 48.8038 242.766 49.0049 243.045 49.0143C243.359 49.0147 243.674 48.9541 243.997 48.8236C244.313 48.6932 244.627 48.5108 244.951 48.2752L245.918 49.5862C245.349 50.2315 244.877 50.7104 244.501 51.0331C244.124 51.355 243.644 51.712 243.066 52.1128C242.481 52.5132 242.017 52.7827 241.685 52.9132C241.353 53.0437 240.968 53.1042 240.549 53.0948C239.999 53.085 239.606 53.0233 239.379 52.9183C239.152 52.8042 238.785 52.5683 238.271 52.2097C237.747 51.8507 237.232 51.5272 236.717 51.2378C235.958 50.8002 235.242 50.5811 234.578 50.5627C233.845 50.544 233.128 50.726 232.42 51.0913C232.07 51.3003 231.659 51.5874 231.196 51.962C231.148 54.4757 231.703 56.5977 232.871 58.3364C234.038 60.0665 235.723 60.9591 237.924 61.0068C238.867 61.0255 239.846 60.8701 240.869 60.5314C241.891 60.1927 243.072 59.5575 244.418 58.6258L245.29 59.6833C244.248 60.7638 242.972 61.6435 241.46 62.3213C239.947 62.9998 238.226 63.3201 236.305 63.2733C233.3 63.2159 230.733 62.4435 228.604 60.965C225.567 58.8477 224.105 55.5984 224.191 51.2347L224.229 49.5592C224.286 46.8537 225.155 44.3325 226.844 41.9965C228.937 39.1194 231.69 37.719 235.106 37.7944C236.643 37.8233 238.172 38.1659 239.699 38.8319C240.458 39.1561 241.41 39.6901 242.544 40.4077C243.268 40.9851 243.87 41.2738 244.359 41.2835C244.744 41.2929 245.111 41.18 245.469 40.9448L245.469 40.945Z" fill="#FEFEFE"/>
<path d="M30.4097 55.6321L33.6594 55.6986C32.5471 52.0836 31.5232 48.0233 30.6048 43.5095C30.1283 41.161 29.6005 38.1929 29.0125 34.587L28.2595 30.4404C27.7254 31.024 27.2352 31.6427 26.8059 32.3142C26.368 32.9853 25.8778 33.8229 25.3343 34.8167C23.9155 37.223 22.8901 39.4207 22.2575 41.4098C21.6253 43.3986 21.2903 45.1615 21.2531 46.6975C21.2058 48.8878 21.2817 50.2671 21.4818 50.8261C21.682 51.3847 21.9959 51.6734 22.4154 51.6828C22.9041 51.6926 23.2271 51.8676 23.4014 52.2254C23.6974 52.8981 23.826 54.4344 23.7779 56.8435C23.7681 57.367 23.5672 57.7068 23.1735 57.8549C22.7892 58.0025 22.3869 58.0713 21.9678 58.0623C21.6887 58.0529 21.3739 58.0263 21.0248 57.9646C20.6753 57.9119 20.3958 57.8673 20.1862 57.8236C19.9767 57.788 19.7237 57.7704 19.4266 57.7615C19.1295 57.7521 18.9109 57.7513 18.7713 57.7517C18.1427 57.7329 17.6532 57.7669 17.3037 57.8451C16.9542 57.9142 16.6574 57.9486 16.4123 57.9482C15.9236 57.9384 15.5131 57.8068 15.1901 57.5533C14.8586 57.2997 14.6674 56.8282 14.6162 56.1212L14.6541 54.3407C14.692 52.4906 15.0271 50.6667 15.6589 48.8784C16.2907 47.099 17.6055 44.3521 19.6033 40.6547L23.0383 34.3764C24.2733 32.1966 24.9825 30.9235 25.1667 30.5395C26.1839 28.4989 26.7012 27.0598 26.7199 26.2219C26.7297 25.6636 26.6081 25.305 26.3466 25.1656C26.0932 25.0164 25.6651 24.9371 25.0717 24.9273L21.6563 24.8519L21.7032 22.7573L38.0985 23.0987L38.0515 25.1937L35.029 25.1359C35.5283 29.431 36.2895 34.0842 37.3032 39.0957C38.1872 43.4349 39.2627 47.8878 40.5306 52.4461C40.6608 52.9 40.8082 53.4852 40.9904 54.2013C41.1644 54.9259 41.3031 55.4759 41.3982 55.8603L45.0059 55.9357L44.959 58.0307L30.3629 57.7268L30.4099 55.6322L30.4097 55.6321Z" stroke="#FEFEFE" stroke-width="0.287999" stroke-miterlimit="22.9256"/>
<path d="M56.8202 55.7026L56.9063 56.5495L58.8978 56.5874C59.1996 53.6904 59.5268 51.3255 59.8795 49.4848C60.2318 47.6348 60.6364 45.8812 61.0934 44.2151C61.7354 41.7111 62.4547 39.7923 63.2519 38.4493C64.7407 35.9644 66.6646 34.7461 69.0405 34.7933C69.7391 34.8121 70.2982 34.8828 70.7173 35.0144C71.1274 35.1461 71.3366 35.4168 71.3276 35.836C71.3178 36.15 71.2126 36.4989 71.0199 36.8825C70.8185 37.2575 70.6082 37.6415 70.3892 38.0161C70.2047 38.5396 70.1078 39.0806 70.098 39.6392L70.0796 40.2674L70.0604 41.315C70.051 41.7334 70.0069 42.0479 69.9365 42.2483L68.7835 42.2292C68.5928 41.426 67.9731 41.0057 66.9253 40.9866C65.5273 40.9584 64.3818 41.9249 63.4611 43.896C62.1111 46.809 61.3694 51.6431 61.2271 58.4156C61.1603 61.7321 61.2087 64.1236 61.3898 65.599C61.778 68.7855 61.9672 70.4789 61.9668 70.6883C61.957 71.0371 61.6775 71.316 61.1356 71.507C60.5938 71.707 59.4404 71.7926 57.6932 71.7547C57.0997 71.7449 56.812 71.3516 56.8304 70.5839C56.8687 68.6987 56.941 67.2932 57.0474 66.3682C57.1537 65.4436 57.4626 63.5587 57.9825 60.7055L58.3446 58.2539L55.4624 58.1879C54.0647 58.1594 53.1213 58.1578 52.6322 58.1832C52.1428 58.2086 51.6974 58.234 51.3131 58.2593C50.9636 58.259 50.7978 58.0753 50.7982 57.7265C50.8424 57.482 50.8604 57.3077 50.8694 57.2027L50.8885 56.1031C50.9362 53.7382 50.6352 50.7177 49.9776 47.0594C49.3196 43.4015 48.5303 40.2319 47.6084 37.5595C47.3824 36.8611 47.2436 36.372 47.1916 36.1099C47.1486 35.8481 47.1224 35.6126 47.1318 35.4028C47.1326 35.1587 47.3769 35.002 47.8488 34.9243C48.3207 34.8465 48.976 34.8126 49.8146 34.8313C50.8275 34.8508 51.509 34.904 51.8581 34.9833C52.3386 35.0274 52.7573 35.2552 53.0974 35.6837C53.3328 35.9716 53.6377 36.4614 54.0119 37.1685C54.6824 38.4443 55.3502 41.6136 56.0144 46.6856C56.5832 51.1287 56.8491 54.1319 56.8202 55.7026L56.8202 55.7026Z" stroke="#FEFEFE" stroke-width="0.287999" stroke-miterlimit="22.9256"/>
<path d="M79.7782 46.1343L80.1887 46.1437C82.5098 42.1065 84.7074 39.1861 86.7631 37.3743C88.434 35.9106 90.0249 35.1887 91.5273 35.2176C92.0864 35.236 92.5841 35.3243 93.038 35.4907C93.4918 35.6571 93.71 35.8411 93.71 36.0505C93.7006 36.3997 93.5513 36.7661 93.2624 37.1407C92.5442 38.1083 92.1665 39.4431 92.129 41.1537L92.0574 42.2006L90.7997 42.1729C90.3383 41.151 89.5791 40.6256 88.5309 40.6065C87.6923 40.5877 86.7133 41.0311 85.5936 41.937C84.4829 42.8343 83.5204 43.9237 82.7318 45.1969L81.6551 46.6438C85.0166 47.6618 87.7044 49.1673 89.7276 51.1779C92.2216 53.6432 93.4406 56.089 93.3929 58.5066C93.3835 58.9258 92.964 59.1258 92.1254 59.1066L91.4964 59.0972L89.7234 58.8586C89.0247 58.8488 88.4571 58.8652 88.0199 58.9258C87.5833 58.9859 87.3127 59.0117 87.2075 59.0027C86.8932 59.0023 86.6664 58.8535 86.5359 58.5742C86.3963 58.2945 86.2751 57.7183 86.1453 56.8367C85.8435 54.6714 85.1394 52.7764 84.015 51.1685C82.8996 49.5607 81.4687 48.4591 79.7398 47.8626C79.6929 50.0615 79.6984 51.8685 79.7574 53.2823C79.8161 54.6964 79.9189 56.023 80.0655 57.2453C80.1257 57.7691 80.0816 58.1008 79.9416 58.2398C79.6526 58.5101 78.9188 58.6402 77.7311 58.6121L75.3725 58.564C74.4987 58.5457 73.9845 57.8984 73.8383 56.6237C73.6921 55.3409 73.6804 51.5701 73.8133 45.2866C73.9083 40.7478 74.0788 37.9642 74.3341 36.9258C74.58 35.8789 75.0878 35.3652 75.8565 35.3836L77.1662 35.5168L79.6824 35.4074C79.9619 35.382 80.1363 35.382 80.2063 35.4257C80.6254 35.5312 80.826 35.7847 80.8252 36.1687C80.8162 36.4828 80.7188 37.1289 80.5425 38.1231C80.3662 39.1091 80.2071 40.2001 80.0569 41.3779C79.9064 42.5646 79.8161 44.1444 79.7782 46.1343V46.1343Z" stroke="#FEFEFE" stroke-width="0.287999" stroke-miterlimit="22.9256"/>
<path d="M96.4899 48.8226C96.5747 45.026 97.8297 41.5282 100.281 38.3379C102.399 35.5921 104.21 34.2424 105.712 34.271C107.389 34.3088 109.187 35.2632 111.105 37.1515C113.6 39.6082 114.818 42.665 114.742 46.3307C114.675 49.3242 113.535 52.4907 111.319 55.8209C109.095 59.1601 107.127 60.8062 105.415 60.7687C103.668 60.7394 101.757 59.4269 99.6824 56.8315C97.5028 54.1048 96.4421 51.4324 96.4898 48.8226L96.4899 48.8226ZM101.772 39.7371C101.264 40.3208 100.871 40.9833 100.572 41.7247C100.274 42.4666 100.124 43.138 100.114 43.7228C100.067 45.9483 100.718 48.1925 102.069 50.4465C103.759 53.2684 105.966 54.7037 108.691 54.7603C109.111 54.7697 109.426 54.7615 109.635 54.7271C109.924 54.1779 110.143 53.5931 110.302 52.9739C110.451 52.3458 110.54 51.7176 110.55 51.0977C110.607 48.3488 109.851 45.8944 108.291 43.7361C106.626 41.447 104.453 40.1079 101.772 39.7372L101.772 39.7371Z" stroke="#FEFEFE" stroke-width="0.287999" stroke-miterlimit="22.9256"/>
<path d="M126.363 36.4439L130.241 36.5204C130.905 36.5388 131.298 36.6704 131.437 36.915C131.568 37.1599 131.689 37.9455 131.809 39.2549C131.92 40.5643 132.162 42.214 132.543 44.1961C132.915 46.1778 133.592 49.1986 134.554 53.276C134.828 51.5662 135.303 49.865 135.97 48.1641C136.338 47.1962 136.776 46.2282 137.285 45.2598C137.574 44.6758 137.881 44.0129 138.197 43.2628C138.503 42.5214 138.662 41.9194 138.671 41.4655C138.699 40.2788 138.657 39.292 138.553 38.5068C138.45 37.7119 138.398 37.1974 138.399 36.9529C138.408 36.7783 138.6 36.6997 138.985 36.7095L139.509 36.7189L143.588 36.8041C144.496 36.8232 144.985 37.0947 145.045 37.6185C145.386 42.725 145.921 46.6622 146.633 49.4385C147.241 51.7874 148.249 54.5558 149.65 57.7262C149.754 58.0055 149.841 58.268 149.92 58.5212C150.007 58.7653 150.041 59.0274 150.041 59.3067C150.032 59.586 149.978 59.7779 149.865 59.8825C149.76 59.9787 149.445 60.0302 148.921 60.0208L145.567 59.9454C144.388 59.9259 143.185 58.0997 141.969 54.4754C141.082 51.8733 140.449 49.2709 140.086 46.6786L139.714 44.6352C138.688 46.7372 137.82 48.9877 137.108 51.3604C136.397 53.7421 136.018 55.7836 135.98 57.4942L135.961 58.5419C135.996 58.7161 135.986 58.9606 135.942 59.2747C135.907 59.5888 135.758 59.7454 135.514 59.7364L131.696 59.6606C131.137 59.6419 130.788 59.5891 130.648 59.4751C130.273 59.1868 129.908 58.4707 129.543 57.309C128.987 55.3703 128.509 53.4585 128.093 51.5639C127.547 49.0755 126.967 46.0457 126.344 42.4664C124.944 44.1484 123.831 45.9969 122.981 48.0029C122.139 50.0092 121.699 51.937 121.652 53.7874C121.642 54.4855 121.728 55.2187 121.928 55.9957C122.023 56.4148 122.197 57 122.458 57.7336C122.562 58.0481 122.657 58.3535 122.754 58.6332C122.858 58.9125 122.901 59.0871 122.901 59.1567C122.901 59.3668 122.717 59.4711 122.376 59.4617L118.079 59.3758C117.764 59.3668 117.546 59.1481 117.433 58.7289C117.321 58.3098 117.278 57.7863 117.287 57.1578C117.325 55.412 117.905 53.3448 119.036 50.9553C119.807 49.3681 120.745 47.7286 121.866 46.0376C122.803 44.5903 123.451 43.5437 123.819 42.8898C124.686 41.3288 125.134 40.012 125.162 38.9299C125.127 38.7201 125.11 38.5455 125.119 38.4056C125.059 37.9869 125.024 37.69 125.033 37.5154C125.033 37.3759 125.069 37.2013 125.147 36.9919C125.218 36.7825 125.322 36.6431 125.445 36.556C125.568 36.4689 125.873 36.4345 126.363 36.4439H126.363Z" stroke="#FEFEFE" stroke-width="0.287999" stroke-miterlimit="22.9256"/>
<path d="M152.926 49.9001C153.011 46.1035 154.266 42.6057 156.717 39.4154C158.836 36.6696 160.646 35.3199 162.148 35.3481C163.826 35.386 165.623 36.3407 167.542 38.2287C170.036 40.6854 171.254 43.7421 171.178 47.4079C171.112 50.4017 169.971 53.5678 167.755 56.8984C165.531 60.2372 163.563 61.8837 161.851 61.8458C160.104 61.8169 158.193 60.5044 156.119 57.9086C153.939 55.1823 152.878 52.5096 152.926 49.9001L152.926 49.9001ZM158.209 40.8142C157.701 41.3982 157.307 42.0608 157.008 42.8022C156.711 43.544 156.561 44.2155 156.551 44.7999C156.504 47.0258 157.155 49.27 158.505 51.524C160.195 54.3459 162.403 55.7808 165.128 55.8378C165.547 55.8472 165.862 55.8389 166.071 55.8046C166.361 55.2553 166.58 54.6706 166.738 54.0514C166.888 53.4233 166.976 52.7951 166.986 52.1752C167.043 49.4259 166.287 46.9719 164.727 44.8136C163.062 42.5245 160.89 41.1854 158.209 40.8143V40.8142Z" stroke="#FEFEFE" stroke-width="0.287999" stroke-miterlimit="22.9256"/>
<path d="M180.252 57.0068L180.424 58.692C180.449 59.1456 180.508 60.3327 180.584 62.2445C180.668 64.1559 180.7 65.6395 180.682 66.6872C180.625 69.2092 180.325 70.9456 179.764 71.8964C179.212 72.8464 178.434 73.3163 177.43 73.2976C176.774 73.2788 176.399 73.1124 176.304 72.7979L176.313 72.4753C176.313 72.2308 176.323 71.8292 176.333 71.2885C176.342 70.7385 176.36 70.2494 176.361 69.8307L176.399 68.3471L176.427 67.038L176.446 65.9907C176.456 65.4321 176.448 64.8122 176.432 64.1141C176.415 63.4156 176.356 62.6129 176.27 61.705C176.031 58.3182 175.851 55.8564 175.749 54.32C175.638 52.7841 175.596 51.3524 175.625 50.0258C175.711 46.0545 177.035 42.5744 179.617 39.5938C181.805 37.0926 183.703 35.8652 185.309 35.8941C187.021 35.9316 188.836 37.4797 190.77 40.5465C192.931 44.006 193.973 47.6561 193.896 51.5226C193.83 54.4723 193.128 56.8712 191.779 58.7021C190.431 60.5327 188.744 61.4288 186.718 61.3901C185.46 61.3624 184.211 60.9327 182.989 60.0928C181.768 59.253 180.852 58.2299 180.252 57.0068V57.0068ZM181.956 40.488C181.168 41.6212 180.598 42.7728 180.265 43.9416C179.922 45.1194 179.736 46.5151 179.699 48.1472C179.642 50.9926 180.345 53.4724 181.8 55.5869C183.09 57.4221 184.399 58.3495 185.726 58.378C186.356 58.3959 186.906 58.1787 187.37 57.7346C188.078 57.0549 188.447 56.008 188.484 54.5856L188.522 52.7618C188.561 50.8156 187.962 48.58 186.716 46.0553C185.341 43.2517 183.754 41.3985 181.957 40.4879L181.956 40.488Z" stroke="#FEFEFE" stroke-width="0.287999" stroke-miterlimit="22.9256"/>
<path d="M213.66 61.33L200.768 61.0644C200.174 61.0546 199.737 60.8792 199.467 60.5643C199.197 60.2413 199.067 59.7432 199.077 59.0713L199.219 52.4297C199.352 45.7533 199.542 41.6341 199.789 40.0805C200.028 38.5187 200.623 37.7429 201.566 37.7621L203.086 37.7992L203.925 37.8183C204.134 37.8187 204.361 37.8277 204.606 37.8285C204.955 37.8375 205.2 37.8379 205.34 37.8468L205.917 37.8566C206.152 37.9004 206.318 37.9883 206.405 38.1281C206.492 38.2676 206.527 38.425 206.527 38.5996C206.517 38.8789 206.42 39.4457 206.227 40.3008C206.042 41.1474 205.874 42.2294 205.741 43.538C205.617 44.8471 205.536 46.06 205.517 47.1776L205.488 48.2768C207.41 48.3151 209.253 48.5886 211.008 49.0979C212.763 49.6069 214.29 50.3948 215.598 51.4703C217.073 52.6863 218.127 54.1278 218.753 55.779C219.188 56.94 219.387 58.1537 219.359 59.4104C219.34 60.353 218.998 60.9546 218.325 61.2155C217.976 61.3546 217.364 61.4058 216.491 61.387L215.652 61.3768L214.813 61.3581L213.66 61.33V61.33ZM205.252 59.4831L210.964 59.5975L211.803 59.6162L211.84 58.0189C211.878 56.3868 211.575 55.0075 210.93 53.8891C209.885 52.0195 208.035 50.8992 205.389 50.5199C205.353 50.8078 205.318 51.1133 205.291 51.4539C205.264 51.7852 205.255 52.0731 205.246 52.3262L205.227 53.1727C205.208 54.3685 205.205 55.6951 205.229 57.144C205.244 58.5932 205.261 59.3698 205.252 59.4831V59.4831Z" stroke="#FEFEFE" stroke-width="0.287999" stroke-miterlimit="22.9256"/>
<path d="M245.469 40.945L246.698 42.4833C245.876 43.0317 245.072 43.4493 244.286 43.7446C243.49 44.04 242.747 44.1872 242.049 44.1688C241.28 44.1587 240.547 43.9044 239.84 43.4141C239.133 42.9332 238.471 42.3211 237.86 41.5957C237.25 40.8617 236.857 40.4156 236.683 40.2324C236.204 39.8039 235.715 39.5847 235.226 39.5753C233.697 39.5464 232.603 40.7578 231.952 43.227C231.504 44.9282 231.247 47.092 231.191 49.7104C231.978 49.1268 233.018 48.5612 234.32 47.9873C235.833 47.3263 237.013 46.997 237.851 47.0158C238.48 47.0256 239.126 47.1662 239.781 47.4201C240.435 47.683 241.082 48.0072 241.701 48.41C242.32 48.8038 242.766 49.0049 243.045 49.0143C243.359 49.0147 243.674 48.9541 243.997 48.8236C244.313 48.6932 244.627 48.5108 244.951 48.2752L245.918 49.5862C245.349 50.2315 244.877 50.7104 244.501 51.0331C244.124 51.355 243.644 51.712 243.066 52.1128C242.481 52.5132 242.017 52.7827 241.685 52.9132C241.353 53.0437 240.968 53.1042 240.549 53.0948C239.999 53.085 239.606 53.0233 239.379 52.9183C239.152 52.8042 238.785 52.5683 238.271 52.2097C237.747 51.8507 237.232 51.5272 236.717 51.2378C235.958 50.8002 235.242 50.5811 234.578 50.5627C233.845 50.544 233.128 50.726 232.42 51.0913C232.07 51.3003 231.659 51.5874 231.196 51.962C231.148 54.4757 231.703 56.5977 232.871 58.3364C234.038 60.0665 235.723 60.9591 237.924 61.0068C238.867 61.0255 239.846 60.8701 240.869 60.5314C241.891 60.1927 243.072 59.5575 244.418 58.6258L245.29 59.6833C244.248 60.7638 242.972 61.6435 241.46 62.3213C239.947 62.9998 238.226 63.3201 236.305 63.2733C233.3 63.2159 230.733 62.4435 228.604 60.965C225.567 58.8477 224.105 55.5984 224.191 51.2347L224.229 49.5592C224.286 46.8537 225.155 44.3325 226.844 41.9965C228.937 39.1194 231.69 37.719 235.106 37.7944C236.643 37.8233 238.172 38.1659 239.699 38.8319C240.458 39.1561 241.41 39.6901 242.544 40.4077C243.268 40.9851 243.87 41.2738 244.359 41.2835C244.744 41.2929 245.111 41.18 245.469 40.9448L245.469 40.945Z" stroke="#FEFEFE" stroke-width="0.287999" stroke-miterlimit="22.9256"/>
<defs>
<linearGradient id="paint0_linear_474_32" x1="128.24" y1="96.0423" x2="128.24" y2="4.17188" gradientUnits="userSpaceOnUse">
<stop stop-color="#94471E"/>
<stop offset="1" stop-color="#D6743C"/>
</linearGradient>
</defs>
</svg>
