<svg width="100%" height="100%" viewBox="0 0 222 82" fill="none" xmlns="http://www.w3.org/2000/svg">
<path fill-rule="evenodd" clip-rule="evenodd" d="M0.907407 70.3165L0 4.0293L216.803 9.07632L213.639 81.6871L0.907407 70.3165Z" fill="url(#paint0_linear_476_87)"/>
<path fill-rule="evenodd" clip-rule="evenodd" d="M0.707031 4.14564L217.51 9.19228L221.815 6.65358L6.99171 0.50293L0.707031 4.14564Z" fill="#AE7054"/>
<path fill-rule="evenodd" clip-rule="evenodd" d="M216.8 9.07661L220.861 6.62061L216.682 77.1212L213.636 81.6874L216.8 9.07661Z" fill="#633221"/>
<path fill-rule="evenodd" clip-rule="evenodd" d="M30.7812 71.9126L15.6064 71.1016L33.7259 4.81445H49.1512L30.7812 71.9126Z" fill="#FFC552" fill-opacity="0.14902"/>
<path fill-rule="evenodd" clip-rule="evenodd" d="M51.7852 73.0356L42.4072 72.5345L59.0492 5.40381L70.1524 5.6625L51.7852 73.0356Z" fill="#FFC552" fill-opacity="0.14902"/>
<path fill-rule="evenodd" clip-rule="evenodd" d="M130.791 77.2594L167.06 79.1981L180.039 8.22093L146.518 7.44043L130.791 77.2594Z" fill="#FFC552" fill-opacity="0.14902"/>
<path fill-rule="evenodd" clip-rule="evenodd" d="M184.651 80.1389L171.817 79.4526L183.778 8.30859L198.208 8.64453L184.651 80.1389Z" fill="#FFC552" fill-opacity="0.14902"/>
<path d="M0.272461 15.0887C33.1271 13.2136 36.4213 6.55166 70.2878 16.175C87.9568 21.1955 100.262 24.9612 110.93 26.1874C135.963 29.0652 150.134 22.817 186.677 20.9095C190.711 20.699 203.297 20.1806 215.376 23.8139" stroke="#91441B" stroke-width="0.755904" stroke-miterlimit="22.9256"/>
<path d="M213.668 17.0966C206.368 14.2117 204.059 13.7766 197.409 12.8613" stroke="#91441B" stroke-width="0.755904" stroke-miterlimit="22.9256"/>
<path d="M153.166 11.8C152.511 11.4804 84.6152 20.4941 65.8887 6.91748" stroke="#91441B" stroke-width="0.755904" stroke-miterlimit="22.9256"/>
<path d="M81.5332 10.083C88.7949 12.6432 116.311 12.8847 123.513 11.0893" stroke="#91441B" stroke-width="0.755904" stroke-miterlimit="22.9256"/>
<path d="M11.0977 22.7662C29.3875 22.0486 57.7426 30.2176 82.8266 32.2673C101.387 33.7834 122.571 30.995 134.211 32.8103C162.049 37.1511 187.497 43.9805 215.399 41.3066" stroke="#91441B" stroke-width="0.755904" stroke-miterlimit="22.9256"/>
<path d="M0.365234 30.7067C9.5348 27.8387 30.7709 30.7063 52.2588 35.2846C80.7836 41.3621 116.794 36.6773 137.686 39.2465C169.251 43.1282 204.861 50.7229 215.156 46.8564" stroke="#91441B" stroke-width="0.755904" stroke-miterlimit="22.9256"/>
<path d="M0.737305 57.9035C35.8423 60.4731 58.7205 49.1567 88.1398 49.1567C109.021 49.1567 122.059 49.6521 142.618 51.8026C175.867 55.2804 191.489 57.4562 214.954 51.4861" stroke="#91441B" stroke-width="0.755904" stroke-miterlimit="22.9256"/>
<path d="M0.87207 67.6652C26.1218 71.6641 51.1127 67.9367 68.3673 65.9022C99.9013 62.1838 127.697 59.0993 160.335 69.8801C193.56 80.855 213.345 75.5963 213.885 76.0513" stroke="#91441B" stroke-width="0.755904" stroke-miterlimit="22.9256"/>
<path d="M75.7852 74.3185C96.9149 71.9825 119.588 70.2107 140.893 72.1096C155.446 73.408 169.886 76.1593 180.005 79.8895" stroke="#91441B" stroke-width="0.755904" stroke-miterlimit="22.9256"/>
<path d="M0.147461 8.13282C14.1962 6.46209 41.6122 4.87252 54.827 9.44297" stroke="#91441B" stroke-width="0.755904" stroke-miterlimit="22.9256"/>
<path d="M0.189453 10.4477C2.85227 10.4946 9.64831 8.4043 11.489 8.4043" stroke="#91441B" stroke-width="0.755904" stroke-miterlimit="22.9256"/>
<path d="M0.578125 39.0347C30.0279 29.4203 32.8886 51.7363 18.7769 51.4222C14.0236 51.3163 3.8098 48.8893 0.721214 49.4658" stroke="#91441B" stroke-width="0.755904" stroke-miterlimit="22.9256"/>
<path fill-rule="evenodd" clip-rule="evenodd" d="M177.522 24.9503C170.855 26.5011 165.623 27.5488 165.455 30.1047C165.288 32.6611 170.427 33.9486 176.56 33.9486C182.693 33.9486 187.402 32.6646 187.665 30.1047C187.927 27.5449 184.189 23.3994 177.522 24.9503Z" stroke="#91441B" stroke-width="0.755904" stroke-miterlimit="22.9256"/>
<path fill-rule="evenodd" clip-rule="evenodd" d="M0.625264 54.6126L0.573242 51.6992L31.6119 55.4896L0.625264 54.6126Z" fill="#4C221A"/>
<path fill-rule="evenodd" clip-rule="evenodd" d="M216.598 19.6734L216.732 16.6401L199.492 17.4855L216.598 19.6734Z" fill="#633221"/>
<path fill-rule="evenodd" clip-rule="evenodd" d="M216.308 25.929L216.426 23.3066L205.903 24.1833L216.308 25.929Z" fill="#633221"/>
<path fill-rule="evenodd" clip-rule="evenodd" d="M0.263886 23.2477L0.231445 20.9004L17.0384 23.0181L0.263886 23.2477Z" fill="#633221"/>
<path d="M52.5258 24.453L52.5097 22.2791C55.3235 22.3588 57.1692 22.0876 58.0539 21.4661C58.9387 20.8513 59.4067 19.6411 59.4579 17.8344L59.4919 16.6129C59.5313 15.148 59.3882 14.0187 59.0692 13.2257C58.5974 12.0585 57.6942 11.458 56.3532 11.4181C55.3536 11.3962 54.5333 11.6232 53.891 12.099C53 12.7596 52.5383 13.8456 52.4988 15.3694C52.487 15.7046 52.4949 15.9867 52.5156 16.2101C52.5363 16.4332 52.5571 16.6367 52.5778 16.8207C52.5656 17.1094 52.3952 17.2484 52.0535 17.2433L51.383 17.2266C50.5413 17.2043 49.8579 17.2004 49.332 17.2289C48.7999 17.2512 47.8933 17.3535 46.5988 17.5301C46.3561 17.5708 46.2114 17.5715 46.1653 17.5191C46.1121 17.4601 46.0914 17.2106 46.1027 16.7637C46.1758 14.0382 47.5477 12.1006 50.2113 10.9393C52.048 10.1502 54.1897 9.78575 56.6351 9.85372C59.3441 9.92717 61.6081 10.5935 63.4281 11.8666C65.248 13.1389 66.1296 14.8234 66.0729 16.9188C66.0225 18.8892 65.162 20.4102 63.5035 21.4946C62.6974 22.0302 61.4111 22.5284 59.6318 23.0092L59.2776 23.1162L59.2538 23.7861C59.7538 23.8494 60.1682 23.9397 60.4912 24.0561C60.8203 24.1666 61.1101 24.2706 61.3735 24.3545C62.8345 24.8408 63.9347 25.4073 64.6807 26.0609C65.9939 27.2242 66.619 28.7913 66.5682 30.7551C66.5119 32.9094 65.7308 34.6271 64.2377 35.9146C62.7446 37.1955 60.9728 37.8138 58.9214 37.7572C58.238 37.7408 57.541 37.6389 56.8364 37.4643C55.6061 37.1939 54.4348 36.8842 53.3288 36.5213C52.2161 36.165 51.5319 35.9841 51.2688 35.972C50.8481 35.9607 50.4873 36.1463 50.1866 36.5155C49.8926 36.8913 49.7308 37.4701 49.7077 38.258C49.7022 38.4686 49.7229 38.7174 49.7636 39.0132C49.8113 39.3019 49.8316 39.4991 49.832 39.6038C49.8207 39.9456 49.6968 40.1105 49.4598 40.105L48.5919 40.0823C48.355 40.0241 48.1052 39.9795 47.8291 39.9409C47.5527 39.9096 47.3487 39.8909 47.2173 39.885C46.8228 39.8799 46.4354 39.967 46.0616 40.1659C45.8255 40.2916 45.6484 40.3514 45.5428 40.3456C45.2535 40.3401 45.0095 40.144 44.8109 39.7772C44.6123 39.4038 44.5236 38.7275 44.5521 37.7619C44.5853 36.3431 44.9946 35.2185 45.7664 34.3872C46.5452 33.5497 47.4569 33.1516 48.5153 33.1797C49.0939 33.1969 49.8375 33.3774 50.7527 33.7348C51.668 34.0853 52.6027 34.4294 53.5579 34.7731C54.5059 35.1168 55.2233 35.3306 55.6972 35.4204C56.164 35.517 56.5585 35.5673 56.874 35.5728C58.0641 35.6072 58.9097 35.0517 59.4172 33.9063C59.782 33.1036 59.981 31.9859 60.0204 30.5671C60.0259 30.3308 60.0314 30.0812 60.0435 29.8182C60.0486 29.5553 60.0541 29.2795 60.0658 28.9905C60.0717 28.7803 60.0576 28.6096 60.0373 28.4784C59.9657 27.2178 59.5478 26.2541 58.7756 25.5873C58.0035 24.9209 57.0093 24.5708 55.8 24.5368L52.5257 24.4528L52.5258 24.453Z" fill="#FEFEFE"/>
<path d="M69.5121 29.3645C69.5918 26.514 70.5595 23.8956 72.4095 21.5096C74.0171 19.4599 75.3866 18.4489 76.5173 18.4766C77.7797 18.5102 79.1304 19.24 80.5629 20.6658C82.4383 22.5292 83.3356 24.8307 83.2625 27.5761C83.1999 29.8293 82.3301 32.1977 80.6384 34.6943C78.9533 37.1913 77.4669 38.4194 76.1783 38.3858C74.8635 38.3522 73.4326 37.3538 71.8793 35.4029C70.2529 33.3416 69.4616 31.3286 69.512 29.3645H69.5121ZM73.5249 22.5752C73.1453 23.0104 72.845 23.5045 72.6179 24.0573C72.3899 24.6163 72.2738 25.1159 72.2629 25.5561C72.2175 27.2312 72.6984 28.9105 73.7051 30.6137C74.9636 32.7361 76.6181 33.8189 78.6691 33.8755C78.985 33.8873 79.2215 33.8799 79.3791 33.8592C79.6008 33.4447 79.77 33.004 79.8924 32.5372C80.0089 32.07 80.0723 31.6032 80.0836 31.1372C80.1403 29.0746 79.5867 27.2312 78.4224 25.6077C77.1788 23.8791 75.5442 22.8682 73.5249 22.5752Z" fill="#FEFEFE"/>
<path d="M92.882 23.1542C92.7393 23.68 92.5708 24.1472 92.3757 24.5683C92.0954 25.1148 91.8866 25.5554 91.7439 25.891C90.8775 27.6883 90.2919 29.0833 89.974 30.0763C89.6566 31.0697 89.4896 32.0162 89.4611 32.9096C89.4505 33.494 89.472 33.9799 89.5397 34.3803C89.6073 34.7741 89.7668 35.2394 90.0194 35.7773C90.1386 36.0656 90.3177 36.3737 90.5425 36.7011C90.6949 36.9105 90.7743 37.0874 90.7684 37.2187C90.7567 37.5339 90.5205 37.6862 90.0475 37.6749L88.036 37.6183L86.2607 37.5738C85.761 37.5562 85.4385 37.4789 85.2997 37.3285C85.1543 37.1781 85.094 36.8171 85.1113 36.2389C85.1562 34.5572 85.8506 32.5904 87.2013 30.3384C87.6189 29.6399 88.3699 28.5074 89.4673 26.9324C89.9896 26.1816 90.5057 25.4172 91.0281 24.6464C91.6872 23.5862 92.0254 22.7374 92.0422 22.1069C92.0539 21.7655 92 21.3975 91.8799 20.9974C91.8326 20.7873 91.8318 20.6431 91.8909 20.5642C91.9691 20.4388 92.0676 20.3528 92.1724 20.3196C92.2775 20.2798 92.4351 20.2662 92.6454 20.2717L95.9983 20.3619C96.4717 20.3728 96.7872 20.424 96.9456 20.5088C97.0973 20.5869 97.1708 20.8689 97.1598 21.342C97.1368 22.0514 97.3397 23.351 97.7619 25.2343C98.0638 26.6121 98.3382 27.7145 98.5787 28.534C99.3664 31.2696 99.9931 33.2896 100.459 34.5947C100.799 35.526 101.151 36.4569 101.523 37.3878C101.512 37.782 101.296 37.98 100.875 37.9687C100.691 37.9628 100.56 37.957 100.481 37.9573L98.9485 37.7934L97.4499 37.8722C96.8717 37.8551 96.4624 37.5941 96.2106 37.0831C95.8653 36.3358 95.2906 34.2303 94.4931 30.7724L94.0314 28.8958C93.7905 27.9903 93.6705 27.5118 93.6768 27.459C93.5826 27.0652 93.475 26.4879 93.3667 25.7465L93.124 24.4335L92.8819 23.1542H92.882Z" fill="#FEFEFE"/>
<path d="M103.769 30.4079C103.848 27.5574 104.816 24.939 106.666 22.5534C108.274 20.5033 109.643 19.4923 110.774 19.5201C112.036 19.5541 113.387 20.2837 114.819 21.7092C116.695 23.5725 117.592 25.8742 117.519 28.62C117.457 30.8728 116.587 33.2412 114.895 35.7382C113.21 38.2347 111.723 39.4629 110.435 39.4293C109.12 39.3957 107.689 38.3972 106.136 36.4468C104.509 34.3854 103.718 32.372 103.769 30.4079ZM107.781 23.6191C107.402 24.0542 107.102 24.548 106.874 25.1007C106.646 25.6601 106.53 26.1594 106.519 26.5996C106.474 28.2746 106.955 29.954 107.962 31.6572C109.22 33.7795 110.875 34.8624 112.926 34.919C113.241 34.9311 113.478 34.9233 113.636 34.9025C113.857 34.4881 114.026 34.0475 114.149 33.5807C114.265 33.1135 114.329 32.647 114.34 32.1806C114.397 30.1181 113.843 28.275 112.679 26.6512C111.436 24.9226 109.801 23.9117 107.781 23.6191Z" fill="#FEFEFE"/>
<path d="M139.537 28.6872L137.609 28.2821C137.81 27.7555 137.953 27.3543 138.038 27.0649C138.122 26.7754 138.173 26.4801 138.185 26.1578C138.218 24.7652 137.681 23.789 136.574 23.2359C135.909 22.8972 135.008 22.7175 133.89 22.6831L133.187 22.6664L133.012 26.2136L132.938 28.7759C132.887 30.7724 132.856 32.6447 132.844 34.3917C132.832 36.1386 132.857 37.3273 132.912 37.9644C132.954 38.332 132.889 38.6011 132.712 38.7664C132.536 38.9312 132.096 39.0054 131.385 38.989L129.183 38.9266C128.657 38.9156 128.347 38.6613 128.253 38.1754C128.165 37.6832 128.14 36.5077 128.191 34.6424L128.385 32.3162L128.423 30.7001L128.542 26.4043L128.768 22.5479L128.098 22.5311C126.994 22.5034 126.107 22.619 125.438 22.8909C124.243 23.3889 123.623 24.344 123.59 25.7691C123.578 26.0058 123.645 26.3667 123.785 26.859C123.925 27.3508 124.026 27.7051 124.079 27.9149L122.109 28.2192C121.815 27.209 121.542 26.4289 121.29 25.8847C121.031 25.3405 120.614 24.6069 120.025 23.6963C119.819 23.3756 119.674 23.133 119.601 22.976C119.448 22.6549 119.374 22.3201 119.386 21.9783C119.397 21.6107 119.521 21.3014 119.763 21.0443C120.012 20.7873 120.261 20.6611 120.524 20.6662C120.708 20.6724 120.984 20.7103 121.353 20.7677C121.714 20.8318 122.162 20.8955 122.681 20.9658C123.234 21.0814 123.964 21.1701 124.884 21.2186C125.805 21.2736 126.679 21.3091 127.521 21.3318L134.49 21.5178L135.712 21.5513L136.186 21.5627C137.264 21.5908 138.302 21.54 139.301 21.4111C139.827 21.3759 140.267 21.3346 140.628 21.2936C140.983 21.2459 141.265 21.2314 141.476 21.2369C141.739 21.2427 141.982 21.3795 142.214 21.6474C142.439 21.9158 142.552 22.2373 142.54 22.6053C142.528 22.9467 142.458 23.2623 142.314 23.5451C142.099 23.8815 141.949 24.1315 141.864 24.2831C141.342 25.0077 140.904 25.7125 140.546 26.4039C140.18 27.0882 139.848 27.8515 139.536 28.687L139.537 28.6872Z" fill="#FEFEFE"/>
<path d="M144.019 31.634C144.098 28.7831 145.066 26.165 146.916 23.779C148.524 21.7293 149.893 20.7184 151.024 20.7462C152.286 20.7797 153.637 21.5094 155.07 22.9352C156.945 24.7986 157.842 27.1003 157.769 29.8457C157.707 32.0988 156.837 34.4673 155.145 36.9639C153.46 39.4608 151.973 40.6886 150.685 40.6554C149.37 40.6214 147.939 39.6233 146.386 37.6725C144.759 35.6111 143.968 33.5981 144.019 31.634H144.019ZM148.031 24.8447C147.652 25.2798 147.352 25.7737 147.125 26.3264C146.897 26.8858 146.781 27.3854 146.769 27.8253C146.724 29.5007 147.205 31.1797 148.212 32.8833C149.47 35.0056 151.125 36.0884 153.176 36.1451C153.491 36.1568 153.728 36.1494 153.886 36.1286C154.108 35.7142 154.276 35.2732 154.399 34.8064C154.515 34.3396 154.579 33.8727 154.59 33.4067C154.647 31.3441 154.093 29.5007 152.929 27.8772C151.686 26.1487 150.051 25.1377 148.031 24.8447Z" fill="#FEFEFE"/>
<path d="M165.652 29.8054L172.065 26.158C172.111 24.5814 172.205 23.6154 172.348 23.2537C172.491 22.885 172.852 22.7127 173.437 22.7303L176.757 22.8205C177.072 22.8256 177.232 23.0154 177.22 23.3834L177.023 24.9143C176.817 25.9335 176.669 26.7616 176.593 27.4058C176.511 28.0433 176.455 28.9433 176.421 30.0992C176.337 33.2985 176.449 36.3123 176.751 39.1288C176.798 39.4964 176.733 39.7659 176.576 39.9307C176.413 40.096 175.96 40.1698 175.223 40.1534L173.015 40.0913C172.462 40.0803 172.117 39.3725 171.98 37.9678C171.848 36.5693 171.853 33.1473 172.006 27.6952L165.627 31.3226C165.598 32.3672 165.609 33.418 165.654 34.4684C165.704 35.5192 165.836 36.9771 166.041 38.8412C166.082 39.2088 166.024 39.4783 165.861 39.6431C165.697 39.808 165.251 39.8822 164.514 39.8658L162.266 39.8037C161.977 39.7916 161.779 39.7666 161.674 39.7076C161.364 39.5185 161.217 39.0529 161.24 38.3174L161.144 35.9532C161.167 35.1122 161.162 34.0352 161.137 32.7218C161.104 31.4081 161.1 30.4362 161.117 29.8058C161.207 26.4686 161.363 24.4056 161.596 23.6099C161.829 22.8142 162.189 22.4251 162.682 22.436L165.975 22.5267C166.311 22.538 166.476 22.7279 166.465 23.0893L166.241 24.6205C166.094 25.5147 165.966 26.3295 165.858 27.0721C165.749 27.8214 165.681 28.7347 165.653 29.8054H165.652ZM173.704 16.1741L174.521 16.7089C173.714 18.3937 172.799 19.6199 171.777 20.3793C171.056 20.9078 170.367 21.1672 169.709 21.1504C169.184 21.1332 168.63 20.6758 168.047 19.7653C167.471 18.8551 167.026 17.6878 166.723 16.2573L166.554 15.2272L167.546 14.9795C167.792 15.6943 168.091 16.2842 168.447 16.7358C168.983 17.4101 169.603 17.7553 170.312 17.7721C171.726 17.8116 172.75 17.4327 173.378 16.635L173.704 16.1741H173.704Z" fill="#FEFEFE"/>
<path d="M58.7975 55.2165L59.1134 55.2282C60.8747 52.1996 62.541 50.0046 64.0993 48.6581C65.3629 47.5557 66.5573 47.0248 67.688 47.0592C68.109 47.0705 68.4902 47.1345 68.826 47.2646C69.1622 47.3943 69.3335 47.531 69.3276 47.6888C69.3221 47.9517 69.2052 48.2279 68.9894 48.5116C68.4472 49.2296 68.1559 50.2362 68.1219 51.5238L68.0597 52.312L67.1132 52.2831C66.7676 51.5163 66.2007 51.1183 65.4117 51.0956C64.7807 51.0784 64.0457 51.4101 63.2009 52.0839C62.356 52.7578 61.63 53.5683 61.0228 54.5301L60.2061 55.611C62.7333 56.3879 64.7502 57.5415 66.2621 59.0587C68.1309 60.9291 69.0395 62.7706 68.9882 64.5901C68.9831 64.9054 68.6618 65.0577 68.0308 65.041L67.5573 65.0299L66.2222 64.8452C65.6964 64.828 65.269 64.8428 64.9402 64.8838C64.6122 64.9245 64.4085 64.9452 64.3292 64.939C64.0927 64.9335 63.9214 64.8225 63.8284 64.6127C63.7291 64.3967 63.6348 63.9635 63.5465 63.3068C63.3291 61.6724 62.8033 60.2431 61.9631 59.0251C61.1296 57.8071 60.0673 56.9711 58.7639 56.5168C58.7185 58.1727 58.7115 59.532 58.749 60.6024C58.7866 61.6661 58.8636 62.6576 58.9664 63.583C59.0075 63.9772 58.9754 64.2267 58.8706 64.3326C58.6548 64.5369 58.0961 64.6249 57.2024 64.6026L55.4275 64.5514C54.7699 64.5346 54.3863 64.0436 54.2835 63.0854C54.1741 62.1201 54.1878 59.2763 54.318 54.5531C54.4083 51.144 54.5502 49.0482 54.7437 48.2592C54.9376 47.4767 55.3172 47.0939 55.8959 47.1115L56.8823 47.2189L58.7816 47.1513C58.9919 47.1306 59.1233 47.1299 59.1761 47.1623C59.4857 47.2467 59.6374 47.4365 59.6319 47.7256C59.6264 47.9615 59.5564 48.4479 59.4153 49.1908C59.2738 49.9401 59.1459 50.7553 59.0314 51.6425C58.9172 52.53 58.8367 53.7257 58.7976 55.2163L58.7975 55.2165Z" fill="#FEFEFE"/>
<path d="M78.132 50.709C77.9893 51.2352 77.8208 51.702 77.6257 52.1231C77.3454 52.6696 77.1366 53.1102 76.9939 53.4461C76.1275 55.243 75.5419 56.638 75.224 57.6314C74.9066 58.6243 74.7396 59.5709 74.7111 60.4643C74.7005 61.0487 74.722 61.5346 74.7897 61.935C74.8573 62.3292 75.0168 62.7945 75.2694 63.3319C75.3886 63.6206 75.5677 63.9284 75.7925 64.2558C75.9449 64.4651 76.0243 64.6421 76.0184 64.7734C76.0067 65.0886 75.7705 65.2409 75.2975 65.2297L73.286 65.173L71.5107 65.1285C71.011 65.1109 70.6885 65.0336 70.5497 64.8832C70.4043 64.7328 70.344 64.3718 70.3613 63.7937C70.4062 62.112 71.1006 60.1451 72.4513 57.8931C72.8689 57.195 73.6199 56.0622 74.7173 54.4872C75.2396 53.7364 75.7557 52.9719 76.2781 52.2011C76.9372 51.1409 77.2754 50.2921 77.2922 49.6616C77.3039 49.3201 77.25 48.9522 77.1299 48.5522C77.0826 48.342 77.0818 48.1979 77.1409 48.119C77.2191 47.9936 77.3176 47.9076 77.4224 47.8744C77.5275 47.8346 77.6851 47.8209 77.8954 47.8263L81.2483 47.917C81.7217 47.9275 82.0372 47.9787 82.1956 48.0638C82.3473 48.1416 82.4208 48.4241 82.4098 48.8967C82.3868 49.6061 82.5897 50.9058 83.0119 52.7891C83.3138 54.1668 83.5882 55.2691 83.8287 56.0887C84.6164 58.8243 85.2431 60.8443 85.7092 62.1494C86.0485 63.0807 86.4012 64.0116 86.7734 64.9425C86.762 65.3367 86.5458 65.5348 86.1248 65.5238C85.941 65.5176 85.8096 65.5117 85.7306 65.5121L84.1985 65.3481L82.6999 65.4273C82.1217 65.4097 81.7124 65.1488 81.4606 64.6379C81.1153 63.8906 80.5406 61.7851 79.7431 58.3271L79.2814 56.4505C79.0405 55.5454 78.9205 55.0665 78.9268 55.0137C78.8326 54.6199 78.725 54.0426 78.6167 53.3012L78.374 51.9883L78.1319 50.709H78.132Z" fill="#FEFEFE"/>
<path d="M94.0511 55.8587L98.1468 55.9653C98.6031 53.625 99.6849 51.5187 101.386 49.6522C102.851 48.0697 104.025 47.2892 104.919 47.3182C106.095 47.3459 107.42 48.0756 108.872 49.5077C110.793 51.364 111.717 53.6653 111.644 56.4115C111.582 58.717 110.718 61.1049 109.06 63.5753C107.401 66.0457 105.914 67.2606 104.6 67.2274C103.284 67.1867 101.88 66.2274 100.373 64.3363C98.6672 62.2023 97.8489 59.9339 97.9173 57.5361L94.012 57.4353C93.978 58.6373 93.996 59.7471 94.0664 60.7713C94.2419 63.3124 94.3264 64.6125 94.3268 64.6652C94.3154 65.0851 94.2052 65.3617 93.989 65.5008C93.7786 65.6395 93.2141 65.6945 92.3001 65.6723L90.5775 65.6211C90.0055 65.6102 89.6548 65.0469 89.5316 63.9375C89.4018 62.8347 89.396 60.0631 89.5211 55.6294C89.6114 52.2922 89.7466 50.2226 89.921 49.4139C90.1012 48.6053 90.4805 48.2096 91.0591 48.2202L92.1639 48.294L92.8344 48.3108C92.9923 48.3167 93.1632 48.3158 93.3474 48.3217C93.5835 48.2744 93.7548 48.2541 93.8595 48.2604L94.254 48.2717C94.4648 48.3299 94.6031 48.4081 94.663 48.5128C94.7291 48.6241 94.756 48.7421 94.7564 48.8737C94.7455 49.3202 94.6751 49.8394 94.5527 50.4378C94.283 51.8246 94.1137 53.6317 94.0511 55.8587H94.0511ZM102.13 51.4221C101.835 51.7256 101.6 52.0487 101.437 52.3772C101.157 52.9503 100.97 53.6211 100.868 54.4027L100.84 55.5394C100.952 57.1348 101.557 58.6493 102.642 60.09C103.931 61.7982 105.486 62.6713 107.294 62.7225C107.557 62.728 107.768 62.7206 107.925 62.6998C108.394 61.8244 108.641 60.9169 108.662 59.9778C108.713 58.1774 108.232 56.4656 107.233 54.8477C106.021 52.8828 104.32 51.7409 102.13 51.4221H102.13Z" fill="#FEFEFE"/>
<path d="M128.642 49.191C128.931 49.2488 129.234 49.3391 129.563 49.4692C129.886 49.5989 130.044 49.7363 130.045 49.8937C129.858 50.7883 129.684 51.6426 129.517 52.4645C129.35 53.2927 129.244 54.6857 129.187 56.6561C129.131 58.7054 129.198 60.564 129.376 62.225C129.555 63.886 129.632 65.0415 129.615 65.6985C129.604 66.1189 129.506 66.4017 129.316 66.5404C129.126 66.6794 128.66 66.7403 127.917 66.7173L125.892 66.6673C125.176 66.6442 124.76 66.2192 124.651 65.3919C124.542 64.5583 124.544 62.0824 124.657 57.9569C124.473 57.9249 124.328 57.9057 124.223 57.9065C123.881 57.8948 123.527 57.9425 123.172 58.0554C122.811 58.162 122.378 58.3812 121.874 58.7116C121.552 58.9101 121.231 59.0625 120.91 59.1754C120.594 59.282 120.194 59.3367 119.72 59.3191C118.694 59.2905 117.631 58.1854 116.537 56.0029C115.662 54.279 114.963 52.3583 114.441 50.2387C114.368 50.029 114.334 49.8062 114.339 49.5695C114.345 49.4117 114.397 49.2867 114.489 49.2012C114.587 49.1082 114.732 49.0554 114.929 49.0347C115.126 49.014 115.336 49.0071 115.546 49.0125L118.676 49.0968C119.07 49.1086 119.353 49.1859 119.518 49.3363C119.683 49.4867 119.803 49.8867 119.865 50.5434C120.145 52.7817 120.685 54.4212 121.471 55.4689C122.034 56.215 122.659 56.5998 123.343 56.6166L123.777 56.6276C123.988 56.6331 124.158 56.6194 124.296 56.5858C124.427 56.546 124.565 56.4666 124.696 56.3413C124.787 53.1419 124.943 51.1579 125.169 50.3949C125.402 49.6254 125.841 49.2492 126.492 49.2664L128.642 49.1911V49.191Z" fill="#FEFEFE"/>
<path d="M138.328 56.9774L144.741 53.3305C144.787 51.7472 144.881 50.7749 145.024 50.4061C145.167 50.0444 145.527 49.8655 146.119 49.8827L149.433 49.973C149.749 49.9781 149.907 50.1679 149.895 50.5359L149.699 52.0672C149.493 53.0926 149.352 53.9207 149.269 54.5645C149.187 55.202 149.131 56.1021 149.097 57.2584C149.013 60.464 149.125 63.4781 149.427 66.3009C149.474 66.6684 149.409 66.9384 149.252 67.1032C149.089 67.2681 148.636 67.3423 147.899 67.3254L145.691 67.2633C145.138 67.2524 144.793 66.5446 144.656 65.1399C144.524 63.7414 144.529 60.3193 144.682 54.8676L138.303 58.4951C138.274 59.5393 138.285 60.5901 138.33 61.6409C138.38 62.6913 138.512 64.1492 138.717 66.0133C138.758 66.3813 138.7 66.6508 138.537 66.8152C138.373 66.9805 137.926 67.0547 137.19 67.0379L134.941 66.9758C134.653 66.964 134.455 66.9387 134.35 66.8801C134.04 66.6906 133.893 66.225 133.916 65.4895L133.82 63.1187C133.843 62.278 133.844 61.201 133.812 59.8877C133.78 58.5677 133.776 57.5955 133.793 56.965C133.883 53.6282 134.038 51.5648 134.272 50.7691C134.505 49.9734 134.864 49.5777 135.364 49.5953L138.651 49.6793C138.986 49.691 139.152 49.8805 139.147 50.2485L138.917 51.7798C138.769 52.6736 138.642 53.4951 138.533 54.2381C138.425 54.9869 138.357 55.9002 138.328 56.9776L138.328 56.9774Z" fill="#FEFEFE"/>
<path d="M158.14 58.2422L158.456 58.2539C160.217 55.2249 161.884 53.0303 163.442 51.6834C164.706 50.5814 165.9 50.0506 167.031 50.0845C167.452 50.0963 167.833 50.1603 168.169 50.29C168.505 50.4197 168.676 50.5569 168.67 50.7147C168.665 50.9775 168.548 51.2537 168.332 51.5369C167.79 52.2553 167.499 53.2616 167.465 54.5491L167.402 55.3374L166.456 55.3089C166.11 54.5421 165.543 54.1436 164.755 54.1213C164.123 54.1038 163.389 54.4355 162.544 55.1093C161.699 55.7831 160.973 56.594 160.366 57.5558L159.549 58.6363C162.076 59.4133 164.093 60.5672 165.605 62.0841C167.473 63.9545 168.382 65.7959 168.331 67.6155C168.326 67.9307 168.005 68.0831 167.374 68.0663L166.9 68.0553L165.565 67.8705C165.039 67.8533 164.612 67.8686 164.283 67.9092C163.955 67.9502 163.751 67.9709 163.672 67.9647C163.435 67.9588 163.264 67.8482 163.171 67.6381C163.072 67.422 162.978 66.9889 162.889 66.3326C162.672 64.6981 162.146 63.2685 161.306 62.0505C160.472 60.8329 159.41 59.9968 158.107 59.5425C158.061 61.198 158.054 62.5575 158.092 63.6282C158.129 64.6919 158.206 65.6833 158.309 66.6087C158.35 67.0029 158.318 67.2525 158.213 67.358C157.998 67.5626 157.439 67.6501 156.545 67.6283L154.77 67.5767C154.113 67.5599 153.729 67.0694 153.626 66.1108C153.517 65.1459 153.531 62.3016 153.661 57.5788C153.751 54.1697 153.893 52.074 154.086 51.2849C154.28 50.5025 154.66 50.1197 155.239 50.1369L156.225 50.2442L158.124 50.1766C158.335 50.1559 158.466 50.1555 158.519 50.188C158.828 50.272 158.98 50.4618 158.975 50.7509C158.969 50.9872 158.899 51.4736 158.758 52.2166C158.617 52.9658 158.489 53.781 158.374 54.6681C158.26 55.5553 158.179 56.7511 158.14 58.2421L158.14 58.2422Z" fill="#FEFEFE"/>
<defs>
<linearGradient id="paint0_linear_476_87" x1="108.402" y1="81.6871" x2="108.402" y2="4.02969" gradientUnits="userSpaceOnUse">
<stop stop-color="#94471E"/>
<stop offset="1" stop-color="#D6753C"/>
</linearGradient>
</defs>
</svg>
