<svg width="22" height="22" viewBox="0 0 22 22" fill="none" xmlns="http://www.w3.org/2000/svg">
<g clip-path="url(#clip0_111_485)">
<path fill-rule="evenodd" clip-rule="evenodd" d="M6.30782 8.89299C7.34767 6.57753 9.69232 5.48912 12.1656 5.99847C14.9398 6.5691 16.3648 9.34796 16.0065 11.8541C15.7813 13.4274 14.8541 14.8927 13.1166 15.6372C8.69994 17.5291 4.39734 13.1463 6.30705 8.89376L6.30782 8.89299ZM-0.000210839 7.58628V7.54339C0.00132061 6.84561 0.668266 5.09848 1.43629 5.09848C1.92865 5.09848 2.51289 5.59865 3.54279 5.34129C4.13393 5.19346 4.70363 4.85568 4.9992 4.30573C5.15541 4.01467 5.29783 3.38812 5.29783 2.94311C5.29783 2.11435 5.14086 1.88457 5.14086 1.461C5.14086 0.635304 7.31015 0.00109863 7.99164 0.00109863C8.55139 0.00109863 8.67237 0.662112 8.90745 1.03819C9.90289 2.6306 12.037 2.61298 13.0607 1.02977C13.2169 0.788493 13.4451 0.00109863 14.0079 0.00109863C14.7821 0.00109863 15.7898 0.379477 16.348 0.938619C16.5264 1.11709 16.7691 1.36602 16.7691 1.66244C16.7691 2.73936 15.8143 3.44633 17.1443 4.835C17.564 5.27389 18.1681 5.47993 18.7669 5.47993C19.6666 5.47993 20.0847 5.09848 20.4507 5.09848C21.0924 5.09848 21.4469 5.84758 21.6468 6.34928C21.7632 6.64187 21.8666 6.96204 21.9339 7.29676C22.0365 7.80535 22.0794 8.33385 21.5656 8.59504C20.3183 9.14882 19.4392 10.156 19.8121 11.6205C20.0258 12.46 20.538 12.8828 21.2769 13.2321C22.2433 13.6886 22.0289 14.6583 21.6981 15.487C21.5044 15.9711 21.205 16.544 20.6942 16.7516C20.3252 16.901 20.1529 16.8627 19.7723 16.7593C18.9055 16.5226 17.7255 16.4858 17.0777 17.2211C16.3801 18.0124 16.2951 18.9928 16.7079 19.9594C16.9062 20.4236 16.7316 20.8609 16.3426 21.1566C16.1098 21.3335 15.8725 21.4576 15.5937 21.5978C15.3066 21.7425 15.0401 21.8237 14.6948 21.911C14.5171 21.9555 14.1098 22.0313 13.9153 21.9907C13.6963 21.9455 13.5087 21.7946 13.4022 21.6047C13.06 20.9965 13.0002 20.7024 12.4068 20.1976C12.0722 19.9127 11.6242 19.6967 11.1334 19.6967C10.0024 19.6967 9.15018 20.2941 8.68692 21.3366C8.53378 21.6805 8.44495 21.8536 8.05443 21.9608C7.31551 22.1638 5.64241 21.4852 5.10027 20.9046L4.95708 20.7338C4.51603 20.1938 5.18527 19.5596 5.18527 18.8442C5.18527 18.0078 5.05969 17.7558 4.58264 17.156C4.11249 16.5647 2.90112 16.5494 2.24412 16.7103C1.70965 16.8412 1.30764 16.9891 0.880371 16.5257C0.569487 16.1886 0.295358 15.5813 0.165951 15.1293C0.033481 14.6659 -0.115069 14.0402 0.14834 13.5814C0.296124 13.3232 0.76781 13.2788 1.37503 12.7649C2.74414 11.606 2.60555 10.0297 1.20197 9.01708C0.660608 8.62644 0.398731 8.69078 0.169014 8.34381C0.011275 8.10406 -0.000210839 7.86739 -0.000976562 7.58858L-0.000210839 7.58628Z" fill="#545454"/>
</g>
<defs>
<clipPath id="clip0_111_485">
<rect width="22" height="22" fill="white"/>
</clipPath>
</defs>
</svg>
